<svg width="339" height="271" viewBox="0 0 339 271" fill="none" xmlns="http://www.w3.org/2000/svg">
<g clip-path="url(#clip0_22_180)">
<path d="M173.108 217.41C175.322 216.256 177.946 216.091 180.324 216.915C182.702 217.74 184.753 219.141 186.475 220.873C189.919 224.253 192.051 229.282 193.281 233.982C188.033 235.054 182.702 232.003 180.078 230.354C175.896 227.716 169.992 220.296 173.108 217.41Z" fill="#455A64"/>
<path d="M202.383 235.136C199.841 233.899 198.201 231.343 198.037 228.54C197.873 225.737 198.939 223.016 200.825 220.955C201.563 219.883 202.793 219.224 204.105 219.224C205.335 219.389 206.401 220.131 206.811 221.285C207.221 222.439 207.385 223.594 207.221 224.83C206.893 228.87 205.745 232.745 202.383 235.136Z" fill="#455A64"/>
<path d="M210.829 248.162C210.583 247.915 210.337 247.75 210.173 247.42L208.369 245.442C206.319 243.298 204.597 240.825 203.367 238.104C202.137 235.383 201.645 232.333 201.973 229.365C202.055 228.458 202.301 227.551 202.629 226.726C202.711 226.397 202.875 226.232 202.957 226.067C202.957 225.984 203.039 225.902 203.121 225.82C201.727 229.777 201.973 234.147 203.777 238.022C205.007 240.66 206.729 243.133 208.697 245.359L210.419 247.42C210.501 247.585 210.665 247.833 210.829 248.162Z" fill="#263238"/>
<path d="M178.11 222.687C178.274 222.769 178.356 222.852 178.52 222.934L179.504 223.594C180.406 224.171 181.636 225.078 183.195 226.232C186.311 228.458 190.493 231.591 195.085 235.218C199.677 238.846 203.777 242.144 206.647 244.617C208.123 245.854 209.271 246.843 210.091 247.585L210.994 248.41C211.076 248.492 211.24 248.575 211.322 248.74C211.158 248.657 211.076 248.575 210.994 248.492L210.009 247.75C209.189 247.008 207.959 246.101 206.483 244.865C203.531 242.474 199.431 239.176 194.839 235.548C190.247 231.921 186.065 228.788 182.949 226.479L179.34 223.758C178.93 223.429 178.602 223.181 178.356 223.016C178.356 222.852 178.192 222.769 178.11 222.687Z" fill="#263238"/>
<path d="M200.497 242.391C195.249 239.588 189.017 239.506 183.687 242.144C182.374 242.803 180.98 243.958 181.062 245.442C181.144 246.926 182.702 247.833 184.179 248.245C190.329 249.894 196.807 247.75 200.743 242.721" fill="#455A64"/>
<path d="M187.623 244.37C187.869 244.205 188.197 244.04 188.443 243.958C188.771 243.793 189.099 243.628 189.427 243.545C189.837 243.381 190.329 243.216 190.739 243.051C191.313 242.886 191.887 242.721 192.461 242.556C193.117 242.391 193.773 242.309 194.429 242.226C195.987 242.061 197.463 242.061 199.021 242.226C200.579 242.391 202.055 242.803 203.531 243.298C204.187 243.545 204.761 243.793 205.335 244.123C205.827 244.37 206.401 244.7 206.893 244.947C207.303 245.194 207.713 245.442 208.041 245.772C208.369 246.019 208.615 246.184 208.861 246.431C209.107 246.596 209.353 246.843 209.517 247.091C209.435 247.173 208.533 246.266 206.729 245.112C206.237 244.782 205.745 244.535 205.171 244.287C204.597 243.958 203.941 243.71 203.367 243.463C201.973 242.968 200.497 242.639 198.939 242.391C197.463 242.226 195.905 242.226 194.429 242.391C193.773 242.474 193.117 242.556 192.461 242.721C191.887 242.803 191.395 242.968 190.821 243.133C188.853 243.875 187.705 244.452 187.623 244.37Z" fill="#263238"/>
<path d="M142.767 59.2787C145.145 60.1031 147.277 61.5872 148.671 63.6483C149.573 64.6377 150.065 65.9568 150.229 67.3584C150.229 68.6775 149.081 70.0791 147.769 69.9967C146.949 69.8318 146.211 69.4195 145.719 68.8424C144.325 67.5233 143.013 65.7919 141.045 65.5446C139.979 65.4621 138.749 65.7919 137.765 65.3797C136.781 64.8026 136.289 63.6483 136.617 62.5765C136.945 61.5047 137.601 60.6803 138.585 60.1031C139.815 59.1962 141.373 58.8665 142.767 59.2787Z" fill="#009421"/>
<path d="M145.883 48.5607C145.555 50.9516 147.933 52.2708 149.655 52.2708C151.377 52.2708 152.935 51.3639 154.411 50.457C157.774 48.4782 161.3 46.3347 163.268 43.0368C163.924 42.0475 164.334 40.8932 164.334 39.739C164.334 38.5847 163.76 37.4305 162.776 36.7709C161.546 36.1113 160.07 36.5236 158.758 37.0183C154.985 38.5023 151.541 40.8108 148.753 43.7788C147.277 45.0155 146.293 46.7469 145.883 48.5607Z" fill="#009421"/>
<path d="M141.209 47.9836C143.505 47.5713 145.473 46.0873 146.457 43.9437C147.441 41.8001 147.769 39.4916 147.523 37.1831C147.277 34.4624 146.539 31.8242 145.309 29.4332C144.899 28.4439 144.243 27.6194 143.423 26.8774C142.603 26.2178 141.455 25.9705 140.471 26.2178C138.995 26.7125 138.339 28.4439 137.929 29.9279C137.191 32.6486 136.781 35.3693 136.453 38.0901C136.207 40.3161 136.207 42.6246 137.109 44.6857C138.011 46.7469 139.733 48.1485 141.455 47.8187" fill="#009421"/>
<path d="M125.628 69.9142C125.874 69.7493 126.121 69.5844 126.367 69.3371L128.171 67.7706C129.073 66.9462 129.975 66.2041 130.959 65.5446C132.189 64.7201 133.419 63.9781 134.731 63.401C136.043 62.7414 137.437 62.3292 138.913 62.0818C140.061 61.917 141.291 61.9994 142.439 62.3292C143.177 62.5765 143.915 62.9063 144.571 63.401C144.817 63.5659 145.063 63.7308 145.309 63.8957C145.145 63.6483 144.899 63.4834 144.653 63.2361C143.997 62.7414 143.259 62.3292 142.521 62.0818C141.373 61.6696 140.143 61.5872 138.913 61.7521C137.437 61.9994 136.043 62.4116 134.649 63.0712C133.337 63.7308 132.025 64.4728 130.795 65.2972C129.811 66.0392 128.909 66.7813 128.007 67.6057C127.269 68.2653 126.695 68.9249 126.285 69.3371C126.038 69.4195 125.792 69.6669 125.628 69.9142Z" fill="#263238"/>
<path d="M127.023 68.6775C127.105 68.5951 127.269 68.5126 127.351 68.4302C127.515 68.1828 127.843 67.9355 128.171 67.6057C128.909 66.8637 129.893 65.7919 131.205 64.4728C133.747 61.9169 136.699 59.1962 140.881 55.651C144.899 52.2708 149.573 48.3958 152.853 46.0873C153.591 45.5926 154.247 45.098 154.904 44.6857C155.56 44.2735 156.052 43.9437 156.462 43.6964L157.446 43.0368C157.528 42.9544 157.692 42.8719 157.774 42.7895C157.61 42.8719 157.528 42.8719 157.446 42.9544L156.462 43.5315C156.052 43.7788 155.478 44.1086 154.904 44.5208C154.329 44.9331 153.591 45.3453 152.853 45.84C148.917 48.5607 145.145 51.4463 141.537 54.5792C137.273 58.2069 133.665 61.6696 131.123 64.3079C129.893 65.627 128.909 66.6988 128.171 67.5233L127.433 68.4302C127.187 68.4302 127.105 68.5951 127.023 68.6775Z" fill="#263238"/>
<path d="M133.747 61.5872C134.075 61.3398 134.321 61.01 134.567 60.6803C135.305 59.8558 135.961 58.9489 136.535 58.042C137.437 56.6404 138.339 55.2388 139.077 53.7548C140.061 51.941 140.881 50.1272 141.537 48.1485C142.849 44.6857 143.505 40.9757 143.587 37.2656C143.587 36.606 143.587 35.9465 143.505 35.3693C143.505 35.122 143.505 34.7922 143.423 34.5449C143.341 34.2975 143.341 34.1326 143.259 33.8853C143.177 33.4731 143.095 33.0608 142.931 32.7311C143.177 34.2151 143.259 35.7816 143.341 37.2656C143.259 40.8932 142.521 44.5208 141.209 47.9836C140.553 49.8798 139.733 51.7761 138.831 53.5075C138.093 54.9915 137.273 56.3931 136.371 57.7946C135.633 58.9489 134.977 59.9382 134.485 60.5154C134.157 60.8451 133.911 61.2574 133.747 61.5872Z" fill="#263238"/>
<path d="M318.007 271L226.574 270.588C215.586 270.505 206.729 261.519 206.729 250.471L207.713 19.9519C207.795 8.90417 216.734 -0.0824402 227.722 5.84585e-06L319.155 0.412236C330.144 0.494682 339 9.4813 339 20.5291L338.016 251.048C338.016 262.096 329.078 271.082 318.007 271Z" fill="#263238"/>
<path d="M319.073 8.73928L301.361 8.65683C298.901 8.65683 297.014 10.718 297.014 13.1089V16.3243C297.097 18.7977 295.128 20.7764 292.668 20.8588L258.145 20.6939C255.685 20.6115 253.799 18.6328 253.881 16.1594V12.944C253.963 10.4706 251.995 8.49194 249.617 8.40949H243.385L227.886 8.32705C220.178 8.32705 213.946 14.5105 213.864 22.2604L212.88 247.256C212.88 255.005 219.03 261.271 226.738 261.354L318.007 261.766C325.715 261.766 331.948 255.583 332.03 247.833L332.932 22.8375C333.014 15.0876 326.782 8.82173 319.073 8.73928Z" fill="#FAFAFA"/>
<path d="M111.278 271L19.8447 270.588C8.85631 270.505 0 261.519 0 250.471L0.984035 19.9518C0.984035 8.90405 10.0044 -0.0825622 20.9927 -0.000116224L112.426 0.412114C123.414 0.49456 132.271 9.48117 132.271 20.5289L131.287 251.048C131.287 262.096 122.266 271 111.278 271Z" fill="#455A64"/>
<path d="M113.41 8.40949L95.6974 8.32705C93.2373 8.40949 91.3512 10.3882 91.3512 12.8616V16.077C91.4332 18.5504 89.4652 20.5291 87.0051 20.6115L52.3998 20.5291C49.9398 20.4466 48.0537 18.4679 48.1357 15.9945V12.7791C48.2177 10.3058 46.3316 8.32705 43.8715 8.16216H37.6393L22.1408 7.99726C14.4325 7.91482 8.20028 14.1807 8.11828 21.9306L7.21625 246.926C7.21625 254.676 13.3665 260.942 21.0747 261.024L112.344 261.436C120.052 261.436 126.284 255.253 126.366 247.503L127.268 22.5078C127.35 14.7578 121.118 8.40949 113.41 8.40949Z" fill="#FAFAFA"/>
<path d="M88.6451 62.9063C88.7271 63.2361 87.3331 64.0605 85.365 64.8026C83.3969 65.5446 81.7569 65.7919 81.6749 65.4621C81.5929 65.1323 82.9869 64.3079 84.955 63.5659C86.9231 62.8238 88.4811 62.5765 88.6451 62.9063Z" fill="#FAFAFA"/>
<path d="M242.155 122.927C242.155 122.927 242.155 141.642 237.48 143.456C224.77 148.32 209.599 147.166 204.269 146.671C203.613 146.259 202.875 145.682 202.055 145.023C201.317 144.445 200.743 143.703 200.251 142.961C199.595 141.972 199.103 140.9 198.693 139.828C198.611 139.251 198.119 138.839 197.545 138.922C197.217 138.922 196.889 139.169 196.725 139.499C196.315 140.406 196.479 143.621 198.529 146.424C198.857 147.084 198.611 147.991 197.955 148.32C197.873 148.32 197.791 148.403 197.791 148.403C195.659 149.475 188.115 152.69 186.885 153.35C185.819 154.009 184.835 155.081 186.065 155.163C187.295 155.246 193.609 153.679 193.609 153.679C193.609 153.679 185.245 155.576 185.573 156.812C185.819 157.637 188.115 157.802 193.527 155.988C193.527 155.988 186.639 157.637 185.983 158.379C184.507 160.193 192.789 158.379 192.789 158.379C186.967 159.698 187.049 159.451 187.049 160.193C187.049 160.852 188.443 160.935 191.641 160.605C194.265 160.357 197.053 160.687 201.071 160.522C201.071 160.522 252.897 169.839 257.571 146.836C260.113 134.469 259.703 129.852 260.195 121.855" fill="#FFBE9D"/>
<path d="M196.233 157.472C196.233 157.637 194.511 158.131 192.297 158.544C190.083 158.956 188.279 159.286 188.279 159.121C188.279 158.956 190.001 158.461 192.215 158.049C194.429 157.637 196.233 157.307 196.233 157.472Z" fill="#EB996E"/>
<path d="M195.987 155.163C195.987 155.328 194.183 155.905 191.887 156.565C189.591 157.225 187.623 157.554 187.623 157.472C187.623 157.389 189.427 156.73 191.723 156.07C194.019 155.411 195.905 155.081 195.987 155.163Z" fill="#EB996E"/>
<path d="M195.659 152.772C195.659 152.937 193.937 153.514 191.805 154.174C189.673 154.834 187.787 155.163 187.787 154.998C187.787 154.834 189.509 154.256 191.641 153.597C193.773 152.937 195.577 152.69 195.659 152.772Z" fill="#EB996E"/>
<path d="M310.627 126.39C310.627 126.39 310.299 123.587 308.413 107.922C307.593 101.079 302.263 97.2038 297.343 94.648V94.5656L296.933 94.4831C292.832 92.5044 288.486 91.2677 283.976 90.6906L266.509 90.4433C266.509 90.4433 254.373 89.5364 245.599 97.781C242.729 100.502 239.776 124.658 239.776 124.658L248.469 127.791L248.387 124.246C248.387 124.246 248.059 131.501 250.437 135.706L256.095 145.682L252.405 163.243C250.109 169.921 242.483 194.408 245.435 218.564C249.125 248.575 250.273 261.601 250.273 261.601L300.705 261.848C300.705 261.848 310.709 216.998 305.215 177.424C302.755 159.78 295.948 157.884 294.964 154.092L296.03 126.967L310.627 126.39Z" fill="#8816AD"/>
<path d="M307.347 105.036C307.347 105.119 292.996 105.284 275.284 105.284C257.571 105.284 243.221 105.201 243.221 105.119C243.221 105.036 257.571 104.871 275.284 104.871C292.996 104.871 307.347 104.871 307.347 105.036Z" fill="#FAFAFA"/>
<path d="M243.549 113.611C243.549 113.693 243.057 113.858 242.565 113.858C242.073 113.858 241.581 113.775 241.581 113.611C241.581 113.446 242.073 113.363 242.565 113.363C243.057 113.363 243.549 113.446 243.549 113.611Z" fill="#FAFAFA"/>
<path d="M251.995 113.611C251.339 113.858 250.601 113.858 249.863 113.858C249.125 113.94 248.469 113.858 247.731 113.693C248.387 113.446 249.125 113.363 249.863 113.446C250.601 113.281 251.339 113.363 251.995 113.611Z" fill="#FAFAFA"/>
<path d="M260.441 113.611C259.785 113.858 259.047 113.94 258.309 113.858C257.571 113.94 256.915 113.858 256.177 113.611C256.833 113.363 257.571 113.281 258.309 113.363C259.047 113.281 259.785 113.363 260.441 113.611Z" fill="#FAFAFA"/>
<path d="M268.969 113.528C268.313 113.775 267.575 113.858 266.837 113.775C266.099 113.858 265.443 113.775 264.705 113.528C265.361 113.281 266.099 113.281 266.837 113.281C267.493 113.281 268.231 113.363 268.969 113.528Z" fill="#FAFAFA"/>
<path d="M277.416 113.528C276.022 113.775 274.546 113.775 273.152 113.528C273.808 113.281 274.546 113.281 275.284 113.281C276.022 113.281 276.678 113.363 277.416 113.528Z" fill="#FAFAFA"/>
<path d="M285.862 113.528C284.468 113.775 282.992 113.775 281.598 113.528C282.254 113.281 282.992 113.281 283.73 113.281C284.468 113.281 285.206 113.363 285.862 113.528Z" fill="#FAFAFA"/>
<path d="M294.308 113.528C293.652 113.775 292.914 113.775 292.176 113.775C291.438 113.858 290.782 113.775 290.044 113.528C290.7 113.281 291.438 113.281 292.176 113.281C292.914 113.281 293.652 113.281 294.308 113.528Z" fill="#FAFAFA"/>
<path d="M302.755 113.528C302.099 113.775 301.361 113.775 300.623 113.775C299.885 113.858 299.229 113.775 298.491 113.528C299.147 113.281 299.885 113.281 300.623 113.281C301.361 113.198 302.099 113.281 302.755 113.528Z" fill="#FAFAFA"/>
<path d="M309.069 113.528C309.069 113.611 308.577 113.775 308.085 113.775C307.593 113.775 307.101 113.693 307.101 113.528C307.101 113.363 307.593 113.281 308.085 113.281C308.577 113.281 309.069 113.363 309.069 113.528Z" fill="#FAFAFA"/>
<path d="M289.388 120.618C289.388 120.701 278.4 120.866 264.951 120.866C251.503 120.866 240.515 120.783 240.515 120.618C240.515 120.454 251.503 120.371 264.951 120.371C278.4 120.371 289.388 120.536 289.388 120.618Z" fill="#FAFAFA"/>
<path d="M309.315 121.031C309.315 121.113 305.133 121.278 300.049 121.278C294.964 121.278 290.782 121.196 290.782 121.031C290.782 120.866 294.964 120.783 300.049 120.783C305.133 120.783 309.315 120.866 309.315 121.031Z" fill="#FAFAFA"/>
<path d="M290.044 136.943C290.044 137.025 282.746 137.025 273.808 136.778C264.869 136.531 257.571 136.283 257.571 136.201C257.571 136.118 264.869 136.201 273.808 136.366C282.746 136.531 290.044 136.778 290.044 136.943Z" fill="#FAFAFA"/>
<path d="M303.821 171.817C303.821 171.9 294.144 172.065 282.172 172.065C270.2 172.065 260.523 171.982 260.523 171.817C260.523 171.653 270.2 171.57 282.172 171.57C294.144 171.57 303.821 171.653 303.821 171.817Z" fill="#FAFAFA"/>
<path d="M305.461 190.945C305.461 191.027 292.012 191.192 275.366 191.192C258.719 191.192 245.271 191.11 245.271 190.945C245.271 190.78 258.719 190.698 275.366 190.698C292.012 190.698 305.461 190.862 305.461 190.945Z" fill="#FAFAFA"/>
<path d="M305.953 213.288C305.953 213.37 292.34 213.535 275.53 213.535C258.719 213.535 245.107 213.453 245.107 213.288C245.107 213.123 258.719 213.04 275.53 213.04C292.34 213.04 305.953 213.123 305.953 213.288Z" fill="#FAFAFA"/>
<path d="M304.887 234.559C304.887 234.641 292.094 234.806 276.268 234.806C260.441 234.806 247.649 234.724 247.649 234.559C247.649 234.394 260.441 234.312 276.268 234.312C292.094 234.312 304.887 234.394 304.887 234.559Z" fill="#FAFAFA"/>
<path d="M302.263 253.027C302.263 253.109 290.454 253.274 275.94 253.274C261.425 253.274 249.617 253.192 249.617 253.027C249.617 252.862 261.425 252.779 275.94 252.779C290.454 252.779 302.263 252.862 302.263 253.027Z" fill="#FAFAFA"/>
<path d="M254.865 130.347C254.865 130.43 254.373 130.594 253.881 130.594C253.389 130.594 252.897 130.512 252.897 130.347C252.897 130.182 253.389 130.1 253.881 130.1C254.373 130.1 254.865 130.265 254.865 130.347Z" fill="#FAFAFA"/>
<path d="M262.409 130.347C261.179 130.594 259.867 130.594 258.637 130.347C259.867 130.1 261.097 130.1 262.409 130.347Z" fill="#FAFAFA"/>
<path d="M269.872 130.347C268.642 130.594 267.329 130.594 266.099 130.347C267.329 130.1 268.642 130.1 269.872 130.347Z" fill="#FAFAFA"/>
<path d="M277.334 130.347C276.104 130.594 274.792 130.594 273.562 130.347C274.874 130.1 276.104 130.1 277.334 130.347Z" fill="#FAFAFA"/>
<path d="M284.878 130.347C283.648 130.594 282.336 130.594 281.106 130.347C282.336 130.1 283.648 130.1 284.878 130.347Z" fill="#FAFAFA"/>
<path d="M290.7 130.347C290.7 130.43 290.208 130.594 289.716 130.594C289.224 130.594 288.732 130.512 288.732 130.347C288.732 130.182 289.224 130.1 289.716 130.1C290.208 130.1 290.7 130.265 290.7 130.347Z" fill="#FAFAFA"/>
<path d="M264.541 145.435C264.541 145.517 264.049 145.682 263.557 145.682C263.065 145.682 262.573 145.6 262.573 145.517C262.573 145.435 262.983 145.27 263.557 145.27C264.131 145.27 264.541 145.352 264.541 145.435Z" fill="#FAFAFA"/>
<path d="M273.48 145.435C272.742 145.682 272.004 145.765 271.266 145.682C270.528 145.765 269.79 145.682 269.052 145.517C269.79 145.27 270.528 145.27 271.266 145.27C272.004 145.105 272.742 145.187 273.48 145.435Z" fill="#FAFAFA"/>
<path d="M282.5 145.352C281.762 145.6 281.024 145.682 280.286 145.6C279.548 145.682 278.81 145.6 278.072 145.435C278.81 145.187 279.548 145.105 280.286 145.187C281.024 145.105 281.762 145.187 282.5 145.352Z" fill="#FAFAFA"/>
<path d="M288.978 145.352C288.978 145.435 288.486 145.6 287.994 145.6C287.502 145.6 287.01 145.517 287.01 145.435C287.01 145.352 287.502 145.187 287.994 145.187C288.486 145.187 288.978 145.187 288.978 145.352Z" fill="#FAFAFA"/>
<path d="M254.619 181.711C254.619 181.793 254.127 181.958 253.635 181.958C253.143 181.958 252.651 181.876 252.651 181.711C252.651 181.546 253.143 181.464 253.635 181.464C254.127 181.464 254.619 181.629 254.619 181.711Z" fill="#FAFAFA"/>
<path d="M263.475 181.711C262.737 181.958 261.999 181.958 261.261 181.958C260.523 182.041 259.785 181.958 259.047 181.711C259.785 181.464 260.523 181.464 261.261 181.464C261.999 181.464 262.737 181.546 263.475 181.711Z" fill="#FAFAFA"/>
<path d="M272.25 181.711C270.774 181.958 269.298 181.958 267.821 181.711C269.298 181.464 270.774 181.464 272.25 181.711Z" fill="#FAFAFA"/>
<path d="M281.024 181.711C280.286 181.958 279.548 181.958 278.81 181.958C278.072 182.041 277.334 181.958 276.596 181.711C277.334 181.464 278.072 181.464 278.81 181.464C279.548 181.464 280.286 181.546 281.024 181.711Z" fill="#FAFAFA"/>
<path d="M289.798 181.711C288.322 181.958 286.846 181.958 285.37 181.711C286.928 181.464 288.404 181.464 289.798 181.711Z" fill="#FAFAFA"/>
<path d="M298.655 181.711C297.917 181.958 297.178 181.958 296.44 181.958C295.702 182.041 294.964 181.958 294.226 181.711C294.964 181.464 295.702 181.464 296.44 181.464C297.178 181.464 297.917 181.546 298.655 181.711Z" fill="#FAFAFA"/>
<path d="M305.051 181.711C305.051 181.793 304.559 181.958 304.067 181.958C303.575 181.958 303.083 181.876 303.083 181.711C303.083 181.546 303.575 181.464 304.067 181.464C304.559 181.464 305.051 181.629 305.051 181.711Z" fill="#FAFAFA"/>
<path d="M246.829 203.147C246.829 203.229 246.337 203.394 245.845 203.394C245.353 203.394 244.861 203.312 244.861 203.147C244.861 202.982 245.353 202.9 245.845 202.9C246.337 202.9 246.829 203.064 246.829 203.147Z" fill="#FAFAFA"/>
<path d="M255.603 203.147C254.127 203.394 252.651 203.394 251.175 203.147C252.651 202.9 254.209 202.9 255.603 203.147Z" fill="#FAFAFA"/>
<path d="M264.377 203.147C262.901 203.394 261.425 203.394 259.949 203.147C261.507 202.9 262.983 202.9 264.377 203.147Z" fill="#FAFAFA"/>
<path d="M273.234 203.147C271.758 203.394 270.282 203.394 268.805 203.147C270.282 202.9 271.758 202.9 273.234 203.147Z" fill="#FAFAFA"/>
<path d="M282.008 203.147C280.532 203.394 279.056 203.394 277.58 203.147C279.056 202.9 280.532 202.9 282.008 203.147Z" fill="#FAFAFA"/>
<path d="M290.782 203.147C289.306 203.394 287.83 203.394 286.354 203.147C287.83 202.9 289.306 202.9 290.782 203.147Z" fill="#FAFAFA"/>
<path d="M299.557 203.147C298.081 203.394 296.604 203.394 295.128 203.147C296.604 202.9 298.163 202.9 299.557 203.147Z" fill="#FAFAFA"/>
<path d="M305.051 203.394C305.594 203.394 306.035 203.284 306.035 203.147C306.035 203.01 305.594 202.9 305.051 202.9C304.507 202.9 304.067 203.01 304.067 203.147C304.067 203.284 304.507 203.394 305.051 203.394Z" fill="#FAFAFA"/>
<path d="M247.977 225.737C247.977 225.82 247.485 225.984 246.993 225.984C246.501 225.984 246.009 225.902 246.009 225.737C246.009 225.572 246.501 225.49 246.993 225.49C247.485 225.49 247.977 225.655 247.977 225.737Z" fill="#FAFAFA"/>
<path d="M256.505 225.737C255.849 225.984 255.111 225.984 254.373 225.984C253.635 226.067 252.897 225.984 252.241 225.737C252.897 225.49 253.635 225.49 254.373 225.49C255.111 225.407 255.849 225.49 256.505 225.737Z" fill="#FAFAFA"/>
<path d="M265.033 225.737C263.639 225.984 262.163 225.984 260.769 225.737C262.163 225.407 263.639 225.407 265.033 225.737Z" fill="#FAFAFA"/>
<path d="M273.48 225.737C272.086 225.984 270.61 225.984 269.216 225.737C270.692 225.407 272.086 225.407 273.48 225.737Z" fill="#FAFAFA"/>
<path d="M282.008 225.737C280.614 225.984 279.138 225.984 277.744 225.737C279.138 225.407 280.614 225.407 282.008 225.737Z" fill="#FAFAFA"/>
<path d="M290.536 225.737C289.142 225.984 287.666 225.984 286.272 225.737C287.666 225.407 289.142 225.407 290.536 225.737Z" fill="#FAFAFA"/>
<path d="M299.065 225.737C297.671 225.984 296.194 225.984 294.8 225.737C296.194 225.407 297.589 225.407 299.065 225.737Z" fill="#FAFAFA"/>
<path d="M305.297 225.737C305.297 225.82 304.805 225.984 304.313 225.984C303.821 225.984 303.329 225.902 303.329 225.737C303.329 225.572 303.821 225.49 304.313 225.49C304.805 225.49 305.297 225.655 305.297 225.737Z" fill="#FAFAFA"/>
<path d="M250.847 244.782C250.847 244.865 250.355 245.03 249.863 245.03C249.371 245.03 248.879 244.947 248.879 244.782C248.879 244.617 249.371 244.535 249.863 244.535C250.355 244.535 250.847 244.7 250.847 244.782Z" fill="#FAFAFA"/>
<path d="M259.457 244.782C258.063 245.03 256.587 245.03 255.193 244.782C256.587 244.452 257.981 244.452 259.457 244.782Z" fill="#FAFAFA"/>
<path d="M267.985 244.782C266.591 245.03 265.115 245.03 263.721 244.782C265.115 244.452 266.591 244.452 267.985 244.782Z" fill="#FAFAFA"/>
<path d="M276.596 244.782C275.202 245.03 273.726 245.03 272.332 244.782C273.726 244.452 275.202 244.452 276.596 244.782Z" fill="#FAFAFA"/>
<path d="M285.206 244.782C283.812 245.03 282.336 245.03 280.942 244.782C282.336 244.452 283.812 244.452 285.206 244.782Z" fill="#FAFAFA"/>
<path d="M293.816 244.782C292.422 245.03 290.946 245.03 289.552 244.782C290.864 244.452 292.34 244.452 293.816 244.782Z" fill="#FAFAFA"/>
<path d="M300.131 244.782C300.131 244.865 299.721 245.03 299.147 245.03C298.573 245.03 298.081 244.947 298.081 244.782C298.081 244.617 298.573 244.535 299.147 244.535C299.721 244.535 300.131 244.7 300.131 244.782Z" fill="#FAFAFA"/>
<path d="M289.47 151.041C289.06 151.206 288.568 151.288 288.158 151.288C287.256 151.453 286.026 151.618 284.468 151.783C280.368 152.195 276.268 152.36 272.168 152.278C268.067 152.195 263.967 151.866 259.867 151.371C258.309 151.124 257.079 150.959 256.177 150.794C255.685 150.711 255.275 150.629 254.865 150.464C255.357 150.464 255.767 150.464 256.259 150.546L259.949 150.959C263.065 151.288 267.411 151.618 272.168 151.783C276.924 151.948 281.27 151.701 284.468 151.453L288.158 151.124C288.568 151.041 289.06 151.041 289.47 151.041Z" fill="#263238"/>
<path d="M291.52 140.406C291.438 139.993 291.356 139.581 291.356 139.169C291.356 138.262 291.274 137.108 291.192 135.789C291.028 132.82 290.864 128.863 290.618 124.576C290.372 120.289 290.29 116.249 290.208 113.363C290.208 111.879 290.208 110.725 290.208 109.983C290.208 109.571 290.208 109.158 290.29 108.746C290.372 109.158 290.454 109.571 290.454 109.983C290.454 110.89 290.536 112.044 290.618 113.363C290.782 116.331 290.946 120.289 291.192 124.576C291.438 128.863 291.52 132.903 291.602 135.789C291.602 137.19 291.602 138.344 291.602 139.169C291.684 139.581 291.602 139.993 291.52 140.406Z" fill="#263238"/>
<g opacity="0.4">
<path d="M263.065 151.536C267.083 151.288 271.02 150.711 274.956 149.639C278.81 148.485 282.5 146.424 284.96 143.291C288.158 139.169 288.732 133.645 289.142 128.451C289.552 122.762 289.716 116.744 290.618 110.56L291.684 139.169V152.36L277.744 158.296L263.065 151.536Z" fill="black"/>
</g>
<path d="M230.182 190.285C249.158 190.285 264.541 175.151 264.541 156.483C264.541 137.814 249.158 122.68 230.182 122.68C211.206 122.68 195.823 137.814 195.823 156.483C195.823 175.151 211.206 190.285 230.182 190.285Z" fill="#263238"/>
<path d="M228.132 186.74C247.108 186.74 262.491 171.606 262.491 152.937C262.491 134.269 247.108 119.134 228.132 119.134C209.156 119.134 193.773 134.269 193.773 152.937C193.773 171.606 209.156 186.74 228.132 186.74Z" fill="#455A64"/>
<path opacity="0.2" d="M229.179 177.726C243.608 176.978 254.728 165.129 254.017 151.259C253.306 137.389 241.033 126.752 226.605 127.499C212.176 128.247 201.056 140.096 201.767 153.966C202.478 167.836 214.751 178.473 229.179 177.726Z" fill="white"/>
<path d="M230.346 177.506C216.242 178.825 203.613 168.849 201.891 155.163C201.891 155.411 201.891 155.658 201.973 155.905C203.367 170.086 216.16 180.392 230.51 178.99C244.861 177.589 255.439 165.057 254.045 150.876C254.045 150.629 253.963 150.382 253.963 150.134C254.865 163.985 244.533 176.105 230.346 177.506Z" fill="#FAFAFA"/>
<path opacity="0.3" d="M225.426 127.709C239.53 126.39 252.159 136.366 253.881 150.052C253.881 149.804 253.881 149.557 253.799 149.31C252.405 135.211 239.612 124.823 225.262 126.225C210.911 127.626 200.333 140.158 201.727 154.339C201.727 154.586 201.809 154.834 201.809 155.081C200.907 141.23 211.321 129.11 225.426 127.709Z" fill="black"/>
<path d="M259.129 138.427C259.047 138.344 259.047 138.262 258.965 138.18C258.883 138.015 258.719 137.767 258.555 137.437L257.899 136.283C257.653 135.789 257.325 135.211 256.997 134.717L255.685 132.903C255.193 132.243 254.619 131.584 253.963 130.842C253.307 130.1 252.569 129.358 251.831 128.616C251.421 128.286 251.093 127.791 250.601 127.462L249.207 126.39C247.075 124.823 244.861 123.422 242.483 122.35L240.515 121.525C240.187 121.361 239.859 121.278 239.53 121.113L238.464 120.783C237.726 120.618 236.988 120.371 236.25 120.124L233.954 119.712C233.134 119.547 232.396 119.464 231.576 119.382C230.756 119.299 229.936 119.217 229.116 119.217H226.574L224.032 119.464C220.506 119.876 217.062 120.866 213.782 122.35C210.583 123.916 207.549 125.895 204.925 128.286C202.465 130.594 200.415 133.15 198.693 136.036L197.545 138.097L197.299 138.592L197.053 139.086C196.889 139.416 196.725 139.828 196.643 140.158C196.069 141.477 195.577 142.879 195.167 144.281C194.921 144.94 194.839 145.682 194.675 146.342C194.511 147.001 194.429 147.661 194.347 148.32C194.183 149.557 194.101 150.794 194.019 152.113C193.937 153.267 194.019 154.421 194.101 155.576C194.183 156.565 194.265 157.637 194.511 158.626C194.675 159.533 194.839 160.44 195.085 161.264C195.331 162.089 195.495 162.748 195.741 163.408C195.905 163.985 196.151 164.562 196.397 165.057L196.889 166.294L197.217 167.036C197.217 167.118 197.299 167.2 197.299 167.283C197.299 167.283 197.217 167.2 197.217 167.036C197.217 166.871 197.053 166.623 196.889 166.294C196.725 165.964 196.561 165.552 196.315 165.057C196.069 164.562 195.823 163.985 195.659 163.408C195.495 162.748 195.249 162.006 195.003 161.264C194.757 160.522 194.593 159.615 194.429 158.626C194.183 157.637 194.101 156.565 194.019 155.576C193.855 154.421 193.855 153.267 193.855 152.113C193.855 150.876 193.937 149.557 194.101 148.32C194.183 147.661 194.265 147.001 194.429 146.342C194.593 145.682 194.675 144.94 194.839 144.281C195.249 142.879 195.659 141.477 196.233 140.076L196.643 139.004L196.889 138.427L197.135 137.932C197.545 137.273 197.873 136.531 198.283 135.871C200.005 132.985 202.137 130.347 204.597 128.039C207.303 125.648 210.337 123.587 213.618 122.103C216.898 120.619 220.424 119.629 223.95 119.217L226.492 118.97H229.034C229.854 118.97 230.674 119.052 231.494 119.134C232.314 119.217 233.134 119.299 233.954 119.464L236.25 119.959C236.988 120.124 237.726 120.371 238.464 120.619L239.53 120.948C239.859 121.031 240.269 121.196 240.597 121.361L242.647 122.185C245.025 123.339 247.321 124.658 249.371 126.307L250.765 127.379C251.175 127.709 251.585 128.204 251.995 128.533C252.733 129.193 253.471 129.935 254.127 130.759C254.701 131.501 255.357 132.161 255.849 132.821L257.079 134.717C257.407 135.211 257.735 135.706 257.981 136.283L258.637 137.437L259.047 138.18C259.047 138.18 259.129 138.344 259.129 138.427Z" fill="#FAFAFA"/>
<path d="M249.863 184.267C249.781 184.349 249.207 183.607 248.633 182.618C248.223 182.041 247.977 181.381 247.813 180.722C247.895 180.639 248.469 181.381 249.043 182.371C249.453 182.948 249.699 183.607 249.863 184.267Z" fill="#263238"/>
<path d="M236.004 147.249L237.726 147.084C238.874 146.919 239.694 145.929 239.612 144.775L239.038 139.169L233.462 139.746C232.314 139.911 231.494 140.9 231.576 142.054L231.74 143.786C231.986 145.929 230.428 147.826 228.296 148.073C226.164 148.32 224.278 146.754 224.032 144.61L223.868 142.796C223.786 141.642 222.72 140.818 221.654 140.983L215.996 141.56L218.456 164.645L224.032 164.068C225.18 163.985 226 162.913 225.918 161.759L225.754 160.028C225.508 157.884 227.066 155.988 229.198 155.74C231.33 155.493 233.216 157.06 233.462 159.203L233.626 160.935C233.708 162.089 234.774 162.913 235.922 162.831L241.499 162.254L240.924 156.647C240.842 155.493 239.776 154.669 238.628 154.751L236.906 154.916C234.774 155.163 232.888 153.597 232.642 151.453C232.314 149.392 233.872 147.413 236.004 147.249Z" fill="#2A334A"/>
<path d="M234.938 147.249L236.66 147.084C237.808 146.919 238.628 145.929 238.546 144.775L237.972 139.169L232.396 139.746C231.248 139.911 230.428 140.9 230.51 142.054L230.674 143.786C230.92 145.929 229.362 147.826 227.23 148.073C225.098 148.32 223.212 146.754 222.966 144.61L222.802 142.796C222.72 141.642 221.654 140.818 220.588 140.983L214.93 141.56L217.39 164.645L222.966 164.068C224.114 163.985 224.934 162.913 224.852 161.759L224.688 159.945C224.442 157.802 226 155.905 228.132 155.658C230.264 155.411 232.15 156.977 232.396 159.121L232.56 160.852C232.642 162.006 233.708 162.831 234.856 162.748L240.432 162.171L239.858 156.565C239.776 155.411 238.71 154.586 237.562 154.669L235.84 154.834C233.708 155.081 231.822 153.514 231.576 151.371C231.248 149.392 232.806 147.413 234.938 147.249Z" fill="#455A64"/>
<path d="M214.766 141.642C215.094 143.538 215.34 145.435 215.586 147.331L216.324 153.102L216.98 158.873C217.144 160.77 217.308 162.748 217.472 164.645C217.144 162.748 216.898 160.852 216.652 158.956L215.914 153.185L215.258 147.413C215.094 145.517 214.93 143.538 214.766 141.642Z" fill="white"/>
<path d="M231.904 157.802C232.232 158.544 232.396 159.286 232.56 160.028C232.724 160.77 232.806 161.512 232.806 162.336C232.478 161.594 232.314 160.852 232.15 160.11C231.986 159.286 231.904 158.544 231.904 157.802Z" fill="white"/>
<path d="M237.89 139.004C235.84 139.499 233.79 139.746 231.822 140.076C231.412 140.158 231.002 140.488 230.838 140.9C230.756 141.148 230.674 141.395 230.674 141.56C230.674 141.807 230.674 142.054 230.674 142.302C230.674 142.796 230.756 143.291 230.838 143.868C230.838 144.363 230.756 144.94 230.592 145.435C230.674 144.94 230.756 144.445 230.674 143.868C230.592 143.374 230.51 142.879 230.428 142.302C230.428 142.054 230.346 141.807 230.346 141.477C230.346 141.23 230.428 140.9 230.51 140.653C230.674 140.076 231.166 139.664 231.74 139.581C233.79 139.416 235.84 139.169 237.89 139.004Z" fill="white"/>
<path d="M291.356 126.39C291.356 126.39 291.684 146.259 287.01 148.073C274.3 152.937 259.129 151.783 253.799 151.288C253.143 150.876 252.405 150.299 251.585 149.639C250.847 149.062 250.273 148.32 249.781 147.496C249.125 146.507 248.633 145.435 248.223 144.363C248.141 143.786 247.649 143.374 247.075 143.456C246.747 143.456 246.419 143.703 246.255 144.033C245.845 144.94 246.009 148.238 248.059 150.959C248.387 151.618 248.141 152.525 247.485 152.855C247.403 152.855 247.321 152.937 247.321 152.937C245.189 154.009 237.644 157.225 236.414 157.884C235.348 158.544 234.364 159.615 235.594 159.698C236.824 159.78 243.139 158.214 243.139 158.214C243.139 158.214 234.774 160.11 235.102 161.347C235.348 162.171 237.644 162.336 243.057 160.522C243.057 160.522 236.168 162.171 235.512 162.913C234.036 164.727 242.319 162.913 242.319 162.913C236.496 164.232 236.578 163.985 236.578 164.727C236.578 165.304 237.972 165.469 241.171 165.139C243.795 164.892 246.583 165.222 250.601 165.057C250.601 165.057 302.427 174.373 307.101 151.371C309.643 139.004 309.233 134.387 309.725 126.39" fill="#FFBE9D"/>
<path d="M245.763 162.171C245.763 162.336 244.041 162.831 241.827 163.243C239.612 163.655 237.808 163.985 237.808 163.82C237.808 163.655 239.53 163.161 241.745 162.748C243.959 162.336 245.763 162.006 245.763 162.171Z" fill="#EB996E"/>
<path d="M245.517 159.863C245.517 160.028 243.713 160.605 241.417 161.264C239.12 161.924 237.152 162.254 237.152 162.171C237.152 162.089 238.956 161.429 241.253 160.77C243.549 160.11 245.435 159.698 245.517 159.863Z" fill="#EB996E"/>
<path d="M245.189 157.472C245.189 157.637 243.467 158.214 241.335 158.873C239.202 159.533 237.316 159.863 237.316 159.78C237.316 159.698 239.038 159.038 241.171 158.379C243.303 157.719 245.107 157.307 245.189 157.472Z" fill="#EB996E"/>
<path d="M261.425 46.3347C259.129 47.4889 256.669 53.425 256.915 55.9808C257.161 58.5367 257.735 61.2574 256.997 63.7308C256.505 65.5446 255.193 67.111 254.865 69.0073C254.701 70.8211 255.029 72.6349 255.767 74.2838C256.587 75.9328 257.079 77.6641 257.325 79.3955C257.489 81.2093 256.751 83.188 255.193 84.0125C262.573 84.7545 270.036 84.4247 277.252 83.0231" fill="#263238"/>
<path d="M265.935 93.0815C266.427 88.2172 266.755 83.1056 266.755 83.1056C266.755 83.1056 260.605 81.4566 260.113 73.1296C259.621 65.2148 262.655 47.2416 262.655 47.2416C272.086 44.4384 282.336 47.9011 288.158 55.8159L283.73 95.3076C283.238 99.9246 278.892 103.14 273.972 102.563C269.133 101.986 265.525 97.781 265.935 93.0815Z" fill="#FFBE9D"/>
<path d="M262.081 61.4223C261.999 61.9994 262.409 62.4941 262.983 62.5765C263.557 62.659 264.049 62.3292 264.131 61.7521C264.213 61.1749 263.803 60.6803 263.229 60.5978C262.737 60.5154 262.245 60.8451 262.081 61.4223Z" fill="#263238"/>
<path d="M262.163 60.268C262.245 60.4329 263.147 59.9382 264.213 60.0207C265.279 60.1031 266.099 60.7627 266.263 60.6803C266.427 60.5978 266.263 60.3505 265.853 60.1031C265.361 59.6909 264.787 59.4436 264.213 59.4436C263.639 59.3611 263.065 59.526 262.573 59.7734C262.245 59.9382 262.081 60.1856 262.163 60.268Z" fill="#263238"/>
<path d="M273.808 62.9063C273.726 63.4834 274.136 63.9781 274.71 64.0605C275.284 64.143 275.776 63.8132 275.858 63.2361C275.94 62.659 275.53 62.1643 274.956 62.0818C274.464 61.9994 273.89 62.4116 273.808 62.9063Z" fill="#263238"/>
<path d="M273.808 61.8345C273.89 61.9994 274.792 61.5047 275.858 61.5872C276.924 61.6696 277.744 62.3292 277.908 62.2467C278.072 62.1643 277.908 61.9169 277.498 61.5872C277.006 61.1749 276.432 60.9276 275.858 60.9276C275.284 60.8451 274.71 61.01 274.218 61.2574C273.89 61.5047 273.726 61.7521 273.808 61.8345Z" fill="#263238"/>
<path d="M268.888 69.8318C268.313 69.5844 267.739 69.4195 267.083 69.3371C266.755 69.2546 266.509 69.1722 266.509 69.0073C266.509 68.6775 266.591 68.4302 266.755 68.1828C267.083 67.5233 267.411 66.7813 267.821 66.0392C269.298 62.9887 270.446 60.5154 270.282 60.4329C269.134 62.1643 268.232 63.8957 267.411 65.7919C267.083 66.5339 266.673 67.2759 266.427 67.9355C266.181 68.2653 266.099 68.6775 266.099 69.0898C266.181 69.3371 266.345 69.502 266.509 69.5844C266.673 69.6669 266.837 69.6669 267.001 69.6669C267.657 69.7493 268.313 69.8318 268.888 69.8318Z" fill="#263238"/>
<path d="M266.837 83.1056C270.692 83.5178 274.546 82.9407 278.072 81.2918C278.072 81.2918 274.874 86.6507 266.755 85.0843L266.837 83.1056Z" fill="#EB996E"/>
<path d="M269.134 72.5525C269.626 72.0578 270.364 71.8105 271.02 71.9754C271.512 72.0578 271.922 72.3876 272.25 72.7998C272.496 73.212 272.496 73.7892 272.25 74.119C271.84 74.5312 271.266 74.6136 270.774 74.3663C270.282 74.1189 269.79 73.7892 269.462 73.3769C269.38 73.2945 269.216 73.1296 269.134 73.0472C269.052 72.8823 269.052 72.7174 269.134 72.6349" fill="#EB996E"/>
<path d="M272.168 70.9036C272.004 70.9036 271.84 72.0578 270.692 72.8823C269.544 73.7067 268.232 73.3769 268.232 73.5418C268.232 73.7067 268.478 73.7892 269.052 73.8716C269.79 73.9541 270.446 73.7892 271.102 73.3769C271.676 72.9647 272.086 72.3876 272.25 71.728C272.332 71.2333 272.25 70.9036 272.168 70.9036Z" fill="#263238"/>
<path d="M284.386 64.5552C285.288 64.4728 286.19 64.6377 287.01 64.9675C287.83 65.3797 288.486 66.0392 288.732 66.9462C288.978 67.8531 288.896 68.76 288.486 69.5844C288.076 70.4089 287.502 71.0685 286.764 71.6456C286.272 72.0578 285.698 72.3876 285.124 72.5525C284.468 72.7174 283.812 72.5525 283.32 72.0578" fill="#FFBE9D"/>
<path d="M284.304 69.9142C284.222 69.9142 284.55 70.4913 285.37 70.4089C285.78 70.3264 286.19 69.9967 286.436 69.6669C286.682 69.2546 286.928 68.76 287.01 68.2653C287.092 67.7706 287.01 67.1935 286.764 66.6988C286.6 66.2866 286.19 65.9568 285.698 65.8744C284.878 65.7919 284.55 66.2866 284.632 66.369C284.714 66.4515 285.042 66.2041 285.534 66.369C286.19 66.6988 286.518 67.4408 286.272 68.1828C286.108 69.0897 285.698 69.8318 285.124 69.9967C284.55 70.1615 284.386 69.9142 284.304 69.9142Z" fill="#EB996E"/>
<path d="M298.819 74.2014C299.229 71.8105 298.901 69.4195 297.835 67.2759C297.014 65.7095 295.62 64.4728 294.882 62.8239C294.062 60.9276 294.144 58.8664 293.816 56.8053C293.078 51.8585 290.126 47.5713 285.862 45.0155C281.844 42.707 275.694 40.6459 271.184 43.7788C270.282 43.2842 269.215 42.9544 268.231 42.9544C266.345 42.9544 264.459 43.5315 262.901 44.6857C260.933 46.0873 259.457 47.9836 258.637 50.2921C257.817 52.6006 257.899 55.0739 258.883 57.3C259.129 57.8771 259.621 58.5367 260.195 58.6191C260.687 58.6191 261.179 58.4542 261.589 58.1244C264.705 55.8159 267.493 53.0952 269.79 49.9623C272.578 53.7548 276.186 56.9702 280.286 59.2787C281.434 59.7734 282.418 60.5978 283.074 61.5872C283.566 62.7414 283.73 63.9781 283.484 65.2148C283.074 71.0685 282.582 76.8397 282.09 82.6933C284.058 83.4354 286.19 83.7651 288.24 83.7651C288.732 83.8476 289.142 83.6827 289.552 83.4354C290.454 82.6933 289.88 80.8795 290.946 80.4673C290.864 82.6109 292.586 84.4247 294.718 84.5072C295.456 84.5072 296.276 84.3423 296.932 83.93C296.686 83.4354 296.44 82.8582 296.276 82.2811C296.522 81.9513 296.686 81.6215 296.85 81.2093C297.752 78.8184 298.409 76.5923 298.819 74.2014Z" fill="#263238"/>
<path d="M287.666 58.5367C287.42 58.7016 287.092 58.8664 286.846 59.0313C286.026 59.3611 285.206 59.6085 284.304 59.7734C278.318 60.9276 272.332 57.6298 270.036 51.8585C269.708 51.0341 269.462 50.2096 269.298 49.3027C269.216 48.9729 269.216 48.6431 269.216 48.3134C269.462 49.4676 269.872 50.6218 270.282 51.6936C272.66 57.1351 278.4 60.3505 284.222 59.3611C285.452 59.1962 286.6 58.9489 287.666 58.5367Z" fill="#263238"/>
<path d="M256.751 78.7359C256.505 78.4061 256.259 77.9939 256.013 77.5817C255.357 76.5099 254.865 75.3556 254.373 74.2014C253.717 72.3876 253.553 70.4913 253.963 68.5951C254.127 68.018 254.291 67.5233 254.537 67.0286C254.783 66.5339 255.193 66.0392 255.439 65.627C255.767 65.1323 255.931 64.6377 256.095 64.0605C256.177 63.4834 256.259 62.9063 256.177 62.3292C256.013 60.0207 256.095 57.7122 256.341 55.4862C256.587 53.5899 257.161 51.7761 257.981 50.1272C258.555 48.9729 259.375 47.9836 260.359 47.1591C260.605 46.9118 260.933 46.7469 261.261 46.6644C261.343 46.582 261.507 46.582 261.589 46.582C261.589 46.582 261.179 46.8293 260.441 47.324C259.539 48.1485 258.801 49.1378 258.227 50.2921C257.407 51.941 256.915 53.7548 256.669 55.5686C256.423 57.7947 256.341 60.1031 256.505 62.3292C256.505 62.9063 256.505 63.5659 256.423 64.143C256.259 64.7201 256.013 65.2972 255.685 65.7919C255.357 66.2866 255.029 66.6988 254.783 67.1935C254.537 67.6882 254.291 68.1004 254.209 68.6775C253.799 70.4913 253.881 72.3051 254.537 74.0365C254.947 75.1908 255.439 76.345 256.013 77.4992C256.341 77.829 256.587 78.2413 256.751 78.7359Z" fill="#263238"/>
<path d="M289.88 83.0231C289.716 82.9407 289.634 82.8582 289.47 82.6933C289.142 82.3636 288.814 82.0338 288.568 81.6215C287.666 80.0551 287.338 78.3237 287.584 76.5099C287.748 74.2838 288.814 71.8105 289.634 69.0898C290.126 67.6882 290.372 66.2041 290.372 64.6377C290.372 63.0712 289.88 61.5047 288.896 60.1856C287.912 58.9489 286.682 57.7946 285.37 56.8877C284.14 55.9808 282.828 55.0739 281.68 54.2495C279.63 52.683 277.662 51.0341 275.858 49.2203C274.3 47.6538 273.07 46.4171 272.25 45.4277C271.84 44.9331 271.512 44.6033 271.348 44.3559C271.184 44.1086 271.02 43.9437 271.02 43.9437C271.02 43.9437 271.184 44.0262 271.348 44.2735L272.332 45.2629C273.152 46.1698 274.382 47.4065 276.022 48.8905C277.908 50.6218 279.876 52.2708 281.844 53.8372C282.992 54.7441 284.222 55.5686 285.534 56.4755C286.928 57.3824 288.076 58.5367 289.142 59.8558C290.126 61.1749 290.7 62.8239 290.7 64.5552C290.7 66.1217 290.454 67.6057 289.962 69.0898C289.06 71.8929 288.076 74.2838 287.83 76.4274C287.584 78.1588 287.912 79.8902 288.732 81.3742C289.06 82.0338 289.47 82.6109 289.88 83.0231Z" fill="#455A64"/>
<path d="M292.586 58.2893C292.258 58.2069 292.012 58.1244 291.684 57.9595C291.11 57.7122 290.372 57.3824 289.388 56.8877C284.386 54.4144 279.876 51.1165 276.022 47.1591C275.284 46.4171 274.71 45.7575 274.382 45.2629C274.136 45.0155 273.972 44.7682 273.808 44.5208C273.89 44.4384 274.71 45.4277 276.268 46.9118C278.236 48.808 280.368 50.6218 282.582 52.1883C284.796 53.8372 287.092 55.2388 289.552 56.558C291.438 57.6298 292.586 58.2069 292.586 58.2893Z" fill="#455A64"/>
<path d="M259.211 56.0633C259.785 55.5686 260.359 55.0739 261.015 54.5792C262.409 53.425 263.803 52.1059 264.951 50.6218C266.099 49.2203 267.165 47.6538 267.985 46.0049C268.642 44.7682 268.97 43.9437 269.052 43.9437C268.888 44.6857 268.642 45.4277 268.232 46.1698C267.411 47.9011 266.427 49.4676 265.279 50.9516C264.049 52.4357 262.737 53.7548 261.179 54.8266C260.605 55.3213 259.949 55.7335 259.211 56.0633Z" fill="#455A64"/>
<path d="M51.4158 56.558C51.7439 57.5473 51.1698 58.5367 50.1858 58.8664C49.7758 59.0313 49.2838 58.9489 48.7917 58.784C47.5617 58.2069 47.3977 56.4755 47.6437 55.1564C47.8897 53.8372 48.2997 52.3532 47.7257 51.1165C47.3157 50.2096 46.3317 49.55 45.5936 48.808C44.2816 47.4889 43.7076 45.6751 43.8716 43.8613C44.1176 42.0475 45.4296 40.481 47.2337 39.9039C49.0378 39.4092 51.1698 39.9039 52.5639 38.5847C53.5479 37.6778 53.5479 36.1113 54.2859 34.9571C55.434 33.2257 57.8941 32.896 59.9441 33.1433C61.9942 33.3906 64.1263 34.0502 66.0944 33.4731C67.8164 33.0608 69.1285 31.8242 70.6865 31.0821C75.1967 28.9385 80.6909 30.9172 82.823 35.4518C84.053 38.0076 83.971 40.9757 82.7409 43.5315C82.0849 44.7682 80.9369 48.2309 77.0827 48.2309" fill="#263238"/>
<path d="M50.5958 42.0475L50.6778 44.8506L51.2518 86.5683C51.3338 91.4326 55.5159 95.2251 60.6821 95.1427C65.8483 95.0602 70.1125 90.9379 70.1125 86.0736C70.1125 80.962 70.1945 75.5205 70.1945 75.5205C70.1945 75.5205 76.7547 74.4487 78.1487 65.7919C78.8048 61.5047 78.6408 54.4144 78.2307 48.7256C77.9027 43.6964 73.6386 39.9039 68.6364 40.2336C68.4724 40.2336 68.3904 40.2336 68.2264 40.2336L50.5958 42.0475Z" fill="#B78876"/>
<path d="M76.5087 53.5899C76.5087 54.167 76.0167 54.6617 75.4427 54.7441C74.8686 54.8266 74.3766 54.3319 74.2946 53.7548C74.2946 53.1777 74.7866 52.683 75.3607 52.6005C75.9347 52.5181 76.4267 52.9303 76.5087 53.5899C76.5087 53.5074 76.5087 53.5074 76.5087 53.5899Z" fill="#263238"/>
<path d="M76.7547 52.3532C76.5907 52.5181 75.7707 51.8585 74.6226 51.8585C73.4746 51.8585 72.5726 52.4357 72.4085 52.3532C72.2445 52.2708 72.4906 52.0234 72.9006 51.7761C73.3926 51.4463 74.0486 51.199 74.6226 51.199C75.2786 51.199 75.8527 51.3639 76.3447 51.7761C76.6727 52.0234 76.8367 52.2708 76.7547 52.3532Z" fill="#263238"/>
<path d="M64.6183 53.5899C64.6183 54.167 64.1262 54.6617 63.5522 54.7441C62.9782 54.8266 62.4862 54.3319 62.4042 53.7548C62.4042 53.1777 62.8962 52.683 63.4702 52.6005C64.1262 52.5181 64.6183 52.9303 64.6183 53.5899C64.6183 53.5074 64.6183 53.5899 64.6183 53.5899Z" fill="#263238"/>
<path d="M65.1103 52.6005C64.9463 52.7654 64.1263 52.1059 62.9782 52.1059C61.8302 52.1059 60.9281 52.683 60.7641 52.6005C60.6001 52.5181 60.8461 52.2708 61.2562 52.0234C61.7482 51.6936 62.4042 51.4463 62.9782 51.4463C63.6342 51.4463 64.2083 51.6112 64.7003 52.0234C65.0283 52.1883 65.1923 52.5181 65.1103 52.6005Z" fill="#263238"/>
<path d="M69.3744 61.3398C70.0304 61.1749 70.6865 61.01 71.3425 61.01C71.6705 61.01 71.9165 60.9276 71.9985 60.6803C71.9985 60.3505 71.9985 60.0207 71.8345 59.7733C71.5065 59.0313 71.2605 58.2893 70.9325 57.4649C69.7024 54.167 68.8004 51.4463 68.9644 51.3639C69.1284 51.2814 70.1944 53.9197 71.4245 57.2175C71.7525 58.042 71.9985 58.784 72.3265 59.526C72.4905 59.8558 72.5725 60.3505 72.4905 60.6803C72.4085 60.9276 72.2445 61.0925 71.9985 61.0925C71.8345 61.1749 71.6705 61.1749 71.5065 61.1749C70.6865 61.4223 70.0304 61.4223 69.3744 61.3398Z" fill="#263238"/>
<path d="M70.1945 75.5205C66.1763 75.603 62.1582 74.5312 58.7141 72.47C58.7141 72.47 61.5022 78.4061 70.1125 77.5817L70.1945 75.5205Z" fill="#A36957"/>
<path d="M65.9303 62.1643C66.0943 62.1643 66.0943 63.4834 67.2424 64.3903C68.3904 65.2972 69.7024 65.1323 69.7024 65.3797C69.7024 65.627 69.3744 65.627 68.8004 65.627C68.0624 65.627 67.3244 65.3797 66.7503 64.885C66.1763 64.3903 65.8483 63.7308 65.7663 63.0712C65.6843 62.4941 65.8483 62.1643 65.9303 62.1643Z" fill="#263238"/>
<path d="M65.4383 47.9011C65.3563 48.2309 64.1263 48.066 62.7322 48.2309C61.3382 48.3958 60.1901 48.808 60.0261 48.4782C59.9441 48.3133 60.1081 48.066 60.6001 47.7362C61.8302 46.9942 63.3062 46.7469 64.7003 47.2416C65.1923 47.4889 65.4383 47.7362 65.4383 47.9011Z" fill="#263238"/>
<path d="M76.3447 48.8905C76.0987 49.1378 75.3606 48.8905 74.3766 48.8905C73.3926 48.8905 72.5725 49.0554 72.4085 48.808C72.3265 48.6431 72.4905 48.3958 72.8185 48.1485C73.8026 47.4889 75.1146 47.5713 76.0987 48.2309C76.2627 48.4782 76.4267 48.7256 76.3447 48.8905Z" fill="#263238"/>
<path d="M78.5588 44.8506C78.5588 44.8506 74.1306 47.1591 68.3084 44.4384C64.4543 42.6246 59.9441 41.8826 59.0421 42.6246C58.14 43.3666 57.976 47.4064 54.2859 48.6431C54.2859 48.6431 54.7779 56.1457 51.8258 55.9808C48.7917 55.8159 49.2017 40.7283 49.2017 40.7283L57.402 40.3161L65.3563 38.5847L72.9006 39.4092L78.7228 40.8108L78.5588 44.8506Z" fill="#263238"/>
<path d="M48.9557 38.5847C48.9557 38.5023 49.6118 38.1725 50.4318 38.5023C51.2518 38.8321 51.6618 39.4092 51.4978 39.4916C51.3338 39.5741 50.9238 39.1618 50.2678 38.9145C49.6118 38.6672 49.0378 38.7496 48.9557 38.5847Z" fill="#263238"/>
<path d="M51.4978 36.0289C51.6618 36.0289 51.5798 36.9358 51.7438 37.9252C51.9078 38.9145 52.3178 39.6565 52.2358 39.739C52.1538 39.8214 51.4978 39.0794 51.3338 38.0076C51.0878 37.348 51.1698 36.6885 51.4978 36.0289Z" fill="#263238"/>
<path d="M52.3178 52.9303C52.1538 52.8479 46.9876 51.1165 46.9056 56.4755C46.8236 61.8345 52.2358 60.8451 52.2358 60.6803C52.2358 60.5154 52.3178 52.9303 52.3178 52.9303Z" fill="#B78876"/>
<path d="M50.6778 58.6191C50.6778 58.6191 50.5958 58.7016 50.4318 58.784C50.1858 58.8664 49.9398 58.8664 49.6938 58.784C48.9557 58.2893 48.6277 57.5473 48.6277 56.6404C48.6277 56.1457 48.7097 55.7335 48.8737 55.3213C48.9557 54.9915 49.2838 54.7441 49.6118 54.5792C49.8578 54.4968 50.1038 54.6617 50.1858 54.8266C50.2678 54.9915 50.1858 55.0739 50.2678 55.0739C50.3498 55.0739 50.4318 54.9915 50.3498 54.7441C50.3498 54.5792 50.2678 54.4968 50.1038 54.4144C49.9398 54.3319 49.7758 54.2495 49.6118 54.2495C49.2018 54.3319 48.7917 54.6617 48.6277 55.0739C48.3817 55.5686 48.2997 56.0633 48.2997 56.558C48.2177 57.5473 48.7917 58.4542 49.6118 58.9489C49.8578 59.0313 50.1858 58.9489 50.4318 58.784C50.5958 58.784 50.6778 58.6191 50.6778 58.6191Z" fill="#A36957"/>
<path d="M75.5246 35.9465C75.6886 35.864 75.8526 35.7816 76.0987 35.6991C76.6727 35.5342 77.2467 35.6167 77.8207 35.864C78.2307 36.0289 78.5587 36.3587 78.8048 36.6885C79.0508 37.1007 79.1328 37.6778 79.0508 38.1725C78.9688 38.7496 78.6407 39.3267 78.2307 39.739C77.7387 40.1512 77.1647 40.481 76.5087 40.6459C75.0326 40.8932 73.4746 40.5634 72.3265 39.5741C71.6705 39.0794 71.0965 38.4198 70.7685 37.6778C70.2765 36.8534 70.1944 35.9465 70.4405 35.0395C70.7685 34.1326 71.4245 33.3906 72.3265 33.0608C73.2286 32.6486 74.2126 32.4837 75.1146 32.5662C77.1647 32.7311 79.0508 33.8029 80.1988 35.4518C80.7728 36.2762 81.1828 37.2656 81.1828 38.3374C81.2648 39.3267 81.0188 40.3161 80.5268 41.223C80.1168 42.0475 79.4608 42.8719 78.7227 43.449C77.9847 44.0262 77.1647 44.4384 76.2627 44.6033C74.6226 45.0155 72.9005 45.098 71.2605 44.6857C69.7844 44.1911 68.4724 43.5315 67.2423 43.1193C66.1763 42.707 65.0283 42.3772 63.8802 42.2123C62.9782 42.1299 62.0762 42.0475 61.2561 42.1299C59.7801 42.2948 59.0421 42.6246 59.0421 42.5421C59.2061 42.4597 59.3701 42.3772 59.6161 42.2948C60.1901 42.1299 60.6821 41.965 61.2561 41.8826C62.1582 41.8001 63.0602 41.8001 63.9622 41.8826C65.1103 42.0475 66.3403 42.2948 67.4063 42.707C68.6364 43.1193 69.9484 43.7788 71.4245 44.2735C72.9825 44.6033 74.6226 44.6033 76.1807 44.1086C77.9027 43.6964 79.3788 42.5421 80.1988 40.8932C81.1008 39.1618 80.9368 37.1007 79.7888 35.5342C78.6407 33.9677 76.9187 32.9784 75.0326 32.8135C74.1306 32.7311 73.2286 32.896 72.4085 33.2257C71.5885 33.5555 71.0145 34.2151 70.6865 34.9571C70.5225 35.7816 70.6045 36.606 71.0145 37.2656C71.3425 37.9252 71.9165 38.5847 72.4905 38.997C73.5566 39.9039 74.9506 40.3161 76.3447 40.0688C76.9187 39.9863 77.4927 39.6565 77.9027 39.3267C78.3127 38.997 78.5587 38.5023 78.6407 37.9252C78.7228 37.4305 78.6407 37.0183 78.4767 36.606C78.3127 36.2762 77.9847 36.0289 77.6567 35.864C77.1647 35.6167 76.5907 35.5342 76.0987 35.6167C75.9347 35.7816 75.6886 35.864 75.5246 35.9465Z" fill="#455A64"/>
<path d="M99.7155 261.436L93.1553 173.219L38.9514 171.57V261.106L68.3084 261.271L69.2924 194.408L73.0646 261.271L99.7155 261.436Z" fill="#263238"/>
<path d="M71.5885 173.219C71.7525 174.291 71.8345 175.363 71.8345 176.434C71.9165 178.413 71.9985 181.134 71.9985 184.184C71.9985 185.668 71.9985 187.152 72.0805 188.472C72.1625 189.708 71.9165 190.862 71.5065 191.934C71.1785 192.676 70.6045 193.336 69.9484 193.748C69.7024 193.913 69.4564 193.995 69.1284 193.995C69.1284 193.913 69.4564 193.913 69.8664 193.583C70.4405 193.089 70.9325 192.511 71.1785 191.769C71.5065 190.698 71.6705 189.543 71.5885 188.389C71.5885 187.07 71.5065 185.586 71.5065 184.102C71.5065 181.051 71.4245 178.331 71.5065 176.352C71.5065 175.363 71.5065 174.291 71.5885 173.219Z" fill="#455A64"/>
<path d="M67.3244 175.363C67.4064 175.445 66.9963 175.692 66.9143 176.352C66.9143 176.682 67.0783 177.012 67.3244 177.259C67.6524 177.506 68.1444 177.424 68.4724 177.176C68.8824 176.929 69.0464 176.434 68.8004 176.022C68.7184 175.94 68.6364 175.775 68.5544 175.775C68.2264 175.363 67.8164 175.28 67.3244 175.363L67.4064 175.198C67.6524 175.28 67.7344 175.363 67.7344 175.445C67.7344 175.528 67.5704 175.445 67.3244 175.445L67.0784 175.363L67.2424 175.198C67.7344 174.95 68.3084 174.95 68.7184 175.28C69.0464 175.528 69.2104 175.857 69.2924 176.27C69.2924 176.764 69.0464 177.176 68.7184 177.424C68.2264 177.836 67.4884 177.836 66.9963 177.424C66.5863 177.094 66.4223 176.599 66.5043 176.105C66.5043 175.775 66.6683 175.528 66.9143 175.28C67.2424 175.28 67.3244 175.28 67.3244 175.363Z" fill="#455A64"/>
<path d="M143.751 159.038C147.769 159.286 151.787 159.533 154.247 159.698C158.266 159.945 159.496 159.533 159.496 158.956C159.578 157.637 150.885 157.802 151.623 156.812C151.623 156.812 159.332 158.544 159.578 157.554C160.07 155.493 151.459 154.669 151.459 154.669C156.79 156.647 159.906 156.565 159.742 155.163C159.66 154.256 151.459 152.36 151.459 152.36C151.459 152.36 157.774 154.174 158.922 154.092C160.07 154.009 160.316 153.02 159.578 152.03C158.84 151.041 148.999 147.496 147.441 146.919C145.883 146.342 146.785 144.61 146.785 144.61C148.343 141.312 149.163 138.922 148.753 138.015C148.507 137.52 147.851 137.273 147.359 137.52C147.031 137.685 146.867 137.932 146.785 138.262C146.375 139.334 145.801 140.406 145.145 141.395C144.653 142.219 143.997 142.879 143.259 143.456C142.357 144.116 141.619 144.61 140.963 145.105L134.977 146.177L136.371 157.142L143.751 159.038Z" fill="#B78876"/>
<path d="M147.031 155.328C146.949 155.328 146.703 154.998 146.129 154.421C145.391 153.762 144.489 153.267 143.505 152.937L142.931 152.772L143.423 152.443L143.751 152.195C144.653 151.536 145.391 150.711 145.965 149.722C146.375 148.98 146.539 148.403 146.621 148.485C146.703 148.568 146.621 149.062 146.293 149.969C145.801 151.041 144.981 152.03 143.997 152.772C143.833 152.855 143.751 152.937 143.587 153.02L143.505 152.525C144.571 152.855 145.555 153.432 146.293 154.256C146.949 154.834 147.113 155.328 147.031 155.328Z" fill="#A36957"/>
<path d="M158.43 154.256C158.348 154.421 156.708 153.762 154.575 153.102C152.443 152.443 150.721 151.948 150.721 151.866C150.721 151.783 152.525 151.948 154.739 152.608C156.954 153.267 158.43 154.174 158.43 154.256Z" fill="#A36957"/>
<path d="M158.348 156.153C158.266 156.318 156.79 155.905 154.821 155.411C152.853 154.916 151.377 154.586 151.377 154.504C151.377 154.421 153.017 154.421 154.985 154.916C156.954 155.411 158.348 156.07 158.348 156.153Z" fill="#A36957"/>
<path d="M59.1241 84.5896C58.468 84.4247 57.894 84.5071 57.32 84.8369C56.746 85.1667 56.254 85.7438 56.008 86.321C55.8439 86.7332 55.6799 87.063 55.5979 87.4752L55.4339 88.1348C55.3519 88.3821 55.2699 88.7119 55.1059 88.8768C54.9419 89.0417 54.7779 89.1241 54.6139 89.1241C54.4499 89.1241 54.2859 89.1241 54.1219 89.0417C53.8759 88.9592 53.7119 88.8768 53.4659 88.7119L52.3178 88.1348L50.3497 87.1454C49.6937 86.8981 49.1197 86.5683 48.6277 86.0736C49.2837 86.2385 49.9397 86.4858 50.5138 86.7332L52.4818 87.6401L53.6299 88.2172L54.2039 88.4646C54.3679 88.547 54.4499 88.547 54.5319 88.4646C54.6959 88.0523 54.8599 87.7225 54.9419 87.3103C55.0239 86.8981 55.1879 86.4859 55.4339 86.0736C55.7619 85.3316 56.336 84.7545 56.992 84.4247C57.484 84.1774 57.976 84.0949 58.468 84.2598C58.9601 84.4247 59.1241 84.5896 59.1241 84.5896Z" fill="#263238"/>
<path d="M70.6045 85.6614C70.6865 85.7438 68.8004 87.3103 66.3403 89.2066L66.0123 89.4539L65.9303 89.0417C65.9303 88.8768 65.8483 88.7119 65.8483 88.4646C65.7663 87.063 65.1923 85.7438 64.2903 84.672C63.8802 84.2598 63.3882 84.0125 62.8142 83.7651C62.8142 83.6827 63.6342 83.6827 64.5363 84.4247C65.0283 84.8369 65.4383 85.4141 65.7663 86.0736C66.0943 86.8156 66.3403 87.6401 66.4223 88.3821L66.5043 88.9592L66.0943 88.7943C68.4724 86.8981 70.5225 85.5789 70.6045 85.6614Z" fill="#263238"/>
<path d="M137.027 144.445L134.813 144.363C131.615 144.775 122.512 143.786 115.296 142.137C108.08 140.488 108.408 139.416 107.424 138.097C106.44 136.778 104.882 129.605 104.882 129.605C103.488 121.525 101.52 113.611 99.0595 105.778C95.1234 93.5762 86.185 90.5257 86.185 90.5257C85.775 90.2784 85.365 90.1135 84.955 90.031C84.217 89.6188 74.1306 86.4034 70.4405 86.1561V79.0657C64.1263 79.7253 60.9281 87.1454 60.9281 87.1454C58.3041 80.7971 48.5457 79.8902 48.5457 79.8902L48.7097 86.4034C45.2656 86.6507 41.8215 87.2279 38.4593 88.2997C33.0472 90.2784 30.4231 92.1746 25.9129 95.8022C21.4027 99.4299 20.0907 107.097 20.0907 113.611L40.0174 121.443V121.938L39.7714 145.105L38.8694 171.57L93.2373 173.219L90.4492 150.711C92.0072 153.432 97.3374 157.06 108.162 159.78C120.298 162.913 138.421 160.275 138.421 160.275L137.027 144.445Z" fill="#8816AD"/>
<path d="M65.6023 100.419C65.6023 100.337 66.0123 100.172 66.5044 100.584C66.8324 100.831 66.9144 101.244 66.9144 101.573C66.7504 102.233 66.0944 102.728 65.4383 102.563C65.1103 102.48 64.8643 102.315 64.6183 102.068C64.4543 101.738 64.3723 101.326 64.5363 100.996C64.7823 100.419 65.2743 100.337 65.2743 100.419C65.2743 100.502 65.0283 100.667 64.8643 101.079C64.7823 101.326 64.8643 101.573 65.0283 101.821C65.3563 102.151 65.8483 102.151 66.1764 101.821C66.2584 101.738 66.3404 101.656 66.3404 101.573C66.3404 101.326 66.3404 101.079 66.1764 100.914C66.0123 100.502 65.6023 100.502 65.6023 100.419Z" fill="#263238"/>
<path d="M67.6524 119.876C67.6524 119.794 68.0624 119.629 68.5544 120.041C68.8824 120.289 68.9644 120.701 68.9644 121.031C68.8004 121.69 68.2264 122.185 67.4884 122.02C67.1604 121.938 66.9144 121.773 66.6684 121.525C66.5043 121.196 66.4223 120.783 66.5863 120.371C66.8324 119.794 67.3244 119.712 67.3244 119.794C67.3244 119.876 67.0784 120.041 66.9144 120.454C66.8324 120.701 66.9144 120.948 67.0784 121.196C67.4064 121.525 67.8984 121.525 68.2264 121.196C68.3084 121.113 68.3904 121.031 68.4724 120.866C68.4724 120.619 68.3904 120.371 68.3084 120.206C67.9804 119.959 67.6524 119.959 67.6524 119.876Z" fill="#263238"/>
<path d="M68.8824 138.839C68.8004 138.757 69.2924 138.592 69.7845 139.004C70.1125 139.251 70.1945 139.664 70.1945 139.993C70.0305 140.653 69.3744 141.148 68.7184 140.983C68.3904 140.9 68.1444 140.735 67.8984 140.488C67.7344 140.158 67.6524 139.746 67.8164 139.416C68.0624 138.839 68.5544 138.757 68.5544 138.839C68.5544 138.921 68.3084 139.086 68.1444 139.499C68.0624 139.746 68.1444 139.993 68.3084 140.241C68.4724 140.488 68.8004 140.57 69.0464 140.488C69.2924 140.406 69.5385 140.241 69.6205 139.993C69.6205 139.746 69.6204 139.499 69.4564 139.334C69.2104 138.921 68.8824 138.921 68.8824 138.839Z" fill="#263238"/>
<path d="M70.1125 159.533C70.1125 159.451 70.5225 159.286 71.0145 159.698C71.3425 159.945 71.4245 160.357 71.4245 160.687C71.3425 161.182 70.9325 161.594 70.4405 161.677C69.9485 161.841 69.4564 161.594 69.1284 161.182C68.9644 160.852 68.8824 160.44 69.0464 160.11C69.2924 159.533 69.7845 159.451 69.7845 159.533C69.7845 159.615 69.4564 159.78 69.3744 160.193C69.2924 160.44 69.3744 160.687 69.4564 160.935C69.6204 161.182 69.9485 161.264 70.1945 161.182C70.4405 161.099 70.6865 160.935 70.7685 160.605C70.7685 160.357 70.7685 160.11 70.6045 159.945C70.4405 159.615 70.1125 159.615 70.1125 159.533Z" fill="#263238"/>
<g opacity="0.3">
<path d="M41.1654 112.869L46.0036 171.817H38.9514L39.6894 147.496L40.0174 121.361L41.1654 112.869Z" fill="black"/>
</g>
<path d="M92.5813 165.552C92.4992 165.387 92.4992 165.222 92.4172 165.057C92.3352 164.645 92.2532 164.15 92.1712 163.49C91.9252 162.171 91.5972 160.193 91.2692 157.802C90.5312 153.02 89.7111 146.342 88.8091 138.922C87.9071 131.501 87.0871 124.906 86.349 120.041C86.021 117.733 85.693 115.754 85.529 114.353C85.447 113.693 85.365 113.198 85.283 112.786C85.283 112.621 85.201 112.456 85.201 112.209C85.283 112.374 85.365 112.539 85.365 112.704C85.447 113.116 85.529 113.611 85.693 114.27C85.939 115.589 86.349 117.568 86.677 119.959C87.4971 124.741 88.3991 131.419 89.3011 138.839C90.2032 146.259 91.0232 152.855 91.5972 157.719C91.9252 160.11 92.1712 162.006 92.3352 163.408C92.4172 164.068 92.4992 164.562 92.4992 164.974C92.6633 165.222 92.6633 165.387 92.5813 165.552Z" fill="#263238"/>
<g opacity="0.3">
<path d="M86.431 117.65C89.5471 128.451 90.6132 138.015 96.4354 146.919C98.5675 150.134 101.356 152.855 104.554 154.998C110.868 159.038 118.494 160.357 125.956 161.099H131.041C131.041 161.099 119.642 162.089 110.458 160.357C110.458 160.357 96.3534 157.802 90.7772 151.288L86.431 117.65Z" fill="black"/>
</g>
<path d="M66.9143 169.839C66.8323 169.591 66.8323 169.262 66.8323 169.014C66.8323 168.437 66.7503 167.613 66.6683 166.623C66.5863 164.48 66.4223 161.429 66.2583 157.719C65.8483 150.217 65.2743 139.911 64.3722 128.451C63.4702 116.991 62.5682 106.685 61.9122 99.1825C61.5842 95.4725 61.3381 92.5044 61.1741 90.2784C61.0921 89.289 61.0101 88.4646 61.0101 87.8874C61.0101 87.6401 61.0101 87.3103 61.0101 87.063C61.0921 87.3103 61.0921 87.6401 61.1741 87.8874C61.2561 88.4646 61.3381 89.289 61.4201 90.2784C61.6662 92.422 61.9942 95.39 62.3222 99.1001C63.0602 106.603 64.0442 116.908 64.9463 128.368C65.8483 139.828 66.4223 150.134 66.6683 157.637C66.8323 161.347 66.9143 164.397 66.9143 166.541C66.9143 167.53 66.9143 168.355 66.9143 168.932C66.9143 169.262 66.9143 169.509 66.9143 169.839Z" fill="#263238"/>
<path d="M119.97 188.719C138.946 188.719 154.329 173.585 154.329 154.916C154.329 136.247 138.946 121.113 119.97 121.113C100.994 121.113 85.611 136.247 85.611 154.916C85.611 173.585 100.994 188.719 119.97 188.719Z" fill="#8816AD"/>
<path opacity="0.4" d="M119.97 188.719C138.946 188.719 154.329 173.585 154.329 154.916C154.329 136.247 138.946 121.113 119.97 121.113C100.994 121.113 85.611 136.247 85.611 154.916C85.611 173.585 100.994 188.719 119.97 188.719Z" fill="black"/>
<path d="M117.92 185.174C136.896 185.174 152.279 170.04 152.279 151.371C152.279 132.702 136.896 117.568 117.92 117.568C98.9441 117.568 83.561 132.702 83.561 151.371C83.561 170.04 98.9441 185.174 117.92 185.174Z" fill="#8816AD"/>
<path opacity="0.2" d="M118.963 176.16C133.391 175.413 144.512 163.563 143.801 149.693C143.09 135.824 130.817 125.186 116.389 125.934C101.96 126.681 90.84 138.531 91.5508 152.4C92.2617 166.27 104.535 176.908 118.963 176.16Z" fill="white"/>
<path d="M120.134 175.94C106.03 177.259 93.4013 167.283 91.6793 153.514C91.6793 153.762 91.6793 154.009 91.7613 154.256C93.1553 168.355 105.948 178.743 120.298 177.341C134.649 175.94 145.227 163.408 143.833 149.227C143.833 148.98 143.751 148.733 143.751 148.485C144.735 162.419 134.321 174.621 120.134 175.94Z" fill="#FAFAFA"/>
<path opacity="0.3" d="M115.214 126.225C129.319 124.906 141.947 134.882 143.669 148.65C143.669 148.403 143.669 148.155 143.587 147.908C142.193 133.81 129.401 123.422 115.05 124.823C100.7 126.225 90.1212 138.757 91.5153 152.937C91.5153 153.185 91.5973 153.432 91.5973 153.679C90.6952 139.746 101.11 127.544 115.214 126.225Z" fill="black"/>
<path d="M148.917 136.86C148.917 136.86 148.835 136.778 148.753 136.613C148.671 136.448 148.507 136.201 148.343 135.871L147.687 134.717C147.441 134.222 147.113 133.645 146.703 133.15L145.391 131.336C144.899 130.677 144.325 130.017 143.669 129.275C143.013 128.533 142.275 127.791 141.537 127.132C141.127 126.719 140.799 126.307 140.307 125.977L138.913 124.906C136.863 123.339 134.567 121.938 132.189 120.866L130.221 120.041C129.893 119.876 129.565 119.794 129.237 119.629L128.171 119.299C127.432 119.134 126.694 118.887 125.956 118.64L123.66 118.228C122.84 118.063 122.102 117.98 121.282 117.898C120.462 117.815 119.642 117.733 118.822 117.733H116.28L113.738 117.98C110.212 118.475 106.768 119.464 103.488 120.948C100.29 122.432 97.2554 124.493 94.6313 126.802C92.1712 129.11 90.1212 131.666 88.3991 134.552L87.2511 136.613L87.0051 137.108L86.7591 137.602L86.349 138.674C85.775 139.993 85.283 141.395 84.873 142.796C84.709 143.456 84.545 144.198 84.381 144.858C84.217 145.517 84.135 146.177 84.053 146.836C83.889 148.073 83.8069 149.31 83.7249 150.629C83.6429 151.783 83.7249 152.937 83.8069 154.092C83.889 155.081 83.971 156.153 84.217 157.142C84.381 158.049 84.545 158.956 84.791 159.78C85.037 160.605 85.283 161.264 85.447 161.924C85.611 162.501 85.857 163.078 86.103 163.573C86.267 164.068 86.431 164.48 86.595 164.81C86.7591 165.139 86.8411 165.387 86.9231 165.552C86.9231 165.634 87.0051 165.716 87.0051 165.799C86.9231 165.716 86.9231 165.634 86.9231 165.552C86.8411 165.387 86.7591 165.139 86.595 164.81L86.103 163.573C85.857 163.078 85.611 162.501 85.447 161.924L84.791 159.78C84.545 158.956 84.463 158.131 84.217 157.142C83.971 156.153 83.889 155.081 83.8069 154.092C83.6429 152.937 83.6429 151.783 83.6429 150.629C83.6429 149.392 83.7249 148.073 83.889 146.836C83.971 146.177 84.053 145.517 84.217 144.858C84.381 144.198 84.463 143.456 84.627 142.796C85.037 141.395 85.529 139.993 86.103 138.592C86.267 138.262 86.431 137.85 86.513 137.52L86.7591 137.025L87.0051 136.531C87.3331 135.871 87.7431 135.129 88.1531 134.387C89.8752 131.501 92.0072 128.863 94.4673 126.555C97.1734 124.164 100.208 122.103 103.488 120.618C106.768 119.134 110.294 118.145 113.902 117.733L116.444 117.486H118.986C119.806 117.486 120.626 117.568 121.446 117.65C122.266 117.733 123.086 117.815 123.824 117.98L126.12 118.475C126.858 118.64 127.596 118.887 128.335 119.134L129.401 119.464C129.729 119.629 130.057 119.712 130.467 119.876L132.517 120.701C134.895 121.855 137.191 123.174 139.241 124.823L140.635 125.977C141.127 126.307 141.455 126.802 141.865 127.132C142.603 127.791 143.341 128.533 143.997 129.358C144.571 130.1 145.227 130.759 145.719 131.419L147.031 133.315C147.359 133.81 147.687 134.305 147.933 134.882C148.179 135.376 148.425 135.706 148.589 136.036L148.999 136.778C148.835 136.695 148.917 136.778 148.917 136.86Z" fill="#FAFAFA"/>
<path d="M113 188.059C112.918 188.142 112.344 187.4 111.77 186.41C111.36 185.833 111.114 185.174 110.95 184.514C111.032 184.432 111.606 185.174 112.18 186.163C112.59 186.74 112.836 187.317 113 188.059Z" fill="#263238"/>
<path d="M107.342 186.246C107.26 186.328 106.686 185.586 106.194 184.679C105.784 184.102 105.538 183.525 105.374 182.865C105.456 182.783 106.03 183.525 106.522 184.432C106.932 185.009 107.178 185.586 107.342 186.246Z" fill="#263238"/>
<path d="M102.094 183.855C102.012 183.937 101.438 183.195 100.946 182.288C100.536 181.793 100.29 181.134 100.126 180.474C100.208 180.392 100.782 181.134 101.274 182.041C101.684 182.535 102.012 183.195 102.094 183.855Z" fill="#263238"/>
<path d="M118.986 188.719C118.904 188.801 118.33 188.059 117.756 187.07C117.346 186.493 117.1 185.833 116.936 185.174C117.018 185.091 117.592 185.833 118.166 186.823C118.494 187.4 118.822 188.059 118.986 188.719Z" fill="#263238"/>
<path d="M124.48 188.472C124.398 188.554 123.824 187.812 123.25 186.823C122.84 186.246 122.594 185.586 122.43 184.926C122.512 184.844 123.086 185.586 123.66 186.575C124.07 187.152 124.398 187.73 124.48 188.472Z" fill="#263238"/>
<path d="M129.975 187.317C129.893 187.4 129.319 186.658 128.745 185.668C128.335 185.091 128.089 184.432 127.924 183.772C128.007 183.69 128.581 184.432 129.155 185.421C129.565 185.998 129.811 186.575 129.975 187.317Z" fill="#263238"/>
<path d="M134.895 185.503C134.813 185.586 134.239 184.844 133.665 183.855C133.255 183.277 133.009 182.618 132.845 181.958C132.927 181.876 133.501 182.618 134.075 183.607C134.485 184.184 134.731 184.844 134.895 185.503Z" fill="#263238"/>
<path d="M139.651 182.7C139.569 182.783 138.995 182.041 138.421 181.051C138.011 180.474 137.765 179.815 137.601 179.155C137.683 179.073 138.257 179.815 138.831 180.804C139.241 181.381 139.569 182.041 139.651 182.7Z" fill="#263238"/>
<path d="M143.833 179.402C143.751 179.485 143.177 178.743 142.603 177.754C142.193 177.176 141.947 176.517 141.783 175.857C141.865 175.775 142.439 176.517 143.013 177.506C143.423 178.083 143.669 178.66 143.833 179.402Z" fill="#263238"/>
<path d="M146.949 175.61C146.867 175.692 146.293 174.95 145.801 174.044C145.309 173.137 144.899 172.395 145.063 172.312C145.227 172.23 145.637 172.972 146.211 173.879C146.539 174.373 146.785 174.95 146.949 175.61Z" fill="#263238"/>
<path d="M149.901 171.57C149.819 171.653 149.245 170.911 148.753 170.004C148.343 169.509 148.097 168.849 148.015 168.272C148.097 168.19 148.671 168.932 149.163 169.839C149.573 170.251 149.819 170.911 149.901 171.57Z" fill="#263238"/>
<path d="M152.197 166.706C152.115 166.788 151.623 166.129 151.131 165.304C150.639 164.48 150.311 163.738 150.393 163.655C150.475 163.573 150.967 164.232 151.459 165.057C151.869 165.469 152.115 166.046 152.197 166.706Z" fill="#263238"/>
<path d="M153.755 161.429C153.673 161.512 153.181 160.852 152.689 160.028C152.197 159.203 151.869 158.461 152.033 158.379C152.197 158.296 152.607 158.956 153.099 159.78C153.591 160.605 153.837 161.347 153.755 161.429Z" fill="#263238"/>
<path d="M154.329 155.74C154.247 155.823 153.673 154.998 153.099 154.009C152.689 153.432 152.361 152.772 152.197 152.113C152.689 152.608 153.099 153.185 153.427 153.844C153.919 154.421 154.165 154.998 154.329 155.74Z" fill="#263238"/>
<path d="M153.755 148.238C153.181 147.743 152.771 147.084 152.443 146.424C152.033 145.847 151.705 145.105 151.541 144.363C152.115 144.858 152.525 145.517 152.853 146.177C153.181 146.836 153.509 147.496 153.755 148.238Z" fill="#263238"/>
<path d="M76.3447 169.839C80.1168 170.746 94.3033 172.147 96.6814 172.395C101.52 172.889 101.52 172.477 101.52 171.9C101.438 170.333 93.0733 170.746 94.7953 169.591C96.5174 168.437 105.046 170.333 104.882 168.685C104.636 166.623 95.9434 167.118 95.2053 167.118C94.4673 167.118 94.4673 166.046 95.1233 166.046C96.1074 166.129 106.194 166.541 106.03 164.48C105.948 163.326 103.898 163.738 103.898 163.738C103.898 163.738 94.3853 164.068 94.3033 163.078C94.2213 162.089 99.7975 161.677 101.684 161.759C103.57 161.841 104.308 160.852 103.652 160.028C103.16 159.451 97.4194 159.286 95.5333 159.368C93.6473 159.451 88.5631 159.615 90.9412 157.389C93.3193 155.163 94.4673 152.608 94.3033 151.701C94.1393 151.206 93.5653 150.876 92.9913 151.041C92.6632 151.124 92.4172 151.371 92.3352 151.701C91.7612 152.69 91.1052 153.514 90.2852 154.339C89.7111 154.998 88.9731 155.493 88.1531 155.905L87.087 156.4C85.529 157.142 79.1328 157.884 77.4107 157.719L76.3447 169.839Z" fill="#B78876"/>
<path d="M20.0907 113.611V147.496C20.0907 157.307 39.4434 165.799 50.2678 167.695L79.5428 171.405L80.5268 154.256C80.5268 154.256 44.2816 144.693 42.3135 142.302C40.3454 139.911 41.2474 108.581 41.2474 108.581L20.0907 113.611Z" fill="#8816AD"/>
<path d="M38.6234 141.065C38.7874 141.065 38.9514 141.148 39.1154 141.23L40.4274 141.725L45.3476 143.703C47.1517 144.445 49.2837 145.105 51.7438 145.847L60.0261 148.238C66.0123 149.969 73.0646 151.948 80.6088 154.009L80.7728 154.092V154.256C80.6908 156.565 80.5268 159.038 80.3628 161.512C80.1988 164.892 79.9528 168.19 79.7888 171.405V171.57H79.5428C69.7025 171.323 59.8621 170.004 50.2678 167.695C46.6596 166.788 43.8715 165.964 41.9035 165.387C40.9194 165.057 40.1814 164.81 39.6894 164.645L39.1154 164.48L38.9514 164.397H39.1154L39.6894 164.562L41.9035 165.222C43.8715 165.799 46.7416 166.541 50.2678 167.448C59.8621 169.674 69.6205 170.911 79.4608 171.158L79.2148 171.323C79.3788 168.107 79.5428 164.81 79.7888 161.429C79.9528 158.956 80.0348 156.483 80.1988 154.174L80.3628 154.421C72.8186 152.278 65.8483 150.299 59.7801 148.568C56.746 147.661 54.0399 146.836 51.4978 146.094C48.9557 145.352 46.8236 144.61 45.0196 143.868L40.0994 141.807L38.7874 141.23C38.8694 141.23 38.7054 141.148 38.6234 141.065Z" fill="#263238"/>
<path d="M43.0515 143.209C42.2315 142.384 41.5754 141.56 41.0014 140.57C40.3454 139.664 39.6894 138.757 39.2794 137.685C40.0994 138.509 40.7554 139.334 41.3294 140.323C42.0675 141.23 42.6415 142.137 43.0515 143.209Z" fill="#263238"/>
<g opacity="0.3">
<path d="M48.7097 86.1561C48.7097 86.1561 55.3519 92.9991 56.254 92.0097C57.156 91.0204 57.566 84.4247 60.2721 85.7438C59.9441 85.1667 59.2881 84.672 58.6321 84.5896C57.648 84.5071 55.926 84.3423 55.1059 88.0523C55.1059 88.0523 55.1059 89.2066 54.2039 88.8768C53.3019 88.547 48.7097 86.1561 48.7097 86.1561Z" fill="black"/>
</g>
<g opacity="0.3">
<path d="M61.9122 85.2492C62.7322 85.2492 63.4702 85.9087 63.6342 86.7332C63.8802 88.547 64.0442 90.3608 64.0442 92.1746L69.9485 86.321L66.0943 89.0417C66.0943 89.0417 65.6023 84.4247 62.7322 83.8476L61.9122 85.2492Z" fill="black"/>
</g>
<path d="M79.8708 165.387H79.5428L78.7228 165.222L75.6066 164.645L64.1262 162.501C59.2881 161.594 53.4659 160.522 47.0696 159.286L42.1495 158.296L39.6074 157.802C39.1974 157.719 38.7873 157.637 38.2953 157.472C37.8033 157.307 37.4753 157.225 36.9833 157.06C35.2612 156.4 33.7032 155.328 32.3911 154.009C31.0791 152.69 30.013 151.041 29.275 149.31C28.619 147.578 28.209 145.682 28.291 143.703C28.291 141.89 28.291 140.076 28.291 138.262C28.291 134.717 28.291 131.254 28.291 127.956C28.291 121.361 28.291 115.507 28.373 110.56C28.455 105.613 28.455 101.573 28.455 98.7703C28.455 97.3687 28.455 96.2969 28.455 95.5549C28.455 95.2251 28.455 94.8953 28.455 94.7305C28.455 94.648 28.455 94.5656 28.455 94.4007C28.455 94.4831 28.455 94.5656 28.455 94.7305C28.455 94.8953 28.455 95.2251 28.455 95.5549C28.455 96.2969 28.455 97.3687 28.455 98.7703C28.455 101.573 28.455 105.613 28.537 110.56C28.619 115.507 28.537 121.443 28.619 127.956C28.619 131.254 28.619 134.717 28.619 138.262V143.703C28.619 145.517 28.947 147.413 29.603 149.062C30.259 150.794 31.3251 152.36 32.5551 153.679C33.7852 154.916 35.3432 155.905 36.9833 156.565C37.3933 156.73 37.8033 156.895 38.2133 156.977C38.6233 157.06 39.0334 157.225 39.5254 157.307L42.0675 157.802L46.9876 158.791L64.2083 162.171L75.6887 164.397L78.8048 165.057L79.6248 165.222C79.7068 165.304 79.7888 165.304 79.8708 165.387Z" fill="#FAFAFA"/>
<path d="M55.024 146.424C54.9419 146.177 54.9419 146.012 54.9419 145.765C54.8599 145.27 54.86 144.693 54.7779 143.951C54.6139 142.302 54.3679 139.993 54.1219 137.19C53.5479 131.419 52.8099 123.504 52.0718 114.847C51.6618 110.478 51.3338 106.273 50.9238 102.563C50.5138 98.7703 49.5298 95.4725 47.8077 93.164C46.4957 91.2677 44.6916 89.8661 42.5595 89.1241C41.7395 88.8768 40.9195 88.7119 40.0994 88.7119C40.3454 88.7119 40.5094 88.7119 40.7554 88.7119C41.4115 88.7119 41.9855 88.8768 42.5595 89.0417C44.7736 89.7837 46.6597 91.1853 47.9717 93.0815C49.7758 95.39 50.7598 98.8527 51.2518 102.645C51.7438 106.438 51.9898 110.56 52.3999 114.93C53.1379 123.669 53.8759 131.501 54.3679 137.273C54.6139 140.076 54.7779 142.384 54.9419 144.033C55.024 144.775 55.024 145.435 55.106 145.847C55.024 146.012 55.024 146.259 55.024 146.424Z" fill="#FAFAFA"/>
<path d="M81.7569 157.967C81.6749 157.719 81.6749 157.472 81.6749 157.225C81.6749 156.73 81.5929 156.07 81.5109 155.163C81.4289 153.35 81.2649 150.794 81.0188 147.661C80.6088 141.312 79.9528 132.573 78.9688 122.927C77.9847 113.281 76.9187 104.542 76.0987 98.2756L75.1146 90.8555C75.0326 90.031 74.8686 89.3715 74.8686 88.7943C74.8686 88.547 74.7866 88.2997 74.7866 88.0523C74.8686 88.2997 74.9506 88.547 74.9506 88.7119C75.0326 89.2066 75.1146 89.8661 75.2786 90.6906C75.6067 92.422 76.0167 94.9778 76.4267 98.1107C77.3287 104.377 78.4768 113.116 79.4608 122.762C80.4448 132.408 81.0188 141.148 81.3469 147.496C81.5109 150.711 81.5929 153.267 81.6749 154.998C81.6749 155.823 81.6749 156.565 81.7569 157.06C81.7569 157.472 81.7569 157.719 81.7569 157.967Z" fill="#FAFAFA"/>
<path d="M94.4673 125.895C94.3853 125.483 94.3033 124.988 94.2213 124.576C94.0573 123.669 93.8933 122.432 93.6473 120.948C93.1553 117.898 92.4993 113.693 91.6792 109.076C90.8592 104.459 90.0392 100.337 89.3831 97.2863C89.0551 95.8022 88.8091 94.648 88.6451 93.7411C88.5631 93.3289 88.4811 92.8342 88.3991 92.422C88.5631 92.8342 88.6451 93.2464 88.8091 93.7411C89.0551 94.5656 89.3011 95.8022 89.7112 97.2863C90.3672 100.254 91.2692 104.459 92.0892 109.076C92.9093 113.693 93.4833 117.898 93.8933 120.948C94.0573 122.515 94.2213 123.751 94.3033 124.576C94.4673 124.988 94.4673 125.483 94.4673 125.895Z" fill="#FAFAFA"/>
<path d="M98.3214 105.778H98.1574H97.5834L95.2873 105.696L87.005 105.531C79.9528 105.366 70.2764 105.284 59.6161 105.366C48.9557 105.448 39.2794 105.696 32.2271 105.943L23.9448 106.273L21.6487 106.355H21.0747C20.9927 106.355 20.9107 106.355 20.9107 106.355H21.0747L21.6487 106.273L23.9448 106.108C25.9129 106.026 28.701 105.861 32.2271 105.696C39.1974 105.366 48.8737 105.036 59.6161 104.954C70.3584 104.871 80.0348 105.036 87.005 105.284C90.5312 105.366 93.3193 105.531 95.2873 105.613L97.5834 105.696L98.1574 105.778H98.3214Z" fill="#FAFAFA"/>
<path d="M55.4339 86.6507C54.2039 86.0736 53.0558 85.4141 51.9898 84.672C50.8418 84.0125 49.7757 83.2705 48.7917 82.3636C50.0217 82.8582 51.1698 83.5178 52.2358 84.3423C53.3839 84.9194 54.4499 85.7438 55.4339 86.6507Z" fill="#FAFAFA"/>
<path d="M70.4405 82.3636C69.7845 83.188 68.9644 83.93 68.1444 84.5896C67.4884 85.1667 66.8324 85.5789 66.3404 85.9087C66.1763 86.0736 65.9303 86.1561 65.7663 86.2385C65.6843 86.2385 65.6843 86.321 65.6023 86.321C65.5203 86.321 65.5203 86.2385 65.5203 86.2385C66.2584 85.4965 67.0784 84.8369 67.8984 84.1774C68.6364 83.4353 69.5385 82.8582 70.4405 82.3636Z" fill="#FAFAFA"/>
<path d="M40.7554 134.964C40.7554 135.047 36.3273 135.376 30.8331 135.706C25.3389 136.036 20.9107 136.118 20.9107 136.036C20.9107 135.953 25.3389 135.624 30.8331 135.294C36.3273 134.964 40.7554 134.882 40.7554 134.964Z" fill="#FAFAFA"/>
<path d="M86.349 137.437C86.349 137.52 76.4267 137.932 64.2903 138.344C52.1538 138.757 42.1495 139.004 42.1495 138.839C42.1495 138.674 52.0718 138.262 64.2903 137.932C76.5087 137.602 86.349 137.273 86.349 137.437Z" fill="#FAFAFA"/>
<path d="M40.5914 164.15C40.9194 163.243 41.3295 162.336 41.7395 161.429C42.4775 159.78 43.4615 157.472 44.3636 154.916C45.2656 152.36 46.0856 149.969 46.5776 148.238C46.8237 147.331 47.0697 146.342 47.4797 145.435C47.4797 145.682 47.4797 145.929 47.3977 146.259C47.3157 146.754 47.1517 147.496 46.9057 148.32C46.4956 150.052 45.7576 152.443 44.7736 155.081C43.9535 157.307 43.0515 159.451 42.0675 161.594C41.6575 162.419 41.3295 163.078 41.0834 163.49C40.9194 163.655 40.7554 163.903 40.5914 164.15Z" fill="#FAFAFA"/>
<path d="M65.2743 170.169C65.1923 169.262 65.2743 168.355 65.3563 167.448C65.4383 165.716 65.6843 163.408 66.0944 160.852C66.5044 158.296 66.9964 155.988 67.4064 154.339C67.5704 153.432 67.8984 152.525 68.2264 151.701C68.1444 152.608 67.9804 153.514 67.7344 154.421C67.4064 156.07 66.9144 158.379 66.5044 160.935C66.0944 163.49 65.8483 165.799 65.6023 167.53C65.6023 168.355 65.4383 169.262 65.2743 170.169Z" fill="#FAFAFA"/>
<path d="M41.0835 116.826C41.0015 116.414 40.9195 116.002 40.9195 115.672C40.8375 114.93 40.7555 113.775 40.6734 112.374C40.5914 110.972 40.5914 109.323 40.5094 107.51C40.4274 105.531 40.0994 103.635 39.5254 101.738C38.9514 99.8421 38.0494 98.1107 36.7373 96.7092C35.6713 95.5549 34.2772 94.7305 32.8012 94.2358C31.8171 93.906 30.6691 93.8235 29.6031 93.906C28.865 93.9884 28.455 94.1533 28.455 94.0709C28.537 93.9884 28.619 93.9884 28.701 93.9884C28.947 93.906 29.275 93.8235 29.5211 93.7411C30.5871 93.5762 31.7351 93.5762 32.8012 93.906C34.3592 94.3182 35.8353 95.2251 36.9833 96.3794C38.3774 97.8634 39.3614 99.6772 39.9354 101.573C40.5094 103.47 40.8375 105.448 40.9195 107.51C41.0015 109.323 41.0015 110.972 41.0015 112.374C41.0015 113.775 41.0835 114.847 41.0835 115.672C41.0835 116.002 41.0835 116.414 41.0835 116.826Z" fill="#263238"/>
<path d="M124.726 146.342L126.448 146.177C127.597 146.012 128.417 145.023 128.335 143.868L127.761 138.262L122.184 138.839C121.036 139.004 120.216 139.993 120.298 141.148L120.462 142.879C120.708 145.023 119.15 146.919 117.018 147.166C114.886 147.413 113 145.847 112.754 143.703L112.59 141.89C112.508 140.735 111.442 139.911 110.376 140.076L104.718 140.653L107.178 163.738L112.754 163.161C113.902 163.078 114.722 162.006 114.64 160.852L114.476 159.121C114.23 156.977 115.788 155.081 117.92 154.834C120.052 154.586 121.938 156.153 122.184 158.296L122.348 160.028C122.43 161.182 123.496 162.006 124.644 161.924L130.221 161.347L129.647 155.74C129.565 154.586 128.499 153.762 127.351 153.844L125.628 154.009C123.496 154.256 121.61 152.69 121.364 150.546C121.036 148.485 122.594 146.507 124.726 146.342Z" fill="#6E1690"/>
<path d="M123.66 146.342L125.382 146.177C126.53 146.012 127.351 145.023 127.269 143.868L126.694 138.262L121.118 138.839C119.97 139.004 119.15 139.993 119.232 141.148L119.396 142.879C119.642 145.023 118.084 146.919 115.952 147.166C113.82 147.413 111.934 145.847 111.688 143.703L111.524 141.89C111.442 140.735 110.376 139.911 109.31 140.076L103.652 140.653L106.112 163.738L111.688 163.161C112.836 163.078 113.656 162.006 113.574 160.852L113.41 159.121C113.164 156.977 114.722 155.081 116.854 154.834C118.986 154.586 120.872 156.153 121.118 158.296L121.282 160.028C121.364 161.182 122.43 162.006 123.578 161.924L129.155 161.347L128.581 155.74C128.499 154.586 127.433 153.762 126.284 153.844L124.562 154.009C122.43 154.256 120.544 152.69 120.298 150.546C119.97 148.485 121.528 146.507 123.66 146.342Z" fill="#8816AD"/>
<path d="M103.488 140.735C104.144 140.57 104.8 140.488 105.456 140.406C106.112 140.323 106.768 140.241 107.424 140.158C108.08 140.076 108.736 140.076 109.392 139.993C110.048 139.993 110.704 139.911 111.36 139.993C110.704 140.158 110.048 140.241 109.392 140.323C108.736 140.406 108.08 140.488 107.424 140.57C106.768 140.653 106.112 140.653 105.456 140.735C104.8 140.735 104.144 140.818 103.488 140.735Z" fill="white"/>
<path d="M103.488 140.735C103.816 142.632 104.062 144.528 104.308 146.424L105.046 152.195L105.702 157.967C105.866 159.863 106.03 161.842 106.194 163.738C105.866 161.842 105.62 159.945 105.374 158.049L104.636 152.278L103.98 146.507C103.816 144.61 103.652 142.714 103.488 140.735Z" fill="white"/>
<path d="M120.626 156.895C120.954 157.637 121.118 158.379 121.282 159.121C121.446 159.863 121.528 160.605 121.528 161.429C121.2 160.687 121.036 159.945 120.872 159.203C120.708 158.379 120.626 157.637 120.626 156.895Z" fill="white"/>
<path d="M126.613 138.097C124.562 138.592 122.512 138.839 120.544 139.169C120.134 139.251 119.724 139.581 119.56 139.993C119.478 140.241 119.396 140.488 119.396 140.653C119.396 140.9 119.396 141.148 119.396 141.395C119.396 141.89 119.478 142.384 119.56 142.961C119.56 143.456 119.478 144.033 119.314 144.528C119.396 144.033 119.478 143.538 119.396 142.961C119.314 142.467 119.232 141.972 119.15 141.395C119.15 141.148 119.068 140.9 119.068 140.57C119.068 140.323 119.15 139.993 119.232 139.746C119.396 139.169 119.888 138.757 120.462 138.674C122.512 138.509 124.562 138.262 126.613 138.097Z" fill="white"/>
<path d="M198.037 117.568L184.671 100.831C184.097 100.172 183.113 100.007 182.456 100.584C182.21 100.749 182.046 100.996 181.964 101.244L179.832 106.932C156.298 99.8421 143.423 120.454 143.423 120.454L152.443 126.802C162.202 111.549 176.224 116.496 176.224 116.496L174.338 121.443C174.01 122.267 174.42 123.174 175.24 123.504C175.486 123.587 175.814 123.669 176.06 123.587L197.135 120.041C198.037 119.794 198.529 118.887 198.283 118.063C198.283 117.898 198.201 117.733 198.037 117.568Z" fill="#E0E0E0"/>
<path d="M189.837 179.485C180.652 192.759 168.68 189.956 166.22 189.214L168.926 182.783C169.09 182.371 168.926 181.958 168.516 181.793C168.352 181.711 168.188 181.711 168.106 181.711L143.997 185.009C143.587 185.091 143.341 185.421 143.341 185.833C143.341 185.998 143.423 186.081 143.505 186.163L158.184 205.703C158.43 206.033 158.922 206.115 159.25 205.868C159.332 205.785 159.414 205.703 159.496 205.538L162.366 198.612C185.409 205.95 198.693 186.081 198.693 186.081L189.837 179.485Z" fill="#E0E0E0"/>
</g>
<defs>
<clipPath id="clip0_22_180">
<rect width="339" height="271" fill="white"/>
</clipPath>
</defs>
</svg>
