<svg width="360" height="348" viewBox="0 0 360 348" fill="none" xmlns="http://www.w3.org/2000/svg">
<path d="M48.1553 133.731C61.3244 133.731 72 123.044 72 109.861C72 96.6786 61.3244 85.9919 48.1553 85.9919C34.9863 85.9919 24.3107 96.6786 24.3107 109.861C24.3107 123.044 34.9863 133.731 48.1553 133.731Z" fill="#EBEBEB"/>
<path d="M70.2136 105.741C70.6019 105.741 71.068 106.363 71.3786 107.607C71.767 109.395 71.8447 111.183 71.534 112.971C71.1456 115.615 70.2913 118.258 68.9709 120.591C65.6311 126.578 59.8058 130.698 53.0485 131.787C50.4078 132.253 47.6893 132.176 45.0485 131.631C43.2621 131.32 41.6311 130.621 40.0777 129.61C39.068 128.91 38.6019 128.21 38.7573 127.899C39.068 127.044 41.6311 127.511 45.4369 127.355C50.2524 127.2 54.835 125.645 58.8738 123.001C62.7573 120.124 65.7087 116.315 67.4951 111.805C68.9709 108.384 69.2816 105.818 70.2136 105.741Z" fill="#E0E0E0"/>
<path d="M49.3204 115.615C51.8058 115.459 54.1359 114.449 55.9223 112.66C57.0097 111.572 57.6311 110.172 57.6311 108.617C57.5534 107.14 56.466 105.974 55.068 105.663C54.0583 105.663 53.0485 105.974 52.2718 106.596C51.4951 107.218 50.5631 107.684 49.6311 107.995C48.233 108.306 46.7573 107.762 45.5146 107.218C44.2718 106.674 42.7961 106.052 41.3981 106.363C40.3883 106.44 39.534 107.062 39.1456 107.918C39.1456 107.918 38.4466 109.473 39.8447 111.572C41.9417 114.449 45.5922 116.004 49.3204 115.615Z" fill="white"/>
<path d="M38.4466 102.009C38.0583 101.231 37.1262 100.764 36.2718 100.842C35.9612 100.842 35.7282 100.92 35.4951 101.076C34.7961 101.62 34.4854 102.475 34.6408 103.33C34.8738 104.419 36.0388 105.119 37.1262 104.885C37.2039 104.885 37.2039 104.885 37.2816 104.808C38.3689 104.419 38.9126 103.175 38.4466 102.009Z" fill="white"/>
<path d="M61.2039 102.086C60.8155 101.309 59.8835 100.842 59.0291 100.92C58.7184 100.92 58.4854 100.998 58.2524 101.153C57.5534 101.698 57.2427 102.553 57.3981 103.408C57.6311 104.497 58.7961 105.196 59.8835 104.963C59.9612 104.963 59.9612 104.963 60.0388 104.885C61.1262 104.497 61.6699 103.253 61.2039 102.086Z" fill="white"/>
<path d="M321.462 50.7006C324.769 36.1295 315.649 21.634 301.093 18.324C286.537 15.0141 272.057 24.1431 268.75 38.7143C265.444 53.2855 274.563 67.7809 289.119 71.0909C303.675 74.4008 318.156 65.2718 321.462 50.7006Z" fill="#EBEBEB"/>
<path d="M319.301 41.2077C319.689 41.2077 320.155 41.9075 320.466 43.307C320.854 45.2507 320.932 47.2722 320.544 49.2938C320.078 52.2483 319.068 55.125 317.592 57.7685C313.864 64.4551 307.262 69.0424 299.728 70.3641C296.777 70.9084 293.67 70.9084 290.718 70.2864C288.777 69.8976 286.835 69.1979 285.126 68.1871C283.961 67.4096 283.417 66.7098 283.573 66.3988C283.961 65.5436 286.757 66.1656 291.107 66.0878C293.592 66.0101 296.078 65.6213 298.485 64.9993C304.311 63.4443 309.359 59.8678 312.777 54.8918C314.252 52.8703 315.417 50.6155 316.35 48.283C317.981 44.1622 318.369 41.2077 319.301 41.2077Z" fill="#E0E0E0"/>
<path d="M303.301 41.3632C303.379 41.3632 302.99 42.5295 301.592 43.8512C297.942 47.5055 292.194 47.7387 288.155 44.551C286.68 43.3847 286.214 42.2962 286.214 42.2185C286.214 42.1407 286.99 43.0737 288.466 44.0845C292.35 46.8057 297.553 46.5725 301.126 43.4625C302.524 42.2962 303.146 41.2855 303.301 41.3632Z" fill="white"/>
<path d="M284.117 35.9207C283.65 34.9877 282.641 34.5212 281.631 34.5989C281.32 34.5989 281.01 34.6767 280.777 34.9099C280 35.5319 279.612 36.4649 279.767 37.4757C280.078 38.7197 281.32 39.4972 282.563 39.264C282.641 39.264 282.718 39.1862 282.796 39.1862C284.039 38.5642 284.66 37.1647 284.117 35.9207Z" fill="white"/>
<path d="M312.466 38.4864C312.388 37.7867 312.233 37.0869 312 36.3872C311.689 35.6874 311.223 35.1432 310.68 34.6767C309.204 33.5882 307.185 33.6659 305.786 34.7544C305.243 35.2209 304.777 35.8429 304.544 36.5427C304.388 37.2424 304.233 37.9422 304.155 38.6419C304.078 38.7197 303.612 37.7867 304 36.3872C304.621 33.9769 307.029 32.5774 309.437 33.1994C310.913 33.5882 312.155 34.7544 312.544 36.2317C312.932 37.6312 312.544 38.5642 312.466 38.4864Z" fill="white"/>
<path d="M288.311 322.431C287.612 319.632 289.476 316.833 291.573 314.734C293.67 312.634 296.155 310.846 297.243 308.203C299.029 303.849 296.699 298.173 299.728 294.518C301.515 292.341 304.621 291.719 306.175 289.387C306.874 288.143 307.34 286.743 307.573 285.266C309.282 278.035 312.854 271.349 318.058 265.906C318.369 272.36 316.893 278.813 313.864 284.566C312.621 286.821 311.146 289.076 310.757 291.642C310.058 295.84 312.388 300.117 311.301 304.16C310.136 308.825 304.854 311.935 304.544 316.755C304.311 320.798 307.806 324.375 307.573 328.495C307.34 330.206 306.718 331.839 305.709 333.316C302.524 338.525 297.942 342.102 290.951 341.946L282.408 342.179L288.311 322.431Z" fill="#EBEBEB"/>
<path d="M280.621 342.413C279.845 342.49 279.068 342.49 278.291 342.335C277.359 342.179 276.427 341.946 275.495 341.635C274.252 341.169 273.087 340.547 272.078 339.691C271.456 339.147 270.99 338.525 270.68 337.825C270.447 336.97 270.291 336.115 270.291 335.26C270.291 334.327 270.214 333.394 270.136 332.538C269.981 331.528 269.592 330.595 269.126 329.739C268.117 327.951 266.485 326.241 265.942 323.83C265.398 321.42 265.786 318.854 266.252 316.289C266.641 313.723 267.029 310.924 266.097 308.203C265.165 305.481 263.301 303.071 262.369 300.039C261.437 297.007 261.903 293.741 261.748 290.475C261.67 288.843 261.359 287.21 260.66 285.733C259.961 284.178 259.029 282.778 258.252 281.145C256.777 277.88 256.544 274.226 256.078 270.649C255.922 268.861 255.689 266.995 255.456 265.207C255.379 263.341 255.068 261.475 254.524 259.686C253.981 257.898 253.282 256.11 252.505 254.399C252.117 253.466 251.806 252.611 251.573 251.6C251.417 250.59 251.34 249.656 251.34 248.646C251.262 246.702 251.34 244.68 251.573 242.737C251.806 240.793 252.194 238.771 252.427 236.828L252.505 236.517L252.583 236.128L252.971 236.283C254.757 237.216 256.311 238.538 257.553 240.171C258.718 241.804 259.651 243.514 260.35 245.458C261.748 249.112 262.291 253 262.99 256.732C263.689 260.386 264.544 264.04 266.485 267.15C267.417 268.705 268.583 270.105 269.515 271.582C270.602 273.059 271.301 274.692 271.612 276.48C272.078 280.135 270.058 283.322 270.447 286.51C270.68 288.065 271.146 289.62 272 290.942C272.777 292.341 273.709 293.585 274.563 294.907C275.417 296.151 276.194 297.473 276.816 298.872C277.437 300.272 277.748 301.672 277.825 303.149C277.981 306.026 277.592 308.747 277.825 311.39C278.058 313.878 278.757 316.289 279.922 318.466C280.932 320.565 282.097 322.509 283.029 324.375C283.495 325.23 283.961 326.163 284.35 327.096C284.66 327.951 284.971 328.884 285.126 329.817C285.359 331.45 285.359 333.083 285.126 334.715C284.893 336.97 284.039 339.147 282.641 340.935C282.408 341.246 282.175 341.48 281.942 341.713C281.786 341.868 281.553 342.024 281.398 342.179C280.777 342.335 280.621 342.413 280.621 342.413C281.243 341.946 281.864 341.402 282.33 340.78C283.65 338.992 284.427 336.815 284.66 334.56C284.893 332.927 284.816 331.372 284.583 329.739C284.427 328.806 284.194 327.951 283.806 327.096C283.417 326.241 283.029 325.308 282.485 324.375C281.553 322.509 280.388 320.643 279.301 318.543C278.136 316.289 277.359 313.878 277.126 311.39C276.893 308.747 277.359 306.026 277.126 303.149C277.049 301.749 276.66 300.35 276.117 299.028C275.495 297.629 274.718 296.385 273.864 295.141C273.01 293.896 272.078 292.575 271.301 291.175C270.447 289.776 269.903 288.143 269.67 286.51C269.282 283.089 271.301 279.901 270.757 276.48C270.447 274.77 269.748 273.215 268.738 271.815C267.806 270.338 266.641 268.939 265.709 267.384C263.767 264.196 262.835 260.542 262.136 256.81C261.437 253.078 260.971 249.268 259.573 245.691C258.874 243.903 258.019 242.115 256.854 240.56C255.689 239.005 254.214 237.683 252.427 236.828L252.816 236.594C252.816 236.672 252.816 236.828 252.816 236.905C252.583 238.927 252.194 240.871 251.961 242.814C251.728 244.758 251.65 246.702 251.728 248.646C251.728 249.579 251.806 250.59 251.961 251.523C252.194 252.456 252.505 253.311 252.893 254.244C253.67 255.954 254.369 257.82 254.913 259.609C255.379 261.397 255.689 263.341 255.845 265.207C256 267.073 256.233 268.861 256.388 270.649C256.777 274.226 257.01 277.88 258.485 280.99C259.184 282.545 260.194 284.022 260.893 285.577C261.592 287.132 261.981 288.843 261.981 290.553C262.136 293.819 261.67 297.084 262.602 300.039C263.456 302.993 265.32 305.404 266.252 308.203C267.184 311.002 266.796 313.878 266.408 316.444C266.019 319.01 265.553 321.498 266.097 323.83C266.641 326.085 268.194 327.796 269.204 329.662C269.748 330.517 270.058 331.528 270.291 332.538C270.369 333.471 270.447 334.404 270.447 335.337C270.447 336.193 270.524 337.048 270.835 337.825C271.146 338.525 271.534 339.147 272.155 339.614C273.165 340.469 274.252 341.091 275.495 341.557C276.35 341.868 277.282 342.179 278.214 342.335C278.757 342.413 279.379 342.49 279.922 342.49C280.388 342.413 280.621 342.413 280.621 342.413Z" fill="#E0E0E0"/>
<path d="M254.136 241.259C254.136 241.259 254.136 241.337 254.214 241.493C254.291 241.648 254.291 241.959 254.369 242.27C254.524 242.97 254.757 243.981 255.068 245.225C255.379 246.469 256.155 247.946 256.777 249.734C257.553 251.756 258.252 253.777 258.796 255.799C259.418 258.131 259.961 260.619 260.583 263.341C261.204 266.062 261.825 268.939 263.301 271.738C264 273.137 264.777 274.537 265.398 276.092C266.019 277.647 266.408 279.357 266.563 280.99C266.951 284.489 267.573 287.91 268.35 291.408C270.058 298.406 271.612 305.17 273.087 311.235L277.049 327.407C278.136 331.994 279.068 335.726 279.689 338.292C280 339.536 280.233 340.547 280.388 341.246C280.466 341.557 280.466 341.791 280.544 342.024C280.544 342.102 280.544 342.179 280.544 342.257C280.466 342.179 280.466 342.102 280.466 342.024C280.388 341.791 280.311 341.557 280.233 341.246L279.456 338.292C278.757 335.648 277.825 331.994 276.66 327.407C275.495 322.82 274.097 317.299 272.621 311.235L267.883 291.408C267.107 287.987 266.485 284.489 266.097 280.99C265.942 279.357 265.553 277.724 264.932 276.169C264.311 274.692 263.534 273.293 262.835 271.815C261.359 269.016 260.738 265.984 260.117 263.263C259.495 260.542 259.029 257.976 258.408 255.721C257.786 253.466 257.165 251.367 256.466 249.657C255.845 247.868 255.068 246.469 254.835 245.147C254.524 243.825 254.369 242.814 254.291 242.115C254.214 241.804 254.214 241.57 254.136 241.337C254.136 241.415 254.136 241.337 254.136 241.259Z" fill="#E0E0E0"/>
<path d="M279.068 342.49C273.476 339.147 271.922 329.04 274.33 322.975C276.66 316.911 280.777 311.39 281.476 304.937C282.019 299.961 280.388 294.829 281.553 289.931C283.184 283.4 289.631 278.346 289.553 271.582C289.553 267.772 287.379 264.196 287.612 260.386C287.845 255.721 291.417 252.067 293.67 248.024C297.087 241.804 297.32 234.417 298.563 227.342C299.728 220.345 302.447 212.803 308.738 209.382C309.592 215.369 311.146 219.412 310.602 227.498C310.447 230.374 307.029 235.972 306.485 242.27C306.175 246.08 306.019 249.89 305.709 253.7C305.476 257.509 305.243 261.164 303.845 264.585C302.835 267.228 301.126 269.638 300.427 272.36C298.951 277.491 300.816 283.089 299.65 288.298C298.641 292.73 295.612 296.54 294.913 300.972C293.981 307.27 298.019 313.878 295.922 319.865C294.835 322.82 292.427 325.23 291.651 328.34C291.107 330.75 291.651 333.238 291.184 335.648C290.408 339.536 283.029 342.49 279.068 342.179" fill="#E0E0E0"/>
<path d="M307.107 215.213C307.107 215.291 307.107 215.446 307.107 215.524C307.107 215.757 307.029 216.068 306.951 216.535C306.796 217.39 306.641 218.634 306.33 220.267C306.019 221.9 305.165 223.766 304.466 226.02C303.767 228.275 302.99 230.841 302.369 233.718C301.748 236.594 301.204 239.782 300.583 243.203C299.961 246.624 299.34 250.356 297.631 253.933C296.854 255.721 295.922 257.509 295.301 259.375C294.68 261.319 294.214 263.341 294.058 265.44C293.748 269.794 293.126 274.148 292.35 278.502C290.563 287.365 288.932 295.763 287.379 303.382C285.825 311.002 284.35 317.844 283.107 323.675C281.864 329.506 280.854 334.093 280.078 337.359C279.689 338.914 279.456 340.158 279.223 341.091C279.146 341.48 279.068 341.791 278.99 342.024C278.99 342.102 278.913 342.257 278.913 342.335C278.913 342.257 278.913 342.102 278.913 342.024C278.99 341.791 278.99 341.48 279.068 341.091C279.223 340.236 279.456 338.914 279.767 337.359L282.485 323.675C283.65 317.844 285.126 311.002 286.68 303.382C288.233 295.763 289.864 287.365 291.651 278.502C292.427 274.226 293.049 269.872 293.359 265.518C293.515 263.418 293.903 261.319 294.602 259.375C295.301 257.432 296.155 255.643 297.01 253.855C298.718 250.356 299.34 246.702 299.961 243.281C300.583 239.86 301.126 236.672 301.825 233.795C302.524 230.919 303.223 228.353 304 226.098C304.777 223.843 305.631 222.055 305.942 220.422C306.252 218.79 306.485 217.546 306.641 216.69L306.796 215.757C307.029 215.446 307.107 215.291 307.107 215.213Z" fill="#EBEBEB"/>
<path d="M360 341.557C360 341.635 279.379 341.791 179.961 341.791C80.5437 341.791 0 341.713 0 341.557C0 341.402 80.6214 341.324 180.039 341.324C279.456 341.324 360 341.48 360 341.557Z" fill="#455A64"/>
<path d="M173.359 138.162C163.961 146.948 157.204 165.608 155.34 178.126C153.476 190.644 152.544 203.784 145.709 214.358C143.845 217.312 141.359 220.267 141.592 223.766C141.903 228.664 147.262 231.618 152.155 232.007C157.049 232.396 161.942 231.23 166.757 232.085C175.612 233.718 182.447 242.192 191.456 242.115C198.136 242.037 203.961 237.061 206.913 231.074C209.864 225.087 210.563 218.245 211.184 211.637C213.126 191.577 214.524 177.115 216.466 157.134" fill="#8816AD"/>
<path d="M152.155 212.025C150.602 211.092 149.592 209.537 149.359 207.749C149.437 207.749 149.825 208.838 150.602 210.004C151.379 211.17 152.233 211.948 152.155 212.025Z" fill="#FAFAFA"/>
<path d="M190.447 233.64C190.291 233.64 190.136 233.64 189.903 233.64L188.427 233.562C187.107 233.484 185.32 233.329 182.99 233.096C178.408 232.629 172.039 231.774 165.204 230.374C161.942 229.83 158.68 228.975 155.573 227.886C153.01 226.953 150.602 225.554 148.583 223.766C147.184 222.522 146.097 221.044 145.32 219.412C145.087 218.945 144.932 218.479 144.777 218.012C144.699 217.857 144.699 217.701 144.699 217.546C144.699 217.546 144.932 218.245 145.476 219.412C146.33 221.044 147.417 222.444 148.816 223.688C150.835 225.476 153.243 226.798 155.728 227.653C158.835 228.664 162.097 229.519 165.359 230.063C172.272 231.463 178.563 232.318 183.146 232.862L188.583 233.484L190.058 233.64C190.136 233.562 190.291 233.64 190.447 233.64Z" fill="#FAFAFA"/>
<path d="M186.718 223.377C185.864 223.144 185.087 222.677 184.466 222.055C183.922 221.666 183.379 221.122 182.913 220.656L182.835 220.578V220.5C182.99 220.189 183.068 220.034 183.068 220.034C183.068 220.034 183.068 220.267 182.99 220.578V220.422L184.621 221.666C185.398 222.288 186.097 222.833 186.718 223.377Z" fill="#FAFAFA"/>
<path d="M164.117 156.201C164.117 156.278 163.495 156.278 163.029 155.734C162.563 155.19 162.485 154.568 162.563 154.568C162.641 154.568 162.874 155.034 163.262 155.423C163.65 155.812 164.194 156.045 164.117 156.201Z" fill="#FAFAFA"/>
<path d="M161.165 165.842C161.165 165.919 160.311 165.997 159.612 165.297C158.913 164.598 158.757 163.82 158.913 163.82C159.068 163.82 159.223 164.442 159.922 165.064C160.621 165.686 161.165 165.686 161.165 165.842Z" fill="#FAFAFA"/>
<path d="M158.68 176.649C158.68 176.727 158.447 176.727 158.136 176.727C157.67 176.649 157.282 176.416 156.893 176.105C156.505 175.794 156.272 175.405 156.117 175.016C156.039 174.705 156.039 174.472 156.117 174.472C156.194 174.472 156.427 175.249 157.204 175.871C157.981 176.493 158.68 176.493 158.68 176.649Z" fill="#FAFAFA"/>
<path d="M156.583 187.301C156.505 187.378 155.961 187.145 155.262 186.756C154.563 186.368 154.097 185.979 154.175 185.901C154.252 185.823 154.796 186.057 155.495 186.445C156.194 186.834 156.583 187.223 156.583 187.301Z" fill="#FAFAFA"/>
<path d="M154.563 199.43C154.485 199.508 153.864 199.197 153.243 198.419C152.621 197.642 152.466 196.942 152.544 196.942C152.621 196.942 153.01 197.486 153.553 198.186C154.097 198.885 154.641 199.352 154.563 199.43Z" fill="#FAFAFA"/>
<path d="M140.893 309.213L136.466 329.117L128.466 343.89C127.922 344.901 128.311 346.145 129.32 346.689C129.398 346.689 129.398 346.767 129.476 346.767C130.097 347.078 130.796 347 131.417 346.689C135.146 344.512 148.893 336.504 149.126 335.026C149.437 333.316 155.184 314.267 155.184 314.267L140.893 309.213Z" fill="#8816AD"/>
<path d="M129.476 346.845L149.437 333.782L149.204 334.638C149.049 335.337 148.583 336.037 147.961 336.426C146.33 337.592 141.748 340.702 131.417 346.767C130.796 347.078 130.097 347.156 129.476 346.845Z" fill="white"/>
<path d="M146.874 326.318C146.252 326.552 145.942 327.251 146.175 327.873C146.408 328.495 147.029 328.806 147.65 328.651C148.272 328.418 148.66 327.718 148.427 327.018C148.117 326.396 147.417 326.163 146.796 326.396" fill="white"/>
<path d="M136.078 339.303C135.534 337.748 134.136 336.581 132.505 336.348C132.505 336.27 132.816 336.193 133.282 336.27C133.903 336.348 134.524 336.659 134.99 337.048C135.456 337.437 135.845 337.981 136 338.603C136.155 338.992 136.155 339.303 136.078 339.303Z" fill="#263238"/>
<path d="M134.058 341.557C133.981 341.635 133.437 340.78 132.505 340.313C131.883 340.002 131.262 339.769 130.641 339.614C131.34 339.38 132.117 339.536 132.738 339.925C133.825 340.547 134.214 341.557 134.058 341.557Z" fill="#263238"/>
<path d="M139.573 336.504C138.874 335.726 138.097 335.026 137.32 334.327C136.466 333.782 135.534 333.316 134.524 332.927C136.777 333.083 138.718 334.404 139.573 336.504Z" fill="#263238"/>
<path d="M141.437 330.517C141.359 330.595 140.35 329.895 138.951 329.506C137.553 329.117 136.311 329.195 136.311 329.04C138.175 328.573 140.117 329.117 141.437 330.517Z" fill="#263238"/>
<path d="M142.835 324.763C142.058 324.297 141.204 323.908 140.272 323.597C139.34 323.442 138.408 323.442 137.476 323.597C137.476 323.519 137.709 323.364 138.252 323.208C139.65 322.82 141.126 323.131 142.291 324.064C142.757 324.375 142.913 324.686 142.835 324.763Z" fill="#263238"/>
<path d="M140.583 322.509C140.583 322.275 140.66 321.964 140.738 321.731C140.971 321.031 141.359 320.409 141.825 319.943C142.136 319.554 142.602 319.243 143.068 319.088C143.456 319.01 143.767 319.165 143.922 319.476C144.078 319.787 144.078 320.098 144 320.409C143.534 321.731 142.214 322.586 140.816 322.431C139.417 322.275 138.33 321.265 137.942 319.865C137.864 319.554 137.942 319.165 138.097 318.854C138.33 318.621 138.718 318.466 139.029 318.621C139.495 318.854 139.883 319.165 140.194 319.632C140.66 320.176 140.971 320.798 141.204 321.498C141.282 321.731 141.359 322.042 141.359 322.275C141.049 321.42 140.583 320.565 139.961 319.865C139.728 319.476 139.34 319.243 138.951 319.01C138.796 318.932 138.563 319.01 138.408 319.088C138.252 319.321 138.252 319.554 138.33 319.71C138.641 320.876 139.65 321.731 140.816 321.887C141.981 322.042 143.146 321.342 143.534 320.176C143.612 319.943 143.612 319.71 143.534 319.476C143.456 319.321 143.223 319.243 143.068 319.243C142.68 319.399 142.291 319.632 141.981 319.943C141.437 320.798 140.971 321.653 140.583 322.509Z" fill="#263238"/>
<path d="M203.107 316.522L202.485 332.538C202.485 332.538 218.485 338.525 218.718 341.48L187.728 341.402L187.65 316.444L203.107 316.522Z" fill="#8816AD"/>
<path d="M192.854 331.139C192.233 331.294 191.845 331.916 192 332.616C192.155 333.238 192.777 333.627 193.398 333.471C194.097 333.238 194.485 332.616 194.33 331.916C194.097 331.294 193.398 330.983 192.777 331.139" fill="white"/>
<path d="M187.65 341.402L187.728 338.914L217.398 339.925C217.398 339.925 218.796 340.547 218.641 341.48L187.65 341.402Z" fill="white"/>
<path d="M202.951 332.383C202.951 332.538 202.175 332.616 201.476 333.083C200.777 333.549 200.311 334.171 200.155 334.171C200 334.171 200.233 333.238 201.165 332.694C202.097 332.072 203.029 332.227 202.951 332.383Z" fill="#263238"/>
<path d="M206.214 333.705C206.214 333.86 205.592 334.093 205.049 334.715C204.505 335.337 204.427 336.037 204.272 336.037C204.194 336.037 204.039 335.182 204.66 334.404C205.359 333.627 206.214 333.549 206.214 333.705Z" fill="#263238"/>
<path d="M208.078 337.592C207.922 337.592 207.767 336.892 208.155 336.037C208.544 335.182 209.243 334.871 209.32 335.026C209.398 335.182 208.932 335.571 208.621 336.27C208.311 336.97 208.233 337.592 208.078 337.592Z" fill="#263238"/>
<path d="M202.718 328.729C202.641 328.884 201.942 328.651 201.087 328.729C200.233 328.806 199.534 329.04 199.456 328.884C199.379 328.729 200 328.184 201.01 328.184C202.019 328.107 202.796 328.573 202.718 328.729Z" fill="#263238"/>
<path d="M202.951 319.71L202.874 322.586L187.65 322.353L187.573 319.787L202.951 319.71Z" fill="black"/>
<path d="M202.796 325.463C202.252 325.619 201.786 325.619 201.243 325.463C200.699 325.385 200.155 325.23 199.612 324.997C199.301 324.841 198.99 324.686 198.757 324.53C198.602 324.452 198.447 324.297 198.291 324.141C198.136 323.908 198.058 323.597 198.214 323.364C198.369 323.131 198.602 323.053 198.913 323.053C199.146 323.053 199.301 323.053 199.534 323.131C199.845 323.208 200.155 323.286 200.466 323.442C201.01 323.675 201.476 323.986 201.864 324.375C202.563 325.074 202.796 325.619 202.796 325.619C202.796 325.619 202.408 325.23 201.631 324.608C201.243 324.297 200.777 324.064 200.233 323.83C199.922 323.753 199.612 323.597 199.379 323.519C199.068 323.442 198.757 323.442 198.68 323.597C198.602 323.753 198.68 323.675 198.68 323.753C198.757 323.83 198.913 323.986 199.068 324.064C199.301 324.219 199.612 324.375 199.845 324.53C200.311 324.763 200.854 324.997 201.32 325.152C201.786 325.23 202.252 325.308 202.796 325.463Z" fill="#263238"/>
<path d="M202.563 325.696C202.252 325.23 202.097 324.763 202.175 324.219C202.175 323.675 202.252 323.053 202.408 322.509C202.485 322.198 202.641 321.887 202.796 321.576C202.951 321.187 203.34 320.876 203.806 320.798C204.117 320.798 204.35 320.954 204.427 321.265C204.505 321.42 204.583 321.653 204.583 321.809C204.66 322.12 204.66 322.509 204.583 322.897C204.505 323.442 204.272 324.064 203.883 324.53C203.262 325.308 202.641 325.541 202.641 325.463C202.641 325.385 203.107 325.074 203.573 324.297C203.806 323.83 204.039 323.364 204.039 322.82C204.117 322.509 204.117 322.198 204.039 321.887C203.961 321.576 203.883 321.265 203.728 321.342C203.573 321.342 203.34 321.576 203.184 321.809C203.029 322.042 202.874 322.353 202.796 322.664C202.641 323.131 202.485 323.675 202.485 324.219C202.563 325.074 202.641 325.696 202.563 325.696Z" fill="#263238"/>
<path d="M172.816 141.117C172.816 141.117 163.029 156.589 161.631 162.576C160.233 168.563 133.67 311.701 133.67 311.701L162.33 320.332L187.34 203.162L180.039 319.399C180.039 319.865 180.35 320.176 180.738 320.254H180.816L209.631 319.399C210.019 319.399 210.408 319.088 210.408 318.621C211.107 307.347 219.883 166.23 218.252 162.11C216.544 157.833 212.194 142.905 212.194 142.905L172.816 141.117Z" fill="#263238"/>
<path d="M151.689 93.145C150.136 94.3112 150.058 96.566 150.369 98.432C150.68 100.298 151.301 102.32 150.68 104.108C150.136 105.196 149.515 106.207 148.66 107.14C147.961 108.151 147.417 109.395 147.883 110.561C148.66 112.738 152 112.894 152.854 114.993C153.32 116.237 152.777 117.559 152.155 118.647C151.534 119.736 150.68 120.902 150.602 122.146C150.524 124.09 152.078 125.645 154.019 125.722C154.175 125.722 154.252 125.722 154.408 125.722C155.806 125.489 156.893 124.478 158.058 123.701C159.223 122.923 160.932 122.457 162.019 123.39C163.262 124.478 162.796 126.5 162.796 128.133C162.796 129.999 163.728 131.709 165.359 132.642C166.99 133.497 169.087 132.953 170.097 131.398C170.563 130.621 170.718 129.532 171.573 129.221C172.583 128.755 173.592 129.921 174.757 130.154C176 130.387 177.32 129.688 177.786 128.521C178.252 127.355 178.408 126.033 178.097 124.867C177.243 119.969 173.592 116.159 171.184 111.805C169.243 108.306 168.078 104.419 167.767 100.454C167.612 97.9655 167.767 95.5552 167.534 93.0672C167.456 90.5792 166.602 88.169 165.204 86.1474C163.728 84.2037 161.165 82.8819 158.757 83.4262" fill="#8816AD"/>
<path d="M183.456 35.6097C176 35.3764 168.777 41.2855 167.534 48.6717C166.835 52.4815 167.612 56.68 165.825 60.1011C163.495 64.6883 157.359 66.7876 156.039 71.7636C154.874 75.8844 157.592 80.3939 156.427 84.5147C155.573 87.5469 152.932 89.6462 151.612 92.4452C150.369 95.2442 150.524 98.5098 152.233 101.076C153.942 103.641 156.971 104.963 160 104.652C161.864 104.341 163.573 103.408 165.437 102.786C169.32 101.464 173.592 101.931 177.709 102.553C181.825 103.175 186.019 103.797 189.981 102.864C193.942 101.931 197.825 98.9763 198.447 94.8555C198.835 92.212 197.825 89.5685 197.049 87.0027C191.689 70.1309 194.097 51.7818 190.369 34.5212" fill="#8816AD"/>
<path d="M203.34 43.8512C203.961 48.283 205.204 52.7148 207.146 55.436C208.699 57.613 211.728 58.9348 212.194 61.5783C212.583 63.8331 211.262 66.0878 211.417 68.3426C211.728 71.9191 215.689 74.0961 216.777 77.5171C217.709 80.3162 216.388 83.5817 214.291 85.6032C212.117 87.6247 209.243 88.7909 206.369 89.5685C202.252 90.657 197.282 91.0457 194.33 87.9357C192.311 85.8364 191.845 82.7264 191.612 79.7719C190.913 71.9969 190.913 64.1441 190.99 56.369" fill="#8816AD"/>
<path d="M176.466 51.3153C175.534 44.0067 180.738 37.2424 188.117 36.3872C188.272 36.3872 188.427 36.3872 188.505 36.3094C195.65 35.6097 201.942 40.9745 203.029 48.0497C203.961 54.2698 204.738 60.5676 204.738 62.8223C204.66 69.6644 200.621 72.3856 198.99 73.1631C198.369 73.3964 197.825 73.5519 197.204 73.6296C197.204 73.6296 197.204 73.6296 197.204 73.7074L198.757 81.5602C199.456 86.6917 196.583 91.3567 191.379 92.1342C186.175 92.9117 182.136 88.9464 181.359 83.7372L176.466 51.3153Z" fill="#FFBE9D"/>
<path d="M201.709 51.082C201.631 51.2375 200.699 50.771 199.534 50.9265C198.369 51.082 197.592 51.7818 197.437 51.704C197.282 51.6263 197.437 51.393 197.825 51.082C198.291 50.6933 198.835 50.3823 199.456 50.3045C200.078 50.2268 200.699 50.3045 201.243 50.6155C201.553 50.771 201.786 51.0043 201.709 51.082Z" fill="#263238"/>
<path d="M191.223 53.1035C191.146 53.259 190.214 52.7925 189.049 52.948C187.883 53.1035 187.107 53.8033 186.951 53.7255C186.796 53.6478 186.951 53.4145 187.34 53.1035C187.806 52.7148 188.35 52.4038 188.971 52.326C189.592 52.2483 190.214 52.326 190.757 52.637C191.146 52.7925 191.301 53.0258 191.223 53.1035Z" fill="#263238"/>
<path d="M195.573 59.8678C196.194 59.5568 196.738 59.4013 197.437 59.2458C197.748 59.168 197.981 59.0903 198.058 58.857C198.058 58.546 197.903 58.235 197.748 58.0018L196.505 55.9025C194.796 52.8703 193.553 50.3045 193.709 50.3045C193.864 50.3045 195.262 52.637 196.971 55.6693L198.136 57.8463C198.369 58.1573 198.447 58.546 198.447 59.0126C198.369 59.2458 198.214 59.4013 198.058 59.5568C197.903 59.6346 197.748 59.6346 197.592 59.7123C196.816 59.7123 196.194 59.7901 195.573 59.8678Z" fill="#263238"/>
<path d="M197.204 73.6296C197.204 73.6296 192.777 74.6404 186.641 72.0746C186.641 72.0746 189.282 77.7504 197.592 75.7289L197.204 73.6296Z" fill="#EB996E"/>
<path d="M195.495 62.7446C194.951 62.2781 194.175 62.0448 193.476 62.2003C192.932 62.3558 192.544 62.6668 192.233 63.1333C192 63.5998 192 64.1441 192.311 64.5328C192.777 64.9216 193.398 64.9216 193.864 64.6883C194.408 64.3773 194.874 64.0663 195.184 63.5998C195.34 63.5221 195.417 63.3666 195.495 63.2111C195.65 63.0556 195.65 62.9001 195.495 62.7446Z" fill="#EB996E"/>
<path d="M192.233 61.1118C192.388 61.1118 192.621 62.3558 193.786 63.0556C194.951 63.7553 196.272 63.4443 196.35 63.6776C196.427 63.9108 196.117 63.9886 195.495 64.0663C194.796 64.1441 194.019 64.0663 193.398 63.6776C192.777 63.2888 192.388 62.6668 192.155 61.9671C192.078 61.5006 192.155 61.1896 192.233 61.1118Z" fill="#263238"/>
<path d="M190.602 49.838C190.524 50.149 189.359 50.149 188.039 50.5378C186.718 50.9265 185.631 51.4708 185.398 51.1598C185.32 51.0043 185.476 50.6933 185.864 50.3823C186.951 49.4493 188.427 49.0605 189.825 49.3715C190.369 49.4493 190.68 49.6825 190.602 49.838Z" fill="#8816AD"/>
<path d="M200.699 47.8942C200.544 48.2052 199.689 48.0497 198.757 48.1275C197.825 48.283 197.049 48.594 196.816 48.283C196.738 48.1275 196.816 47.8942 197.126 47.5832C197.592 47.1945 198.136 46.9612 198.68 46.9612C199.223 46.8835 199.845 46.9612 200.311 47.2722C200.621 47.5055 200.777 47.7387 200.699 47.8942Z" fill="#8816AD"/>
<path d="M198.447 52.5593C198.369 53.1035 198.757 53.7255 199.301 53.8033C199.845 53.9588 200.388 53.57 200.544 53.0258C200.621 52.4815 200.233 51.9373 199.689 51.7818C199.146 51.6263 198.524 51.9373 198.447 52.5593Z" fill="#263238"/>
<path d="M188.039 54.5808C187.961 55.125 188.35 55.6693 188.893 55.8248C189.437 55.9803 189.981 55.5915 190.136 55.0473C190.214 54.503 189.825 53.881 189.282 53.8033C188.738 53.6478 188.117 54.0365 188.039 54.5808Z" fill="#263238"/>
<path d="M177.243 83.9704L198.369 79.6164L202.951 79.4609L202.641 93.456C202.641 93.456 191.068 97.0325 190.602 97.2657C190.136 97.499 182.602 97.2657 182.602 97.2657L177.243 83.9704Z" fill="#FFBE9D"/>
<path d="M185.553 39.6527C182.99 42.7627 182.291 47.039 183.689 50.771C184.699 53.259 186.563 55.5138 186.408 58.235C186.175 61.5006 182.835 64.1441 182.99 67.4096C183.223 71.1416 187.961 73.4741 187.961 77.2061C187.961 80.9382 185.631 82.4154 181.282 83.2707C178.485 83.8149 176.854 80.2384 175.456 77.7504C174.058 75.2624 173.592 72.3079 173.282 69.4311C172.816 64.6883 172.738 59.8678 173.049 55.125C173.359 51.2375 173.903 47.35 175.845 44.0067C177.942 40.5857 181.359 38.1754 185.32 37.3979" fill="#8816AD"/>
<path d="M204.427 46.5725C203.029 48.7495 198.524 47.4277 195.806 45.9505C192.854 47.8165 188.971 47.039 186.951 44.1622C185.398 46.1837 182.214 45.484 181.049 43.2292C179.883 40.9745 180.583 37.9422 182.136 35.9207C183.767 34.0547 185.942 32.8884 188.35 32.5774C193.942 31.4889 199.689 33.8214 202.951 38.5642C204.427 40.819 205.282 43.8512 204.427 46.5725Z" fill="#8816AD"/>
<path d="M118.835 98.2765L114.252 88.8687L112.078 84.1259C111.534 82.9597 112.311 82.4154 113.01 83.1152C113.243 83.4262 116.194 87.0804 116.194 87.0804L113.087 80.4717C112.078 78.3724 113.553 78.3724 114.019 79.0722C114.563 79.7719 118.291 85.9919 118.291 85.9919C114.33 77.7504 114.951 76.8951 115.573 76.6619C116.194 76.4286 119.689 83.8927 119.689 83.8927C120.078 82.8819 120.621 81.9489 121.32 81.2492C123.107 79.3831 126.835 80.1607 127.223 81.1714C127.612 82.1822 126.369 82.6487 126.369 82.6487C124.816 81.8712 122.874 82.4932 122.097 84.1259C121.709 84.8257 121.631 85.6809 121.942 86.4584C122.718 88.8687 125.748 87.9357 125.825 86.1474C125.981 82.1044 127.534 83.1152 127.534 83.1152L127.845 91.9787L130.097 96.0217L147.65 119.269L152.854 110.95L166.136 124.012L157.126 134.119C152.621 139.329 144.777 139.795 139.573 135.286C138.485 134.353 137.553 133.186 136.854 131.865L118.835 98.2765Z" fill="#FFBE9D"/>
<path d="M248.155 81.6379C231.456 80.7049 204.427 78.5279 202.33 79.2276C202.33 79.2276 204.194 91.6677 192.854 93.456C181.437 95.2442 177.32 83.9704 177.32 83.9704C177.32 83.9704 165.67 87.3137 161.32 94.4667C156.971 101.62 151.689 109.628 151.689 109.628L167.301 125.023L171.65 120.202L174.835 130.698L172.816 141.039L212.194 142.905L214.913 97.6545L248.155 94.9332V81.6379Z" fill="#455A64"/>
<path d="M167.301 105.352C167.379 105.352 169.165 110.872 171.262 117.714C173.359 124.556 174.913 130.154 174.757 130.232C174.602 130.31 172.893 124.712 170.796 117.87C168.699 111.028 167.223 105.352 167.301 105.352Z" fill="#263238"/>
<path d="M222.524 87.7802C222.602 87.8579 219.961 89.413 217.786 92.4452C215.612 95.4775 214.757 98.3543 214.602 98.2765C214.68 97.6545 214.835 96.9547 215.068 96.3327C215.612 94.8555 216.388 93.456 217.398 92.1342C218.33 90.8902 219.495 89.724 220.816 88.791C221.282 88.3245 221.825 88.0135 222.524 87.7802Z" fill="#263238"/>
<path d="M185.398 114.138V113.982C185.398 113.904 185.476 113.827 185.553 113.827C185.631 113.827 185.786 113.827 185.786 113.904L185.864 113.982C186.097 114.215 186.485 114.371 186.874 114.371C187.107 114.293 187.34 114.138 187.495 113.904C187.65 113.671 187.728 113.36 187.65 113.127C187.573 112.894 187.495 112.738 187.34 112.583C187.184 112.427 186.951 112.349 186.718 112.272C186.408 112.194 186.252 112.116 186.175 112.116C186.019 112.038 185.942 112.038 185.864 111.961C185.631 111.805 185.476 111.572 185.398 111.261V111.105C185.32 110.794 185.476 110.483 185.631 110.172C185.786 109.939 186.097 109.706 186.408 109.628C186.563 109.628 186.718 109.628 186.796 109.628C187.107 109.628 187.34 109.784 187.573 110.017C187.573 110.095 187.65 110.095 187.65 110.172C187.65 110.25 187.65 110.25 187.65 110.328C187.65 110.406 187.573 110.483 187.495 110.483C187.417 110.483 187.34 110.483 187.34 110.483C187.107 110.328 186.874 110.172 186.563 110.25C186.33 110.328 186.175 110.406 186.097 110.561C185.942 110.717 185.942 110.95 185.942 111.183C185.942 111.339 186.019 111.416 186.175 111.572C186.33 111.727 186.563 111.805 186.718 111.883C186.951 111.961 187.184 112.038 187.34 112.116C187.806 112.272 188.117 112.66 188.194 113.127C188.194 113.205 188.194 113.36 188.194 113.438C188.194 113.827 188.039 114.138 187.806 114.371C187.573 114.682 187.262 114.837 186.951 114.915C186.718 114.993 186.485 114.915 186.252 114.837C185.942 114.682 185.631 114.449 185.398 114.138Z" fill="white"/>
<path d="M192.699 113.282C192.699 113.438 192.621 113.516 192.544 113.593C192.466 113.593 192.466 113.593 192.388 113.593C192.311 113.516 192.233 113.438 192.233 113.36C192.233 113.282 192.155 112.427 192 110.639C191.689 111.805 191.456 112.738 191.301 113.438C191.301 113.593 191.223 113.671 191.223 113.671C191.223 113.749 191.146 113.904 190.99 113.904H190.913C190.835 113.904 190.68 113.827 190.68 113.749L189.515 111.105C189.592 112.116 189.67 113.049 189.67 113.904C189.67 114.06 189.592 114.215 189.437 114.215C189.359 114.215 189.359 114.215 189.282 114.215C189.204 114.138 189.126 114.06 189.126 113.982C189.126 113.982 189.049 112.738 188.816 110.406C188.738 109.784 188.738 109.473 188.738 109.395V109.317C188.738 109.239 188.816 109.162 188.971 109.162H189.049C189.126 109.162 189.204 109.162 189.204 109.239L190.058 111.261L190.757 112.816L191.689 108.695V108.617C191.689 108.54 191.767 108.462 191.922 108.462C192 108.462 192 108.462 192.078 108.462C192.155 108.462 192.233 108.54 192.233 108.617C192.233 108.695 192.233 108.773 192.233 108.851C192.544 111.494 192.699 112.971 192.699 113.282Z" fill="white"/>
<path d="M194.485 112.894C194.485 113.049 194.408 113.205 194.252 113.205C194.175 113.205 194.175 113.205 194.097 113.205C194.019 113.127 193.942 113.049 193.942 112.971L193.631 108.384V108.306C193.631 108.229 193.709 108.151 193.864 108.073C193.942 108.073 193.942 108.073 194.019 108.073C194.097 108.073 194.175 108.151 194.175 108.229C194.33 111.261 194.485 112.816 194.485 112.894Z" fill="white"/>
<path d="M198.214 112.349L196.039 112.816C195.961 112.816 195.961 112.816 195.883 112.816C195.806 112.738 195.728 112.66 195.728 112.583C195.728 112.505 195.65 110.95 195.417 107.995C195.107 103.564 195.417 107.918 195.417 107.918C195.417 107.84 195.495 107.762 195.65 107.684H195.806C195.883 107.684 195.961 107.762 195.961 107.918C195.961 108.151 196.039 108.54 196.039 109.162C196.194 111.105 196.272 112.116 196.272 112.272L198.136 111.883C198.214 111.883 198.214 111.883 198.291 111.883C198.369 111.883 198.524 111.961 198.524 112.116C198.524 112.272 198.369 112.427 198.214 112.349Z" fill="white"/>
<path d="M198.913 106.985L201.01 106.518C201.087 106.518 201.087 106.518 201.165 106.518C201.32 106.518 201.398 106.596 201.398 106.751V106.829C201.398 106.907 201.32 107.062 201.165 107.062L199.301 107.451L199.456 109.239L200.777 108.928H200.932C201.01 108.928 201.087 109.006 201.165 109.162V109.239C201.165 109.317 201.087 109.473 200.932 109.473L199.534 109.784L199.689 111.494L201.553 111.105C201.631 111.105 201.631 111.105 201.709 111.105C201.786 111.105 201.942 111.183 201.942 111.339V111.416C201.942 111.572 201.864 111.65 201.709 111.65L199.534 112.116C199.456 112.116 199.456 112.116 199.379 112.116C199.301 112.038 199.223 111.961 199.223 111.883C199.223 111.883 199.068 110.328 198.835 107.296V107.218C198.757 107.14 198.835 106.985 198.913 106.985Z" fill="white"/>
<path d="M205.049 105.741C205.126 105.741 205.126 105.741 205.204 105.741C205.282 105.741 205.359 105.818 205.359 105.896C205.592 108.773 205.748 110.328 205.748 110.561C205.748 111.028 205.67 111.416 205.515 111.883C205.282 112.427 204.816 112.816 204.194 112.894C203.573 112.971 202.951 112.738 202.563 112.349C202.563 112.349 202.485 112.272 202.485 112.194C202.485 112.116 202.485 112.116 202.485 112.038C202.485 111.961 202.563 111.883 202.641 111.883C202.718 111.883 202.796 111.883 202.874 111.961C203.184 112.272 203.65 112.427 204.117 112.349C204.427 112.272 204.738 112.038 204.893 111.727C205.126 111.261 205.204 110.717 205.049 110.25C204.971 110.406 204.893 110.561 204.816 110.639C204.66 110.872 204.35 111.028 204.117 111.028H203.961C203.573 111.028 203.262 110.872 203.029 110.639C202.718 110.25 202.485 109.784 202.33 109.239C202.252 109.006 202.252 108.695 202.175 108.384C202.097 107.918 202.097 107.296 202.097 106.44V106.363C202.097 106.285 202.175 106.129 202.252 106.129C202.33 106.129 202.33 106.129 202.408 106.129C202.485 106.129 202.563 106.207 202.563 106.285C202.641 106.596 202.641 106.985 202.641 107.296C202.641 107.84 202.718 108.306 202.796 108.851C202.874 109.239 203.029 109.628 203.262 110.017C203.417 110.328 203.728 110.483 204.039 110.406H204.117C204.35 110.25 204.583 110.017 204.66 109.706C204.816 109.317 204.971 108.851 204.971 108.384L204.816 105.818V105.741C204.893 105.818 204.971 105.741 205.049 105.741Z" fill="white"/>
<path d="M187.34 75.2624C188.816 77.2839 188.272 80.0829 187.262 82.4154C186.252 84.7479 184.932 87.0027 184.932 89.4907C184.932 91.8232 186.097 94.0002 187.029 96.1772C187.961 98.3542 188.583 100.92 187.495 103.019C186.252 105.274 183.301 106.285 182.524 108.773C181.515 111.65 184.078 115.071 182.602 117.714C181.592 119.58 178.951 120.047 177.087 119.036C175.301 117.947 174.136 116.004 173.903 113.904C173.748 111.805 173.981 109.706 174.524 107.684C175.146 104.73 175.845 101.387 174.058 98.8985C173.049 97.4212 171.262 96.566 170.641 94.8555C169.942 92.834 171.262 90.7347 172.816 89.2575C174.369 87.7802 176.078 86.3807 176.699 84.3592C177.087 82.8042 177.01 81.1714 176.466 79.6164C175.922 78.0614 175.689 76.5064 175.689 74.8736C175.767 73.2409 176.699 71.6081 178.252 71.1416C180.427 70.4419 182.447 72.3079 184 74.0184" fill="#8816AD"/>
<path d="M167.301 150.369C167.301 150.913 192.466 150.369 192.466 150.369L193.476 144.227L173.359 138.162C173.359 138.162 167.612 145.238 167.301 150.369Z" fill="#8816AD"/>
<path d="M193.476 144.227L212.427 139.873C212.427 139.873 217.553 148.659 216.544 156.978L192.544 150.369L193.476 144.227Z" fill="#8816AD"/>
<path d="M195.883 149.203C199.379 151.069 201.476 154.801 201.32 158.766C201.243 160.01 200.932 161.177 201.01 162.421C200.932 163.665 201.476 164.909 202.408 165.686C203.417 166.464 205.126 166.697 205.282 167.941C205.282 168.485 205.049 169.029 204.66 169.418C203.573 170.818 201.709 171.906 200 171.44C198.058 170.895 197.204 168.796 196.66 166.852C195.107 160.943 194.951 154.723 194.796 148.581" fill="#8816AD"/>
<path d="M196.35 149.514C199.689 151.38 201.631 155.034 201.32 158.844C201.243 160.088 200.932 161.254 201.01 162.498C200.932 163.742 201.476 164.986 202.408 165.764C203.417 166.541 205.126 166.775 205.282 168.019C205.282 168.563 205.049 169.107 204.66 169.496C203.573 170.895 201.709 171.984 200 171.517C198.058 170.973 197.204 168.874 196.66 166.93C195.107 161.021 195.65 156.745 195.495 150.603" fill="black"/>
<path d="M190.913 149.125C187.184 157.367 186.641 166.697 189.359 175.327C189.592 176.338 190.136 177.271 190.913 177.971C192.311 178.981 194.175 178.359 195.806 177.815C197.825 177.038 200.155 176.105 200.854 174.005C201.243 172.839 201.243 171.595 200.854 170.507C200.155 168.252 198.68 166.23 198.136 163.976C197.67 161.876 198.058 159.699 197.981 157.6C197.748 153.79 195.961 150.292 192.932 147.959" fill="#8816AD"/>
<path d="M190.369 149.825C190.524 150.758 191.146 151.536 191.922 151.924C192.777 152.391 193.709 152.313 194.563 151.847C195.34 151.38 195.806 150.447 195.65 149.514C194.951 150.214 193.942 150.603 192.932 150.603C191.922 150.603 190.99 150.214 190.214 149.514" fill="black"/>
<path d="M196.583 146.559C195.961 144.849 193.864 143.216 192.078 143.527C190.99 143.527 190.058 144.071 189.515 145.004C188.505 147.182 189.515 149.825 191.767 150.758C192.699 151.147 193.709 151.225 194.641 150.991C196.35 150.292 197.204 148.348 196.583 146.559Z" fill="#8816AD"/>
<path d="M189.903 149.592C190.214 149.747 190.447 149.903 190.757 150.058C191.456 150.603 192.311 150.914 193.165 150.991C193.786 151.069 194.33 150.991 194.874 150.68C195.495 150.369 195.883 149.825 196.117 149.203C196.66 147.726 196.35 146.093 195.34 144.849C194.33 143.683 192.699 143.138 191.146 143.683C189.903 144.071 189.049 145.16 188.816 146.404C188.66 147.259 188.893 148.115 189.359 148.892C189.592 149.125 189.748 149.359 189.981 149.592C189.981 149.592 189.903 149.592 189.748 149.436C189.515 149.281 189.359 149.125 189.204 148.892C188.66 148.192 188.35 147.259 188.505 146.326C188.738 144.927 189.67 143.76 190.99 143.294C192.621 142.75 194.485 143.216 195.573 144.538C196.66 145.86 196.971 147.648 196.427 149.281C196.194 149.98 195.65 150.603 194.951 150.914C194.33 151.147 193.709 151.302 193.087 151.147C192.155 150.991 191.301 150.68 190.602 150.058C190.369 150.058 190.136 149.825 189.903 149.592Z" fill="#263238"/>
<path d="M193.01 143.449C193.01 143.527 192.699 143.76 192.233 144.305C191.612 145.004 191.223 145.937 191.146 146.87C191.068 147.803 191.146 148.736 191.534 149.669C191.845 150.369 192.155 150.68 192.078 150.758C192 150.836 191.689 150.525 191.301 149.825C190.835 148.97 190.602 147.881 190.757 146.87C190.913 145.86 191.379 144.927 192.078 144.149C192.466 143.605 192.932 143.372 193.01 143.449Z" fill="#263238"/>
<path d="M200.699 169.107C200.699 169.107 200.621 169.263 200.466 169.574C200.233 170.04 199.922 170.429 199.689 170.818C198.68 172.139 197.437 173.228 196.039 174.083C194.641 174.938 193.01 175.483 191.379 175.716C190.913 175.794 190.369 175.794 189.903 175.794C189.515 175.794 189.359 175.794 189.359 175.716C189.359 175.638 190.136 175.638 191.301 175.405C194.485 174.783 197.359 173.072 199.456 170.662C200.233 169.729 200.621 169.029 200.699 169.107Z" fill="#263238"/>
<path d="M194.408 178.282C194.408 178.359 193.553 178.048 193.01 177.115C192.621 176.571 192.544 175.949 192.777 175.327C192.854 175.327 192.932 176.105 193.398 176.96C193.864 177.815 194.408 178.204 194.408 178.282Z" fill="#263238"/>
<path d="M198.058 176.027C198.058 176.105 197.204 175.949 196.66 175.094C196.117 174.239 196.272 173.461 196.35 173.461C196.427 173.461 196.505 174.161 196.971 174.861C197.437 175.56 198.136 175.949 198.058 176.027Z" fill="#263238"/>
<path d="M200.233 175.172C200.155 174.55 200 174.005 199.767 173.461C199.379 172.528 198.913 171.828 199.068 171.751C199.612 172.139 200 172.684 200.155 173.306C200.311 173.694 200.466 174.161 200.388 174.627C200.311 175.016 200.233 175.249 200.233 175.172Z" fill="#263238"/>
<path d="M195.417 169.107C195.262 168.952 195.184 168.718 195.029 168.485C194.718 167.941 194.485 167.319 194.252 166.697C192.777 162.732 192.155 158.455 192.621 154.257C192.699 153.479 192.777 152.78 192.932 152.391C192.932 152.158 193.01 151.924 193.087 151.691C193.165 151.691 193.01 152.702 192.932 154.257C192.854 156.356 192.932 158.378 193.165 160.477C193.476 162.576 193.942 164.598 194.563 166.541C195.107 168.174 195.495 169.107 195.417 169.107Z" fill="#263238"/>
<path d="M192.932 152.391C191.379 156.823 191.379 161.643 192.932 166.075C193.01 166.308 193.087 166.541 193.32 166.619C193.631 166.697 193.942 166.541 193.942 166.23C194.019 165.919 194.019 165.608 193.864 165.375C192.932 161.41 192.233 156.589 192.932 152.546" fill="black"/>
<path d="M177.398 145.16C177.942 145.004 178.485 144.927 179.029 145.004C180.35 144.927 181.67 145.004 182.99 145.16C184.311 145.315 185.631 145.626 186.874 146.015C187.417 146.171 187.961 146.326 188.427 146.637C188.427 146.715 186.019 146.015 182.99 145.626C179.961 145.238 177.398 145.238 177.398 145.16Z" fill="#263238"/>
<path d="M204.505 145.315C204.505 145.393 202.718 145.626 200.466 146.015C198.291 146.482 196.505 147.026 196.505 146.87C197.748 146.248 199.068 145.782 200.388 145.626C201.786 145.315 203.184 145.16 204.505 145.315Z" fill="#263238"/>
<path d="M212.272 150.758C211.495 150.525 210.718 150.292 210.019 149.98C208.233 149.358 206.369 148.814 204.427 148.348C202.563 147.959 200.621 147.648 198.68 147.415C197.903 147.415 197.049 147.259 196.272 147.182C197.049 147.104 197.903 147.104 198.68 147.182C200.621 147.259 202.563 147.57 204.505 147.959C206.447 148.348 208.311 148.97 210.097 149.67C210.874 150.058 211.573 150.369 212.272 150.758Z" fill="#263238"/>
<path d="M205.204 141.583C205.592 148.115 209.32 153.091 214.913 156.589L216.544 156.978C216.699 156.745 216.466 156.045 216.388 155.812C215.223 152.546 213.825 149.359 212.194 146.248C211.417 144.849 211.107 141.506 209.942 140.417L205.204 141.583Z" fill="black"/>
<path d="M190.913 179.292C190.99 179.292 190.214 185.046 189.049 192.199C187.883 199.352 186.951 205.028 186.796 205.028C186.641 205.028 187.495 199.274 188.66 192.121C189.825 184.968 190.835 179.215 190.913 179.292Z" fill="#455A64"/>
<path d="M179.417 144.693C179.34 144.693 179.184 144.538 179.107 144.149C178.951 143.605 178.874 143.061 179.029 142.516C179.184 141.972 179.417 141.506 179.806 141.039C180.117 140.728 180.35 140.65 180.35 140.65C179.417 141.739 179.107 143.294 179.417 144.693Z" fill="#FAFAFA"/>
<path d="M181.282 150.447C181.282 150.447 180.971 150.292 180.738 149.903C180.039 148.736 180.35 147.259 181.437 146.404C181.825 146.093 182.136 146.093 182.136 146.093C182.136 146.093 181.903 146.326 181.592 146.637C180.738 147.415 180.505 148.659 180.971 149.747C181.204 150.136 181.359 150.369 181.282 150.447Z" fill="#FAFAFA"/>
<path d="M187.417 150.369C187.417 150.447 187.184 150.292 186.874 150.058C186.563 149.67 186.33 149.125 186.33 148.581C186.33 148.037 186.485 147.57 186.796 147.104C187.029 146.793 187.262 146.715 187.34 146.715C187.417 146.715 187.262 146.948 187.029 147.259C186.641 148.037 186.641 149.048 187.107 149.825C187.34 150.136 187.495 150.292 187.417 150.369Z" fill="#FAFAFA"/>
<path d="M172.117 150.525C171.883 149.981 171.806 149.359 171.806 148.737C171.65 145.782 172.583 142.827 174.524 140.495C174.913 140.028 175.301 139.562 175.845 139.251C175.922 139.329 175.379 139.795 174.757 140.728C173.903 141.894 173.282 143.216 172.816 144.538C172.35 145.937 172.117 147.337 172.117 148.737C172.117 149.825 172.272 150.525 172.117 150.525Z" fill="#FAFAFA"/>
<path d="M184.699 146.482C184.699 146.482 184.466 146.326 184.233 145.937C183.767 144.849 184.078 143.605 184.932 142.827C185.32 142.594 185.553 142.516 185.553 142.516C185.553 142.516 185.398 142.672 185.087 142.983C184.777 143.372 184.544 143.838 184.388 144.305C184.311 144.771 184.311 145.315 184.466 145.782C184.699 146.171 184.777 146.404 184.699 146.482Z" fill="#FAFAFA"/>
<path d="M202.175 145.16C202.097 145.16 202.175 144.46 202.019 143.683C201.942 142.905 201.631 142.283 201.709 142.283C201.786 142.283 202.252 142.75 202.408 143.683C202.563 144.538 202.33 145.16 202.175 145.16Z" fill="#FAFAFA"/>
<path d="M203.65 147.726C203.573 147.803 203.029 147.57 202.874 146.87C202.718 146.171 202.951 145.704 203.029 145.704C203.107 145.704 203.029 146.171 203.262 146.715C203.495 147.337 203.728 147.648 203.65 147.726Z" fill="#FAFAFA"/>
<path d="M206.291 154.179C206.136 154.179 206.68 152.935 206.524 151.458C206.369 149.98 205.748 148.892 205.825 148.814C206.524 149.514 206.835 150.447 206.913 151.458C207.068 152.391 206.835 153.402 206.291 154.179Z" fill="#FAFAFA"/>
<path d="M192.932 160.866C192.932 160.866 192.699 161.099 192.233 161.332C191.612 161.643 190.99 161.721 190.291 161.721C189.592 161.721 188.971 161.488 188.427 161.177C187.961 160.943 187.806 160.71 187.806 160.632C189.437 161.488 191.301 161.565 192.932 160.866Z" fill="#FAFAFA"/>
<path d="M197.515 156.9C196.738 156.667 195.883 156.589 195.107 156.667C194.33 156.823 193.553 157.134 192.854 157.522C192.854 157.522 192.932 157.211 193.32 156.9C194.33 156.123 195.65 155.967 196.816 156.434C197.282 156.667 197.515 156.9 197.515 156.9Z" fill="#FAFAFA"/>
<path d="M194.33 167.319C194.33 167.319 194.252 167.708 193.864 168.252C193.32 168.952 192.699 169.418 191.922 169.807C191.146 170.196 190.369 170.351 189.515 170.351C189.204 170.351 188.816 170.273 188.505 170.118C190.835 170.196 193.01 169.107 194.33 167.319Z" fill="#FAFAFA"/>
<path d="M198.369 164.909C198.369 165.064 197.282 164.831 196.117 165.22C195.417 165.453 194.718 165.764 194.019 166.153C195.107 164.831 196.816 164.364 198.369 164.909Z" fill="#FAFAFA"/>
<path d="M167.689 150.525C166.602 149.592 166.291 148.037 166.757 146.715C166.835 146.715 166.757 147.648 166.99 148.659C167.223 149.67 167.767 150.447 167.689 150.525Z" fill="#FAFAFA"/>
<path d="M294.68 110.872C293.981 110.095 293.592 109.162 293.515 108.073C293.437 107.062 293.282 106.052 292.971 105.041C292.816 104.652 292.583 104.341 292.35 104.108C292.039 103.875 291.65 103.797 291.262 103.952C290.874 104.186 290.641 104.574 290.641 104.963C290.718 106.44 290.874 107.84 291.029 109.317L294.68 110.872Z" fill="#FFBE9D"/>
<path d="M294.68 110.872C294.68 110.872 294.369 110.794 293.748 110.561C293.126 110.328 292.117 110.017 291.029 109.55H290.951V109.473C290.796 108.695 290.718 107.918 290.641 107.062C290.641 106.596 290.563 106.207 290.563 105.741C290.563 105.507 290.563 105.274 290.563 105.041C290.563 104.73 290.641 104.497 290.796 104.263C291.029 103.952 291.34 103.719 291.728 103.719C292.117 103.719 292.427 103.875 292.66 104.108C293.049 104.497 293.359 105.041 293.515 105.663C293.748 106.751 293.748 107.684 293.903 108.54C293.903 109.395 294.214 110.172 294.68 110.872L294.602 110.717C294.447 110.561 294.369 110.483 294.214 110.328C293.825 109.784 293.592 109.162 293.515 108.54C293.359 107.684 293.359 106.751 293.049 105.741C292.971 105.196 292.66 104.73 292.35 104.341C292.039 104.03 291.573 103.952 291.262 104.263C291.184 104.341 291.107 104.419 291.107 104.497C290.951 104.885 290.874 105.274 290.951 105.741L291.029 107.062C291.107 107.918 291.184 108.695 291.262 109.395L291.184 109.317C292.194 109.784 293.049 110.172 293.67 110.483L294.68 110.872Z" fill="#EB996E"/>
<path d="M250.563 170.04C275.443 170.04 295.612 149.85 295.612 124.945C295.612 100.039 275.443 79.8497 250.563 79.8497C225.683 79.8497 205.515 100.039 205.515 124.945C205.515 149.85 225.683 170.04 250.563 170.04Z" fill="#8816AD"/>
<path d="M292.117 120.435C292.66 120.435 293.282 121.602 293.67 123.856C294.214 127.122 294.136 130.387 293.515 133.653C293.359 134.664 293.126 135.752 292.816 136.841C292.505 137.929 292.194 139.095 291.806 140.262C290.951 142.75 289.786 145.16 288.466 147.415C282.33 158.222 271.612 165.764 259.417 167.941C256.854 168.407 254.214 168.641 251.573 168.641C249.32 168.641 246.99 168.407 244.738 168.019C241.476 167.474 238.369 166.386 235.495 164.831C233.476 163.665 232.544 162.654 232.777 162.187C233.243 161.021 237.903 162.343 245.282 162.343C247.301 162.343 249.243 162.187 251.262 161.954C253.515 161.643 255.689 161.254 257.864 160.632C267.806 158.144 276.505 152.002 282.252 143.449C283.495 141.583 284.66 139.64 285.67 137.618C286.136 136.685 286.602 135.752 286.99 134.819C287.379 133.886 287.767 133.031 288.078 132.176C290.485 125.334 290.874 120.513 292.117 120.435Z" fill="black"/>
<path d="M248.544 83.3484C248.544 83.5039 247.534 83.5817 245.825 83.6594C243.34 83.8149 240.932 84.2037 238.524 84.8257C236.893 85.2144 235.262 85.7587 233.709 86.3807C231.922 87.0804 230.136 87.9357 228.505 88.8687C220.738 93.2227 214.835 100.298 211.883 108.695C211.262 110.483 210.718 112.349 210.33 114.293C210.019 115.926 209.786 117.636 209.631 119.269C209.476 121.757 209.476 124.167 209.786 126.655C209.942 128.366 210.097 129.377 209.942 129.377C209.786 129.377 209.398 128.521 209.01 126.733C208.466 124.245 208.155 121.757 208.233 119.191C208.233 117.403 208.388 115.693 208.699 113.904C209.01 111.883 209.476 109.939 210.097 107.995C212.971 99.054 219.262 91.5122 227.573 87.1582C229.359 86.2252 231.223 85.3699 233.087 84.7479C234.796 84.2037 236.505 83.7372 238.214 83.3484C240.699 82.8819 243.262 82.6487 245.748 82.8042C247.612 82.9597 248.544 83.1929 248.544 83.3484Z" fill="white"/>
<path d="M213.515 140.339C213.049 140.65 211.728 139.484 211.029 137.463C210.33 135.441 210.641 133.731 211.184 133.653C211.728 133.575 212.35 135.052 212.893 136.763C213.592 138.551 213.981 140.028 213.515 140.339Z" fill="white"/>
<path d="M264.078 119.347C263.922 119.813 263.767 120.202 263.456 120.513C262.835 121.524 261.981 122.457 261.126 123.312C255.068 129.143 245.67 129.61 238.99 124.401C238.058 123.623 237.204 122.768 236.427 121.835C236.117 121.524 235.883 121.135 235.728 120.746C235.883 120.669 236.893 122.224 239.379 123.934C240.777 124.945 242.33 125.722 244.039 126.267C248.078 127.666 252.505 127.433 256.388 125.645C257.942 124.945 259.418 124.012 260.738 122.846C262.99 120.98 263.922 119.269 264.078 119.347Z" fill="white"/>
<path d="M278.214 113.049C278.058 113.049 278.058 111.65 276.816 109.939C276.116 108.928 275.262 108.073 274.175 107.451C271.612 105.818 268.272 106.052 265.942 108.073C265.01 108.851 264.233 109.861 263.689 110.95C262.757 112.894 262.99 114.293 262.835 114.215C262.68 114.215 262.68 113.904 262.68 113.282C262.68 112.427 262.835 111.494 263.146 110.717C263.612 109.473 264.388 108.384 265.398 107.529C267.884 105.196 271.689 104.963 274.485 106.829C275.573 107.529 276.505 108.54 277.204 109.628C277.67 110.406 277.981 111.261 278.058 112.116C278.369 112.66 278.291 113.049 278.214 113.049Z" fill="white"/>
<path d="M235.184 114.526C235.029 114.526 235.029 113.127 233.864 111.416C233.165 110.406 232.311 109.55 231.223 108.928C228.66 107.296 225.32 107.529 223.068 109.55C222.136 110.328 221.359 111.339 220.816 112.427C219.883 114.371 220.117 115.693 219.961 115.693C219.806 115.693 219.806 115.382 219.806 114.76C219.806 113.904 219.961 112.971 220.272 112.194C220.738 110.95 221.515 109.861 222.524 109.006C225.01 106.674 228.738 106.44 231.612 108.306C232.699 109.006 233.631 110.017 234.33 111.105C234.796 111.883 235.107 112.738 235.184 113.593C235.262 114.138 235.184 114.526 235.184 114.526Z" fill="white"/>
<path d="M295.767 107.607C294.214 109.395 292.583 111.028 291.184 112.894C290.796 113.36 290.485 113.982 290.718 114.526C290.951 114.915 291.34 115.071 291.806 114.993C292.194 114.915 292.583 114.76 292.893 114.526C294.602 113.282 295.767 111.416 296.854 109.628C297.243 109.162 297.398 108.54 297.243 107.918C297.01 107.451 296.388 107.218 295.922 107.529C295.845 107.529 295.767 107.607 295.767 107.607Z" fill="#FFBE9D"/>
<path d="M295.767 107.607C295.767 107.607 295.922 107.296 296.544 107.296C296.932 107.296 297.243 107.529 297.398 107.918C297.553 108.384 297.476 108.851 297.243 109.239C296.699 110.25 296.155 111.183 295.456 112.116C294.68 113.282 293.67 114.293 292.427 114.993C292.039 115.148 291.65 115.226 291.262 115.148C290.874 114.993 290.563 114.682 290.485 114.215C290.485 113.827 290.563 113.438 290.796 113.127C290.951 112.894 291.184 112.583 291.417 112.349C292.194 111.339 292.971 110.483 293.592 109.784L295.146 108.151C295.301 107.995 295.534 107.84 295.767 107.607C295.612 107.84 295.456 108.073 295.301 108.306C294.99 108.695 294.447 109.317 293.825 110.017C293.204 110.717 292.427 111.572 291.728 112.583C291.34 113.049 290.874 113.593 290.951 114.215C290.951 114.526 291.184 114.682 291.495 114.76C291.806 114.837 292.117 114.837 292.427 114.682C293.592 113.982 294.524 113.049 295.301 111.961C296 110.95 296.621 109.939 297.087 109.162C297.32 108.851 297.398 108.384 297.243 107.995C297.165 107.684 296.854 107.529 296.621 107.451C296.233 107.451 296 107.529 295.767 107.607Z" fill="#EB996E"/>
<path d="M296.777 110.328C295.379 112.194 293.825 113.904 292.583 115.926C292.272 116.392 291.961 117.092 292.272 117.559C292.505 117.87 292.971 118.025 293.359 117.947C293.748 117.87 294.136 117.636 294.447 117.403C296.078 116.081 297.087 114.138 298.097 112.272C298.485 111.805 298.563 111.105 298.408 110.561C298.097 110.095 297.553 109.939 297.087 110.172C296.932 110.25 296.854 110.25 296.777 110.328Z" fill="#FFBE9D"/>
<path d="M296.777 110.328C296.777 110.328 296.932 109.939 297.553 110.017C297.942 110.017 298.252 110.25 298.408 110.561C298.563 111.028 298.563 111.494 298.33 111.883C297.864 112.894 297.32 113.904 296.777 114.915C296.078 116.159 295.146 117.17 293.981 117.947C293.592 118.181 293.204 118.258 292.816 118.181C292.349 118.103 292.039 117.714 291.961 117.325C291.961 116.937 292.039 116.548 292.194 116.237C292.35 115.926 292.583 115.693 292.738 115.382C293.437 114.293 294.214 113.438 294.757 112.738C295.379 112.038 295.845 111.494 296.233 111.028C296.466 110.717 296.621 110.483 296.777 110.328C296.699 110.561 296.544 110.794 296.388 111.028C296.078 111.494 295.612 112.116 294.99 112.816C294.369 113.516 293.748 114.449 293.049 115.537C292.738 116.081 292.272 116.626 292.35 117.17C292.427 117.481 292.583 117.636 292.893 117.714C293.204 117.792 293.515 117.714 293.825 117.559C294.913 116.781 295.845 115.77 296.544 114.604C297.243 113.516 297.709 112.505 298.175 111.727C298.408 111.416 298.408 110.95 298.33 110.561C298.175 110.328 297.942 110.095 297.631 110.095C297.32 110.095 297.01 110.172 296.777 110.328Z" fill="#EB996E"/>
<path d="M297.709 113.982C296.621 115.382 295.456 116.781 294.524 118.258C294.291 118.647 294.058 119.114 294.291 119.502C294.447 119.736 294.835 119.891 295.146 119.813C295.456 119.736 295.767 119.58 296 119.347C297.165 118.258 298.097 116.859 298.796 115.382C299.107 114.993 299.184 114.526 299.029 114.06C298.796 113.671 298.33 113.593 297.942 113.827C297.786 113.904 297.786 113.904 297.709 113.982Z" fill="#FFBE9D"/>
<path d="M297.709 113.982C297.709 113.982 297.786 113.671 298.33 113.671C298.641 113.671 298.874 113.827 299.029 114.06C299.184 114.371 299.184 114.76 299.029 115.148C298.641 115.926 298.252 116.703 297.864 117.403C297.32 118.336 296.621 119.191 295.689 119.813C295.379 119.969 295.068 120.047 294.757 119.969C294.369 119.891 294.136 119.658 294.058 119.269C294.058 118.725 294.291 118.181 294.68 117.792C295.223 117.014 295.767 116.315 296.233 115.77C296.621 115.071 297.165 114.526 297.709 113.982C297.243 114.682 296.854 115.304 296.311 115.926C295.845 116.548 295.379 117.17 294.835 118.025C294.602 118.414 294.214 118.88 294.291 119.269C294.369 119.658 294.913 119.813 295.301 119.502C296.155 118.88 296.854 118.181 297.32 117.248C297.864 116.47 298.252 115.693 298.563 114.993C298.718 114.76 298.718 114.449 298.641 114.138C298.563 113.904 298.33 113.827 298.175 113.749C298.097 113.827 297.942 113.827 297.709 113.982Z" fill="#EB996E"/>
<path d="M56.932 285.266C50.7184 287.443 42.5631 285.499 37.2039 281.612C31.8447 277.724 28.0388 272.126 24.6214 266.451C23.1456 264.04 21.7476 261.475 21.2816 258.676C20.8155 255.877 21.5146 252.767 23.6893 250.901C27.0291 248.102 32.233 249.501 36.0388 251.678C48.0777 258.676 55.9223 271.193 56.932 285.266Z" fill="#2E725E"/>
<path d="M50.2524 300.194C46.5243 305.17 40.0777 307.347 33.8641 307.658C27.6505 307.969 21.5146 306.259 15.767 304.004C13.6699 303.227 11.3398 302.06 10.6408 299.961C10.1748 298.25 10.5631 296.462 11.7282 295.218C12.8932 293.974 14.2913 292.963 15.9223 292.341C21.5922 289.931 28.1942 289.853 34.1748 291.408C40.1553 292.963 45.3592 296.384 50.2524 300.194Z" fill="#2E725E"/>
<path d="M57.0097 258.442C51.8058 258.52 47.9223 254.011 45.5922 249.423C42.3301 242.97 41.2427 235.661 42.4854 228.508C42.9515 225.865 43.9612 222.988 46.2913 221.744C48.6214 220.5 51.8058 221.278 53.8252 223.144C55.8447 225.01 56.932 227.653 57.7087 230.219C60.5825 239.16 59.9612 249.501 57.0097 258.442Z" fill="#2E725E"/>
<path d="M74.0194 287.054C65.2427 272.049 63.767 253.622 68.9709 237.061C69.8252 234.34 71.3786 231.307 74.2524 231.074C77.3592 230.841 79.301 234.34 80.1553 237.372C83.1845 247.946 82.5631 259.142 81.8641 270.105C81.3981 276.869 79.1456 282.623 74.0194 287.054Z" fill="#2E725E"/>
<path d="M83.1845 293.275C86.5243 282.856 94.3689 274.537 104.621 270.571C106.951 269.716 109.903 269.172 111.689 270.96C113.476 272.748 112.854 275.625 111.767 277.88C109.981 281.456 107.107 284.255 104.233 286.977C101.592 289.465 98.8738 291.953 95.6116 293.43C92.3495 294.907 86.2136 295.218 83.1845 293.275Z" fill="#2E725E"/>
<path d="M28.5825 254.633C28.5825 254.633 28.6602 254.71 28.7379 254.788L29.2039 255.177L31.068 256.576L32.3884 257.587C32.8544 257.976 33.3981 258.365 33.9417 258.831C35.0291 259.764 36.3495 260.697 37.5922 261.941L39.6893 263.807C40.3883 264.507 41.0874 265.207 41.8641 265.984C43.4175 267.461 44.8155 269.172 46.4466 270.882C49.7864 274.77 52.8155 278.968 55.534 283.322C58.1748 287.676 60.5049 292.264 62.5243 297.007C63.3786 299.184 64.233 301.283 64.8544 303.304C65.165 304.315 65.5534 305.248 65.7864 306.181C66.0194 307.114 66.3301 308.047 66.5631 308.902C67.1068 310.613 67.4175 312.168 67.7281 313.567C67.8835 314.267 68.0388 314.889 68.1942 315.511C68.3495 316.133 68.3495 316.677 68.5049 317.144C68.6602 318.077 68.8155 318.854 68.8932 319.399L69.0485 320.021C69.0485 320.176 69.1262 320.254 69.1262 320.176C69.1262 320.098 69.1262 320.021 69.1262 319.943C69.1262 319.787 69.0485 319.554 69.0485 319.321C68.9709 318.777 68.8932 317.999 68.7379 317.066C68.6602 316.6 68.5825 315.978 68.5049 315.433C68.4272 314.889 68.2718 314.189 68.1165 313.49C67.8058 312.09 67.4951 310.457 67.0291 308.747C66.7961 307.892 66.5631 306.959 66.2524 306.026C65.9417 305.093 65.6311 304.082 65.3204 303.071C64.699 301.049 63.8447 298.95 62.9903 296.773C60.9709 292.03 58.6408 287.443 56 283.011C53.2816 278.657 50.1748 274.459 46.8349 270.571C45.2816 268.783 43.7282 267.073 42.2524 265.673C41.4757 264.896 40.7767 264.196 40.0777 263.496L37.9806 261.63C36.6602 260.386 35.3398 259.453 34.2524 258.52C33.7087 258.054 33.165 257.665 32.699 257.276L31.301 256.343L29.4369 255.021L28.9709 254.71L28.5825 254.633Z" fill="#263238"/>
<path d="M16.8544 296.307C17.0874 296.307 17.2427 296.229 17.4757 296.229C17.8641 296.151 18.4078 295.996 19.1845 295.918C21.2816 295.529 23.4563 295.296 25.5534 295.141C39.9223 294.285 53.8252 300.117 63.3786 310.924C64.7767 312.557 66.0971 314.189 67.3398 315.978C67.8058 316.6 68.1165 317.144 68.2718 317.455C68.3495 317.61 68.5049 317.766 68.6602 317.921C68.5825 317.766 68.5049 317.533 68.3495 317.377C68.1165 316.988 67.8835 316.522 67.4175 315.9C66.2524 314.112 64.932 312.323 63.534 310.691C54.0583 299.65 39.9223 293.819 25.4757 294.829C23.301 294.985 21.2039 295.296 19.1068 295.762C18.3301 295.918 17.7864 296.073 17.3981 296.151C17.2427 296.151 17.0097 296.229 16.8544 296.307Z" fill="#263238"/>
<path d="M49.3981 227.731C49.3981 227.809 49.3981 227.886 49.3981 227.964L49.5534 228.664L50.1748 231.23C50.7184 233.484 51.4951 236.672 52.4272 240.715C54.3689 248.724 57.1651 259.686 60.1165 271.893C61.5922 278.035 62.9126 283.867 64.0777 289.154C65.2427 294.441 66.1748 299.261 66.8738 303.304C67.2621 305.326 67.5728 307.192 67.8058 308.747C68.0388 310.302 68.2718 311.779 68.4272 312.868C68.5825 313.956 68.7379 314.889 68.8155 315.511C68.8932 315.822 68.8932 316.055 68.9709 316.211C68.9709 316.289 68.9709 316.366 69.0485 316.444C69.0485 316.366 69.0485 316.289 69.0485 316.211C69.0485 316.055 68.9709 315.822 68.9709 315.511C68.8932 314.889 68.8155 313.956 68.6602 312.868C68.5049 311.779 68.3495 310.302 68.0388 308.747C67.7282 307.192 67.4951 305.326 67.1845 303.304C66.4854 299.261 65.5534 294.441 64.466 289.076C63.3786 283.711 62.0583 277.88 60.5825 271.815C57.6311 259.609 54.7573 248.646 52.7379 240.637C51.7282 236.672 50.9515 233.484 50.3301 231.23L49.7087 228.664C49.6311 228.353 49.5534 228.197 49.5534 227.964C49.4757 227.809 49.4757 227.809 49.3981 227.731Z" fill="#263238"/>
<path d="M69.6699 315.278C69.6699 315.2 69.7476 315.122 69.7476 315.122C69.8252 314.967 69.8252 314.811 69.9029 314.578C69.9806 314.034 70.1359 313.334 70.3689 312.479C70.7573 310.691 71.2233 308.047 71.767 304.782C72.8544 298.251 74.2524 289.154 75.0291 279.124C75.4175 274.07 75.6505 269.25 75.7282 264.896C75.8058 260.542 75.7282 256.576 75.6505 253.233C75.6505 251.6 75.4951 250.045 75.4175 248.724C75.3398 247.402 75.2621 246.313 75.1845 245.38C75.1068 244.447 75.0291 243.747 75.0291 243.281C75.0291 243.048 74.9515 242.892 74.9515 242.737C74.9515 242.814 74.9515 243.048 74.9515 243.281C74.9515 243.825 75.0291 244.525 75.1068 245.38C75.1845 246.236 75.2621 247.402 75.2621 248.724C75.2621 250.045 75.4175 251.523 75.4175 253.155C75.4951 256.499 75.4951 260.386 75.4175 264.818C75.3398 269.25 75.1068 273.992 74.6408 279.046C73.7864 289.154 72.5437 298.173 71.4563 304.704C70.9126 307.969 70.5243 310.613 70.1359 312.479C69.9806 313.334 69.9029 314.034 69.7476 314.578C69.7476 314.811 69.6699 314.967 69.6699 315.122C69.6699 315.122 69.6699 315.2 69.6699 315.278Z" fill="#263238"/>
<path d="M68.9709 317.144C69.0485 316.988 69.1262 316.833 69.2039 316.6L69.8252 315.122L70.2136 314.034L70.7573 312.79C70.9903 312.323 71.1456 311.857 71.3786 311.313C71.6117 310.768 71.9223 310.302 72.1553 309.758L73.0874 308.047L74.1748 306.181C74.8738 304.859 75.8058 303.615 76.6602 302.216C78.7573 299.261 80.932 296.462 83.3398 293.741C85.7476 291.097 88.3107 288.532 90.9515 286.121C92.1942 285.033 93.3592 283.944 94.5243 283.089L96.1553 281.767L97.7087 280.601C98.7185 279.824 99.6505 279.202 100.505 278.657C101.359 278.113 102.058 277.647 102.68 277.258L104.078 276.403C104.233 276.325 104.388 276.169 104.544 276.092C104.388 276.169 104.233 276.247 104.078 276.325L102.68 277.102C102.058 277.413 101.359 277.88 100.505 278.424C99.6505 278.968 98.7185 279.59 97.7087 280.368L96.0777 281.534L94.3689 282.856C93.2039 283.711 92.0388 284.8 90.7185 285.888C88 288.298 85.4369 290.864 83.0291 293.508C80.6214 296.229 78.4466 299.106 76.3495 302.06C75.4951 303.46 74.5631 304.782 73.8641 306.103L72.7767 307.969L71.9223 309.758C71.6893 310.302 71.3786 310.846 71.1456 311.39L70.5243 312.868C70.3689 313.334 70.1359 313.723 69.9806 314.189L69.5922 315.278C69.3592 315.9 69.2039 316.444 69.0485 316.833C69.0485 316.833 69.0485 316.988 68.9709 317.144Z" fill="#263238"/>
<path d="M31.767 272.049C31.767 272.126 32.8544 272.126 34.5631 272.204C39.068 272.437 43.4951 273.293 47.6893 274.692C48.5437 275.003 49.4757 275.314 50.3301 275.547C50.0971 275.392 49.9417 275.314 49.7087 275.159C49.2427 274.925 48.6214 274.692 47.8447 274.381C43.6505 272.826 39.1456 271.971 34.6408 271.893C33.7864 271.893 33.0874 271.893 32.6214 271.893C32.3107 271.971 32.0777 272.049 31.767 272.049Z" fill="#263238"/>
<path d="M25.1651 304.626C26.0971 302.682 27.3398 300.816 28.8155 299.184C30.3689 297.629 32.1553 296.229 34.0194 295.141C33.3981 295.296 32.7767 295.529 32.233 295.918C29.4369 297.551 27.2621 299.883 25.8641 302.76C25.4757 303.304 25.2427 303.926 25.1651 304.626Z" fill="#263238"/>
<path d="M47.8447 239.938C47.767 240.015 49.3981 241.648 51.1845 243.825C52.9709 246.002 54.2136 247.946 54.2913 247.868C53.5922 246.313 52.5825 244.836 51.4951 243.592C50.4078 242.192 49.1651 240.948 47.8447 239.938Z" fill="#263238"/>
<path d="M53.1262 230.685C52.7379 231.852 52.5049 233.018 52.3495 234.184C52.1165 235.35 51.9612 236.517 51.9612 237.761C52.6602 235.428 53.0485 233.096 53.1262 230.685Z" fill="#263238"/>
<path d="M69.6699 259.609C70.3689 261.475 71.301 263.263 72.233 265.051C73.0874 266.839 74.0971 268.628 75.1845 270.338C74.4854 268.472 73.5534 266.684 72.6214 264.896C71.767 263.03 70.7573 261.241 69.6699 259.609Z" fill="#263238"/>
<path d="M79.4563 249.812C78.6019 251.056 77.9029 252.378 77.2816 253.777C76.5825 255.099 75.9612 256.499 75.4951 257.898C76.3495 256.654 77.0485 255.332 77.6699 253.933C78.3689 252.611 78.9903 251.212 79.4563 249.812Z" fill="#263238"/>
<path d="M93.9029 283.322C93.9029 283.478 95.6893 283.089 97.8641 282.934C100.039 282.778 101.825 282.856 101.825 282.778C100.505 282.467 99.1845 282.389 97.7864 282.545C96.466 282.545 95.1456 282.856 93.9029 283.322Z" fill="#263238"/>
<path d="M84.0388 313.023L79.1456 338.836C78.835 340.547 77.3592 341.791 75.5728 341.791H61.0485C59.2621 341.791 57.7864 340.547 57.4757 338.758L53.2039 313.023H84.0388Z" fill="#263238"/>
<path d="M82.4078 321.42H54.6796L53.2039 313.023H84.0388L82.4078 321.42Z" fill="#455A64"/>
<path d="M82.4078 321.42L81.8641 324.452H55.1456L54.6796 321.42H82.4078Z" fill="#FAFAFA"/>
<path d="M123.961 62.3558C141.162 62.3558 155.107 48.397 155.107 31.1779C155.107 13.9588 141.162 0 123.961 0C106.76 0 92.8155 13.9588 92.8155 31.1779C92.8155 48.397 106.76 62.3558 123.961 62.3558Z" fill="#8816AD"/>
<path d="M152.699 28.0679C152.932 28.0679 153.32 28.8454 153.476 30.4004C153.709 32.6552 153.631 34.8322 153.165 37.0869C152.854 38.6419 152.466 40.1192 151.922 41.5965C151.301 43.307 150.524 44.862 149.592 46.417C145.398 53.6478 138.175 58.7015 129.942 60.2566C128.155 60.5676 126.369 60.8008 124.583 60.8008C123.029 60.8008 121.476 60.7231 119.922 60.4898C117.748 60.1788 115.573 59.4791 113.553 58.546C112.155 57.8463 111.456 57.2243 111.612 56.991C111.845 56.369 115.029 57.5353 120.233 57.613C121.631 57.613 123.029 57.613 124.427 57.4575C125.981 57.302 127.534 56.991 129.087 56.6023C136.233 54.8918 142.369 50.5378 146.408 44.3955C147.262 43.0737 148.117 41.6742 148.816 40.2747C149.437 39.0307 149.903 37.7089 150.369 36.3872C152.078 31.4112 152.078 28.0679 152.699 28.0679Z" fill="black"/>
<path d="M122.563 2.41026C122.563 2.72126 119.845 2.56576 115.728 3.65427C113.32 4.27627 111.068 5.20928 108.893 6.45328C103.612 9.4078 99.5728 14.2283 97.5534 19.9819C96.699 22.3144 96.233 24.7246 96 27.2126C95.6893 31.4889 96.3107 34.1324 96 34.2102C95.8447 34.2102 95.534 33.5882 95.2233 32.4219C94.7573 30.7114 94.6019 28.9231 94.6019 27.2126C94.6019 24.5691 94.9903 21.9256 95.8447 19.4376C97.8641 13.1398 102.214 7.93054 108.039 4.89827C110.369 3.65427 112.854 2.79901 115.495 2.33251C117.204 2.02151 118.99 1.94376 120.777 2.02151C121.942 2.09926 122.563 2.25476 122.563 2.41026Z" fill="white"/>
<path d="M98.4078 41.8297C97.9417 42.1407 96.932 41.3632 96.3884 39.9637C95.8447 38.5642 96.233 37.3202 96.7767 37.2424C97.3204 37.1647 97.8641 38.1754 98.2524 39.264C98.6408 40.3525 98.8738 41.5187 98.4078 41.8297Z" fill="white"/>
<path d="M133.359 27.2904C133.437 27.2904 132.971 28.6121 131.417 30.0894C127.223 34.2102 120.621 34.5989 116.039 30.8669C114.408 29.5452 113.786 28.3011 113.786 28.3011C113.786 28.3011 114.641 29.3119 116.35 30.4782C120.777 33.6659 126.913 33.3549 131.029 29.7784C132.583 28.3789 133.204 27.2126 133.359 27.2904Z" fill="white"/>
<path d="M111.301 20.9926C110.757 19.9819 109.67 19.3598 108.505 19.5154C108.194 19.5154 107.806 19.6709 107.573 19.8264C106.718 20.5261 106.252 21.6146 106.408 22.7809C106.796 24.2581 108.194 25.1134 109.67 24.8024C109.748 24.8024 109.825 24.8024 109.825 24.7246C111.223 24.1026 111.922 22.4699 111.301 20.9926Z" fill="white"/>
<path d="M140.893 21.0704C140.35 20.0596 139.262 19.4376 138.097 19.5931C137.786 19.5931 137.398 19.7486 137.165 19.9041C136.311 20.6039 135.845 21.6924 136 22.8586C136.388 24.3359 137.786 25.1911 139.262 24.8801C139.34 24.8801 139.417 24.8801 139.417 24.8024C140.893 24.1804 141.515 22.5476 140.893 21.0704Z" fill="white"/>
<path d="M96.932 199.819C111.86 199.819 123.961 187.705 123.961 172.761C123.961 157.818 111.86 145.704 96.932 145.704C82.0043 145.704 69.9029 157.818 69.9029 172.761C69.9029 187.705 82.0043 199.819 96.932 199.819Z" fill="#8816AD"/>
<path d="M121.864 170.04C122.252 170.04 122.718 170.74 123.029 172.139C123.417 174.083 123.417 176.105 123.107 178.126C122.641 181.158 121.631 184.035 120.155 186.601C116.427 193.287 109.903 197.875 102.369 199.197C99.4175 199.741 96.3107 199.741 93.3592 199.119C91.4175 198.73 89.4757 198.03 87.767 197.02C86.6019 196.242 86.0583 195.542 86.2136 195.231C86.5243 194.376 89.3981 194.998 93.7476 194.842C96.233 194.765 98.7184 194.376 101.126 193.754C106.951 192.199 112 188.622 115.417 183.646C116.893 181.625 118.058 179.37 118.99 177.038C120.621 172.995 121.01 170.118 121.864 170.04Z" fill="black"/>
<path d="M95.6893 147.726C95.6893 148.037 93.2816 147.959 89.7864 148.892C87.6893 149.436 85.7476 150.292 83.8835 151.38C79.301 153.946 75.8835 158.144 74.0971 163.043C73.3981 165.064 72.932 167.163 72.699 169.263C72.3884 172.917 72.932 175.249 72.5437 175.327C72.3107 175.405 71.301 173.15 71.2233 169.185C71.2233 166.852 71.534 164.598 72.233 162.421C73.9417 156.9 77.8252 152.313 82.8738 149.67C84.8932 148.581 87.068 147.804 89.3981 147.415C93.3592 146.871 95.767 147.57 95.6893 147.726Z" fill="white"/>
<path d="M74.7184 182.014C74.2524 182.325 73.3204 181.703 72.8544 180.459C72.3884 179.215 72.7767 178.126 73.3204 178.048C73.8641 177.971 74.4078 178.826 74.7184 179.759C75.0291 180.692 75.1845 181.703 74.7184 182.014Z" fill="white"/>
<path d="M105.087 169.418C105.165 169.418 104.777 170.584 103.456 171.906C99.8058 175.56 94.0583 175.794 90.0194 172.606C88.5437 171.44 88 170.351 88.0777 170.273C88.1553 170.196 88.8544 171.129 90.3301 172.139C94.2136 174.861 99.4175 174.627 102.99 171.517C104.388 170.351 104.932 169.34 105.087 169.418Z" fill="white"/>
<path d="M85.9029 163.898C85.4369 162.965 84.4272 162.498 83.4175 162.576C83.1068 162.576 82.7961 162.654 82.5631 162.887C81.7864 163.509 81.3981 164.442 81.5534 165.453C81.8641 166.697 83.1068 167.474 84.3495 167.241C84.4272 167.241 84.5049 167.163 84.5825 167.163C85.8252 166.619 86.4466 165.22 85.9029 163.898Z" fill="white"/>
<path d="M114.252 166.541C114.175 165.842 114.019 165.142 113.786 164.52C113.476 163.82 113.087 163.276 112.466 162.809C110.99 161.721 108.971 161.799 107.573 162.887C107.029 163.354 106.563 163.976 106.33 164.675C106.175 165.375 106.019 166.075 105.942 166.775C105.864 166.852 105.398 165.919 105.786 164.52C106.019 163.665 106.485 162.965 107.107 162.343C108.738 160.866 111.223 160.866 112.932 162.265C113.553 162.809 114.097 163.587 114.33 164.364C114.796 165.686 114.33 166.541 114.252 166.541Z" fill="white"/>
<path d="M273.243 238.072C287.613 238.072 299.262 226.41 299.262 212.025C299.262 197.64 287.613 185.979 273.243 185.979C258.873 185.979 247.223 197.64 247.223 212.025C247.223 226.41 258.873 238.072 273.243 238.072Z" fill="#8816AD"/>
<path d="M297.243 209.382C297.631 209.382 298.097 210.082 298.408 211.403C298.796 213.269 298.874 215.291 298.563 217.157C298.175 220.034 297.165 222.833 295.767 225.321C292.194 231.774 285.825 236.206 278.602 237.45C275.728 237.994 272.777 237.916 269.903 237.372C267.961 236.983 266.175 236.361 264.544 235.35C263.379 234.573 262.913 233.951 263.068 233.562C263.456 232.707 266.175 233.329 270.291 233.173C272.699 233.096 275.029 232.707 277.359 232.085C282.874 230.608 287.767 227.187 291.029 222.444C292.427 220.5 293.592 218.401 294.447 216.146C295.922 212.259 296.311 209.46 297.243 209.382Z" fill="black"/>
<path d="M272.078 188C272.078 188.311 269.825 188.234 266.408 189.167C264.388 189.711 262.524 190.488 260.738 191.499C256.388 193.987 253.049 197.953 251.34 202.695C250.641 204.639 250.175 206.661 250.019 208.682C249.709 212.181 250.175 214.436 249.864 214.513C249.631 214.591 248.621 212.414 248.621 208.604C248.621 206.35 248.932 204.173 249.631 202.073C251.262 196.786 254.99 192.354 259.883 189.789C261.825 188.778 264 188 266.175 187.612C269.825 187.145 272.155 187.767 272.078 188Z" fill="white"/>
<path d="M251.883 220.889C251.417 221.2 250.485 220.578 250.097 219.334C249.709 218.168 250.019 217.079 250.563 217.001C251.107 216.924 251.65 217.701 251.961 218.634C252.272 219.567 252.35 220.578 251.883 220.889Z" fill="white"/>
<path d="M274.485 218.323C277.204 218.168 279.767 217.001 281.631 215.135C282.641 213.969 283.65 212.259 283.495 210.781C283.417 209.226 282.252 207.905 280.699 207.594C279.612 207.594 278.524 207.905 277.67 208.604C276.816 209.304 275.806 209.771 274.796 210.082C273.243 210.393 271.689 209.848 270.291 209.226C268.893 208.604 267.34 207.982 265.786 208.293C264.699 208.371 263.767 208.993 263.301 210.004C263.301 210.004 262.524 211.714 264.078 213.969C266.485 217.079 270.447 218.79 274.485 218.323Z" fill="white"/>
<path d="M262.68 203.551C262.214 202.695 261.282 202.229 260.35 202.307C260.039 202.307 259.806 202.384 259.573 202.618C258.796 203.162 258.485 204.173 258.641 205.028C258.951 206.272 260.272 207.049 261.515 206.661C261.515 206.661 261.515 206.661 261.592 206.661C262.68 206.116 263.146 204.717 262.68 203.551Z" fill="white"/>
<path d="M287.379 203.628C286.913 202.773 285.981 202.307 285.049 202.384C284.738 202.384 284.505 202.462 284.272 202.618C283.495 203.162 283.184 204.095 283.34 205.028C283.65 206.272 284.893 206.972 286.058 206.738C286.136 206.738 286.136 206.738 286.214 206.661C287.379 206.194 287.922 204.795 287.379 203.628Z" fill="white"/>
</svg>
